<svg width="32" height="32" viewBox="0 0 32 32" fill="none" xmlns="http://www.w3.org/2000/svg">
<path d="M32 16C32 7.16344 24.8366 0 16 0C7.16344 0 0 7.16344 0 16C0 24.8366 7.16344 32 16 32C24.8366 32 32 24.8366 32 16Z" fill="url(#paint0_linear_906_10663)"/>
<g clip-path="url(#clip0_906_10663)">
<path d="M19.2867 7.5H12.2133C9.33869 7.5 7 9.83869 7 12.7133V19.7867C7 22.6613 9.33869 25 12.2133 25H19.2867C22.1613 25 24.5 22.6613 24.5 19.7867V12.7133C24.5 9.83869 22.1613 7.5 19.2867 7.5ZM22.7395 19.7867C22.7395 21.6936 21.1936 23.2395 19.2867 23.2395H12.2133C10.3064 23.2395 8.7605 21.6936 8.7605 19.7867V12.7133C8.7605 10.8064 10.3064 9.2605 12.2133 9.2605H19.2867C21.1936 9.2605 22.7395 10.8064 22.7395 12.7133V19.7867Z" fill="white"/>
<path d="M15.7488 11.7227C13.2531 11.7227 11.2227 13.7531 11.2227 16.2487C11.2227 18.7444 13.2531 20.7749 15.7488 20.7749C18.2445 20.7749 20.2749 18.7445 20.2749 16.2487C20.2749 13.753 18.2445 11.7227 15.7488 11.7227ZM15.7488 19.0144C14.2214 19.0144 12.9832 17.7762 12.9832 16.2488C12.9832 14.7214 14.2214 13.4832 15.7488 13.4832C17.2762 13.4832 18.5144 14.7214 18.5144 16.2488C18.5144 17.7762 17.2762 19.0144 15.7488 19.0144Z" fill="white"/>
<path d="M20.2838 12.8429C20.8828 12.8429 21.3683 12.3574 21.3683 11.7584C21.3683 11.1594 20.8828 10.6738 20.2838 10.6738C19.6848 10.6738 19.1992 11.1594 19.1992 11.7584C19.1992 12.3574 19.6848 12.8429 20.2838 12.8429Z" fill="white"/>
</g>
<defs>
<linearGradient id="paint0_linear_906_10663" x1="16" y1="31.9069" x2="16" y2="0.248549" gradientUnits="userSpaceOnUse">
<stop stop-color="#E09B3D"/>
<stop offset="0.3" stop-color="#C74C4D"/>
<stop offset="0.6" stop-color="#C21975"/>
<stop offset="1" stop-color="#7024C4"/>
</linearGradient>
<clipPath id="clip0_906_10663">
<rect width="17.5" height="17.5" fill="white" transform="translate(7 7.5)"/>
</clipPath>
</defs>
</svg>
