<svg width="32" height="32" viewBox="0 0 32 32" fill="none" xmlns="http://www.w3.org/2000/svg">
<path d="M32 16C32 7.16344 24.8366 0 16 0C7.16344 0 0 7.16344 0 16C0 24.8366 7.16344 32 16 32C24.8366 32 32 24.8366 32 16Z" fill="#F3F3F3"/>
<g clip-path="url(#clip0_906_10670)">
<path d="M23.9136 22.6973H8.08629C7.48635 22.6973 7 22.2109 7 21.611V10.389C7.00004 9.78909 7.48639 9.30273 8.08629 9.30273H23.9136C24.5135 9.30273 24.9999 9.78909 24.9999 10.389V21.611C24.9999 22.2109 24.5135 22.6973 23.9136 22.6973Z" fill="white"/>
<path d="M9.17188 22.6978L24.0619 11.6406V22.6978H9.17188Z" fill="white"/>
<path d="M9.17304 22.6973H8.08629C7.48635 22.6973 7 22.2109 7 21.611V10.389C7.00004 9.78909 7.48639 9.30273 8.08629 9.30273H9.17304V22.6973Z" fill="#F44336"/>
<path d="M8.08594 9.30273H9.17244V22.6973H8.08594V9.30273Z" fill="#E53935"/>
<path d="M22.8281 22.6973H23.9149C24.5148 22.6973 25.0012 22.2109 25.0012 21.611V10.389C25.0012 9.78909 24.5148 9.30273 23.9149 9.30273H22.8281V22.6973Z" fill="#F44336"/>
<path d="M23.9146 9.30273H22.8281C23.4282 9.30273 23.9146 9.78898 23.9146 10.3888V21.6112C23.9146 22.211 23.4282 22.6973 22.8281 22.6973H23.9146C24.5147 22.6973 25.0011 22.211 25.0011 21.6112V10.3888C25.0011 9.78898 24.5147 9.30273 23.9146 9.30273Z" fill="#E53935"/>
<path d="M8.08594 9.30273H23.9128V10.3898L15.9994 16.2785L8.08594 10.1326V9.30273Z" fill="white"/>
<path d="M24.7849 9.74033C24.4266 9.25918 23.7459 9.15951 23.2646 9.51772L16 14.9236L8.73538 9.51772C8.25405 9.15951 7.57339 9.25922 7.21505 9.74033C6.85673 10.2214 6.95644 10.9018 7.43776 11.26L15.3512 17.1487C15.5437 17.292 15.7719 17.3636 16 17.3636C16.2282 17.3636 16.4563 17.292 16.6488 17.1487L24.5623 11.26C25.0436 10.9018 25.1433 10.2214 24.7849 9.74033Z" fill="#F44336"/>
<path d="M24.7852 9.74209C24.4525 9.29525 23.8417 9.17769 23.3707 9.45011C23.4952 9.5219 23.6074 9.61957 23.6987 9.74209C24.0571 10.2232 23.9574 10.9036 23.476 11.2618L15.5626 17.1505C15.5286 17.1758 15.4931 17.1981 15.457 17.2189C15.625 17.316 15.8125 17.3654 16.0003 17.3654C16.2284 17.3654 16.4566 17.2938 16.6491 17.1505L24.5625 11.2617C25.0439 10.9036 25.1436 10.2232 24.7852 9.74209Z" fill="#E53935"/>
</g>
<defs>
<clipPath id="clip0_906_10670">
<rect width="18" height="18" fill="white" transform="translate(7 7)"/>
</clipPath>
</defs>
</svg>
