<svg width="28" height="29" viewBox="0 0 28 29" fill="none" xmlns="http://www.w3.org/2000/svg">
<circle cx="14" cy="14.1172" r="13.5" stroke="#D4D4D8"/>
<path fill-rule="evenodd" clip-rule="evenodd" d="M12.5016 11.3504H14.6681V12.4296C14.9801 11.8089 15.7805 11.2512 16.9827 11.2512C19.2875 11.2512 19.8346 12.4867 19.8346 14.7536V18.9518H17.5013V15.2698C17.5013 13.9789 17.1892 13.2509 16.3947 13.2509C15.2928 13.2509 14.8349 14.0355 14.8349 15.2692V18.9518H12.5016V11.3504ZM8.50047 18.8527H10.8338V11.2512H8.50047V18.8527ZM11.1681 8.77266C11.1681 8.96823 11.1294 9.16188 11.0539 9.34233C10.9785 9.52279 10.868 9.68646 10.7288 9.82382C10.4467 10.1042 10.0649 10.2611 9.66714 10.2602C9.27011 10.2599 8.88915 10.1034 8.60664 9.82441C8.46793 9.68657 8.35778 9.52272 8.2825 9.34224C8.20723 9.16176 8.16831 8.9682 8.16797 8.77266C8.16797 8.37774 8.32547 7.99974 8.60722 7.72091C8.88949 7.44158 9.27061 7.28498 9.66772 7.28516C10.0656 7.28516 10.4471 7.44207 10.7288 7.72091C11.01 7.99974 11.1681 8.37774 11.1681 8.77266Z" fill="#2567B3"/>
</svg>
