<svg width="28" height="29" viewBox="0 0 28 29" fill="none" xmlns="http://www.w3.org/2000/svg">
<circle cx="14" cy="14.1172" r="13.5" stroke="#D4D4D8"/>
<g clip-path="url(#clip0_109_709)">
<path d="M21.04 14.2852C21.04 13.7652 20.9933 13.2652 20.9067 12.7852H14V15.6218H17.9467C17.7767 16.5385 17.26 17.3152 16.4833 17.8352V19.6752H18.8533C20.24 18.3985 21.04 16.5185 21.04 14.2852Z" fill="#4285F4"/>
<path d="M13.9986 21.4517C15.9786 21.4517 17.6386 20.7951 18.852 19.6751L16.482 17.8351C15.8253 18.2751 14.9853 18.5351 13.9986 18.5351C12.0886 18.5351 10.472 17.2451 9.89531 15.5117H7.44531V17.4117C8.65198 19.8084 11.132 21.4517 13.9986 21.4517Z" fill="#34A853"/>
<path d="M9.89797 15.5109C9.7513 15.0709 9.66797 14.6009 9.66797 14.1176C9.66797 13.6342 9.7513 13.1642 9.89797 12.7242V10.8242H7.44797C6.93464 11.8461 6.66752 12.974 6.66797 14.1176C6.66797 15.3009 6.9513 16.4209 7.44797 17.4109L9.89797 15.5109Z" fill="#FBBC05"/>
<path d="M13.9986 9.70182C15.0753 9.70182 16.042 10.0718 16.802 10.7985L18.9053 8.69516C17.6353 7.51182 15.9753 6.78516 13.9986 6.78516C11.132 6.78516 8.65198 8.42849 7.44531 10.8252L9.89531 12.7252C10.472 10.9918 12.0886 9.70182 13.9986 9.70182Z" fill="#EA4335"/>
</g>
<defs>
<clipPath id="clip0_109_709">
<rect x="6" y="6.11719" width="16" height="16" rx="8" fill="white"/>
</clipPath>
</defs>
</svg>
