<svg width="20" height="24" viewBox="0 0 20 24" fill="none" xmlns="http://www.w3.org/2000/svg">
<path d="M18.4375 8.90625H16.5625C16.1742 8.90625 15.8594 9.22106 15.8594 9.60938C15.8594 9.99769 16.1742 10.3125 16.5625 10.3125H16.7969V12.8906C16.7969 13.5368 16.2712 14.0625 15.625 14.0625H12.1094V12.6562H13.1592C13.7474 12.6562 14.3132 12.408 14.7115 11.9752C15.1097 11.5423 15.3101 10.9579 15.2613 10.3717L14.5582 1.9342C14.4677 0.849609 13.5444 0 12.4561 0H7.54394C6.45559 0 5.5322 0.849609 5.44183 1.9342L4.7387 10.3717C4.68986 10.9579 4.89025 11.5423 5.28855 11.9752C5.68684 12.408 6.25258 12.6562 6.84081 12.6562H7.89062V14.0625H4.375C3.72883 14.0625 3.20312 13.5368 3.20312 12.8906V10.3125H3.4375C3.82581 10.3125 4.14062 9.99769 4.14062 9.60938C4.14062 9.22106 3.82581 8.90625 3.4375 8.90625H1.5625C1.17419 8.90625 0.859375 9.22106 0.859375 9.60938C0.859375 9.99769 1.17419 10.3125 1.5625 10.3125H1.79688V12.8906C1.79688 14.3122 2.95342 15.4688 4.375 15.4688H5.07812V16.1719C5.07812 17.335 6.02439 18.2812 7.1875 18.2812H9.29688V19.9776L5.55892 21.2235C5.27177 21.3193 5.07812 21.588 5.07812 21.8906V23.2969C5.07812 23.6852 5.39294 24 5.78125 24C6.16956 24 6.48438 23.6852 6.48438 23.2969V22.3974L9.29688 21.4599V22.8281C9.29688 23.2164 9.61169 23.5312 10 23.5312C10.3883 23.5312 10.7031 23.2164 10.7031 22.8281V21.4599L13.5156 22.3974V23.2969C13.5156 23.6852 13.8304 24 14.2188 24C14.6071 24 14.9219 23.6852 14.9219 23.2969V21.8906C14.9219 21.588 14.7282 21.3193 14.4411 21.2236L10.7031 19.9776V18.2812H12.8125C13.9756 18.2812 14.9219 17.335 14.9219 16.1719V15.4688H15.625C17.0466 15.4688 18.2031 14.3122 18.2031 12.8906V10.3125H18.4375C18.8258 10.3125 19.1406 9.99769 19.1406 9.60938C19.1406 9.22106 18.8258 8.90625 18.4375 8.90625ZM6.84081 11.25C6.64188 11.25 6.45808 11.1694 6.32336 11.023C6.18864 10.8765 6.12358 10.6868 6.14008 10.4885L6.8432 2.05102C6.87334 1.68947 7.18117 1.40625 7.54394 1.40625H12.4561C12.8188 1.40625 13.1267 1.68947 13.1567 2.05097L13.8599 10.4885C13.8764 10.6867 13.8113 10.8765 13.6766 11.0229C13.5419 11.1693 13.3581 11.25 13.1591 11.25H6.84081V11.25ZM10.7031 12.6562V14.0625H9.29688V12.6562H10.7031ZM13.5156 16.1719C13.5156 16.5596 13.2002 16.875 12.8125 16.875H7.1875C6.7998 16.875 6.48438 16.5596 6.48438 16.1719V15.4688H13.5156V16.1719Z" fill="#236DF8"/>
</svg>
