<svg width="34" height="34" viewBox="0 0 34 34" fill="none" xmlns="http://www.w3.org/2000/svg">
<g clip-path="url(#clip0_906_8703)">
<path d="M17 0C7.6262 0 0 7.6262 0 17C0 26.3738 7.6262 34 17 34C26.3738 34 34 26.3738 34 17C34 7.6262 26.3738 0 17 0ZM17 30.9091C9.33042 30.9091 3.09091 24.6695 3.09091 17C3.09091 9.33053 9.33042 3.09091 17 3.09091C24.6696 3.09091 30.9091 9.33053 30.9091 17C30.9091 24.6695 24.6695 30.9091 17 30.9091Z" fill="#236DF8"/>
<path d="M23.3759 10.9897L14.6334 19.7322L10.6265 15.7252C10.0231 15.1218 9.0445 15.1216 8.44094 15.7251C7.83739 16.3286 7.83739 17.3071 8.44094 17.9107L13.5405 23.0105C13.8304 23.3003 14.2234 23.4632 14.6333 23.4632H14.6334C15.0432 23.4632 15.4363 23.3003 15.7261 23.0106L25.5615 13.1754C26.165 12.5719 26.165 11.5934 25.5615 10.9898C24.9579 10.3863 23.9795 10.3862 23.3759 10.9897Z" fill="#236DF8"/>
</g>
<defs>
<clipPath id="clip0_906_8703">
<rect width="34" height="34" fill="white"/>
</clipPath>
</defs>
</svg>
