<svg width="24" height="24" viewBox="0 0 24 24" fill="none" xmlns="http://www.w3.org/2000/svg">
<path d="M22.1718 15.5156C22.1718 13.4289 20.649 11.6914 18.6562 11.3558V0.703124C18.6562 0.314758 18.3415 0 17.9531 0H6.7033C6.51049 0 6.33123 0.0805663 6.2058 0.205993L1.98724 4.42455C1.85266 4.55914 1.78125 4.74316 1.78125 4.92205V19.0312C1.78125 19.4196 2.09601 19.7343 2.48437 19.7343H14.4375V23.2968C14.4375 23.5405 14.5636 23.7669 14.7709 23.895C14.9784 24.023 15.2371 24.0347 15.455 23.9258L17.9531 22.6767L20.4512 23.9258C20.5504 23.9754 20.6581 24 20.7656 24C20.8941 24 21.0223 23.9648 21.1353 23.895C21.3426 23.7669 21.4687 23.5405 21.4687 23.2968V17.8449C21.9127 17.1769 22.1718 16.376 22.1718 15.5156ZM20.7656 15.5156C20.7656 17.0665 19.504 18.3281 17.9531 18.3281C16.4024 18.3281 15.1406 17.0665 15.1406 15.5156C15.1406 13.9647 16.4024 12.7031 17.9531 12.7031C19.504 12.7031 20.7656 13.9647 20.7656 15.5156ZM5.99999 2.40069V4.21874H4.18194L5.99999 2.40069ZM3.1875 18.3281V5.62499H6.70312C7.09148 5.62499 7.40624 5.31023 7.40624 4.92187V1.40625H17.25V11.3558C15.2572 11.6916 13.7344 13.4289 13.7344 15.5156C13.7344 16.376 13.9934 17.1769 14.4375 17.8449V18.3281H3.1875ZM18.2675 21.2616C18.0696 21.1627 17.8366 21.1627 17.6387 21.2616L15.8437 22.1592V19.168C16.4646 19.528 17.1852 19.7343 17.9531 19.7343C18.721 19.7343 19.4416 19.528 20.0625 19.168V22.1592L18.2675 21.2616Z" fill="#236DF8"/>
<path d="M16.5469 15.5156C16.5469 16.291 17.1777 16.9218 17.9531 16.9218C18.7286 16.9218 19.3594 16.291 19.3594 15.5156C19.3594 14.7401 18.7286 14.1093 17.9531 14.1093C17.1777 14.1093 16.5469 14.7401 16.5469 15.5156Z" fill="#236DF8"/>
<path d="M5.29687 8.48437H15.1406C15.529 8.48437 15.8437 8.16961 15.8437 7.78125C15.8437 7.39288 15.529 7.07812 15.1406 7.07812H5.29687C4.90851 7.07812 4.59375 7.39288 4.59375 7.78125C4.59375 8.16961 4.90851 8.48437 5.29687 8.48437Z" fill="#236DF8"/>
<path d="M5.29687 11.2968H15.1406C15.529 11.2968 15.8437 10.9821 15.8437 10.5937C15.8437 10.2054 15.529 9.89059 15.1406 9.89059H5.29687C4.90851 9.89059 4.59375 10.2054 4.59375 10.5937C4.59375 10.9821 4.90851 11.2968 5.29687 11.2968Z" fill="#236DF8"/>
<path d="M9.51562 5.625H15.1406C15.529 5.625 15.8437 5.31024 15.8437 4.92187C15.8437 4.53351 15.529 4.21875 15.1406 4.21875H9.51562C9.12726 4.21875 8.8125 4.53351 8.8125 4.92187C8.8125 5.31024 9.12726 5.625 9.51562 5.625Z" fill="#236DF8"/>
<path d="M12.3281 12.7031H5.29687C4.90851 12.7031 4.59375 13.0179 4.59375 13.4062C4.59375 13.7946 4.90851 14.1093 5.29687 14.1093H12.3281C12.7165 14.1093 13.0312 13.7946 13.0312 13.4062C13.0312 13.0179 12.7165 12.7031 12.3281 12.7031Z" fill="#236DF8"/>
</svg>
