<svg width="24" height="24" viewBox="0 0 24 24" fill="none" xmlns="http://www.w3.org/2000/svg">
<path d="M11.415 23.6869C11.5454 23.8825 11.7649 24 12 24C12.2351 24 12.4546 23.8825 12.585 23.6869C14.2491 21.1909 16.7 18.1084 18.408 14.9733C19.7736 12.4666 20.4375 10.3287 20.4375 8.4375C20.4375 3.78506 16.6524 0 12 0C7.34756 0 3.5625 3.78506 3.5625 8.4375C3.5625 10.3287 4.22639 12.4666 5.59205 14.9733C7.29872 18.106 9.75436 21.1961 11.415 23.6869ZM12 1.40625C15.877 1.40625 19.0312 4.56047 19.0312 8.4375C19.0312 10.0877 18.4234 12.0055 17.1731 14.3006C15.7009 17.0029 13.6 19.7441 12 22.0485C10.4002 19.7444 8.29922 17.003 6.82692 14.3006C5.57658 12.0055 4.96875 10.0877 4.96875 8.4375C4.96875 4.56047 8.12297 1.40625 12 1.40625Z" fill="#236DF8"/>
<path d="M12 12.6562C14.3262 12.6562 16.2188 10.7637 16.2188 8.4375C16.2188 6.11128 14.3262 4.21875 12 4.21875C9.67378 4.21875 7.78125 6.11128 7.78125 8.4375C7.78125 10.7637 9.67378 12.6562 12 12.6562ZM12 5.625C13.5508 5.625 14.8125 6.88669 14.8125 8.4375C14.8125 9.98831 13.5508 11.25 12 11.25C10.4492 11.25 9.1875 9.98831 9.1875 8.4375C9.1875 6.88669 10.4492 5.625 12 5.625Z" fill="#236DF8"/>
</svg>
