<svg width="24" height="22" viewBox="0 0 24 22" fill="none" xmlns="http://www.w3.org/2000/svg">
<path d="M23.3013 3.26581C23.2998 3.26581 23.2983 3.26562 23.2969 3.26562H16.9219V2.5625C16.9219 1.39941 15.9756 0.453125 14.8125 0.453125H9.1875C8.02441 0.453125 7.07812 1.39941 7.07812 2.5625V3.26562H0.703125C0.311646 3.26562 0 3.58643 0 3.96875V19.4375C0 20.6006 0.946289 21.5469 2.10938 21.5469H21.8906C23.0537 21.5469 24 20.6006 24 19.4375V3.98358C24 3.98267 24 3.98175 24 3.98083C23.9731 3.51904 23.6891 3.26837 23.3013 3.26581ZM8.48438 2.5625C8.48438 2.17487 8.79987 1.85938 9.1875 1.85938H14.8125C15.2001 1.85938 15.5156 2.17487 15.5156 2.5625V3.26562H8.48438V2.5625ZM22.3213 4.67188L20.1378 11.2223C20.042 11.5099 19.7739 11.7031 19.4709 11.7031H15.5156V11C15.5156 10.6116 15.2009 10.2969 14.8125 10.2969H9.1875C8.79913 10.2969 8.48438 10.6116 8.48438 11V11.7031H4.52911C4.22607 11.7031 3.95801 11.5099 3.86224 11.2223L1.67871 4.67188H22.3213ZM14.1094 11.7031V13.1094H9.89062V11.7031H14.1094ZM22.5938 19.4375C22.5938 19.8251 22.2783 20.1406 21.8906 20.1406H2.10938C1.72174 20.1406 1.40625 19.8251 1.40625 19.4375V8.30157L2.52814 11.6671C2.81561 12.5298 3.61981 13.1094 4.52911 13.1094H8.48438V13.8125C8.48438 14.2009 8.79913 14.5156 9.1875 14.5156H14.8125C15.2009 14.5156 15.5156 14.2009 15.5156 13.8125V13.1094H19.4709C20.3802 13.1094 21.1844 12.5298 21.4719 11.6671L22.5938 8.30157V19.4375Z" fill="#236DF8"/>
</svg>
