<svg width="19" height="18" viewBox="0 0 19 18" fill="none" xmlns="http://www.w3.org/2000/svg">
<g clip-path="url(#clip0_1380_467)">
<path d="M10.7155 17.9648H7.8273C7.34488 17.9648 6.95245 17.5732 6.95245 17.0917V10.59H5.26743C4.78501 10.59 4.39258 10.1982 4.39258 9.71686V6.93086C4.39258 6.44939 4.78501 6.05772 5.26743 6.05772H6.95245V4.6626C6.95245 3.27928 7.38767 2.10237 8.21092 1.25931C9.03788 0.412399 10.1936 -0.0351562 11.553 -0.0351562L13.7557 -0.0315857C14.2373 -0.0307617 14.629 0.360901 14.629 0.841553V3.42828C14.629 3.90976 14.2367 4.30142 13.7545 4.30142L12.2714 4.30197C11.8191 4.30197 11.704 4.39247 11.6793 4.42021C11.6388 4.46622 11.5905 4.59627 11.5905 4.95538V6.05759H13.643C13.7975 6.05759 13.9472 6.09563 14.0759 6.16731C14.3534 6.32208 14.526 6.61473 14.526 6.931L14.5249 9.717C14.5249 10.1982 14.1324 10.5899 13.65 10.5899H11.5905V17.0917C11.5905 17.5732 11.1979 17.9648 10.7155 17.9648ZM8.00975 16.9096H10.533V10.1176C10.533 9.7961 10.7951 9.53462 11.1171 9.53462H13.4676L13.4685 7.11296H11.117C10.795 7.11296 10.533 6.85149 10.533 6.53V4.95538C10.533 4.54312 10.575 4.07428 10.8868 3.72189C11.2635 3.2959 11.8573 3.24673 12.2712 3.24673L13.5717 3.24619V1.02338L11.5522 1.02008C9.36743 1.02008 8.00975 2.41589 8.00975 4.6626V6.53C8.00975 6.85135 7.74776 7.11296 7.42579 7.11296H5.44988V9.53462H7.42579C7.74776 9.53462 8.00975 9.7961 8.00975 10.1176V16.9096Z" fill="white"/>
</g>
<defs>
<clipPath id="clip0_1380_467">
<rect width="18" height="18" fill="white" transform="translate(0.5)"/>
</clipPath>
</defs>
</svg>
