<svg width="19" height="18" viewBox="0 0 19 18" fill="none" xmlns="http://www.w3.org/2000/svg">
<g clip-path="url(#clip0_1380_461)">
<path d="M9.67715 17.9999C9.61755 17.9999 9.55795 17.9999 9.49794 17.9997C8.08702 18.0031 6.78335 17.9673 5.51553 17.8901C4.35318 17.8194 3.29217 17.4177 2.44705 16.7286C1.63159 16.0636 1.07472 15.1645 0.791962 14.0565C0.545868 13.0919 0.532822 12.1451 0.520325 11.2292C0.511261 10.5721 0.501923 9.79344 0.5 9.0016C0.501923 8.20646 0.511261 7.4278 0.520325 6.77068C0.532822 5.85497 0.545868 4.90809 0.791962 3.94335C1.07472 2.83538 1.63159 1.93629 2.44705 1.27134C3.29217 0.582225 4.35318 0.180537 5.51567 0.109813C6.78349 0.0327712 8.08743 -0.00320907 9.50137 0.00022416C10.9127 -0.00279708 12.216 0.0327712 13.4838 0.109813C14.6461 0.180537 15.7071 0.582225 16.5523 1.27134C17.3679 1.93629 17.9246 2.83538 18.2073 3.94335C18.4534 4.90795 18.4665 5.85497 18.479 6.77068C18.488 7.4278 18.4975 8.20646 18.4993 8.9983V9.0016C18.4975 9.79344 18.488 10.5721 18.479 11.2292C18.4665 12.1449 18.4536 13.0918 18.2073 14.0565C17.9246 15.1645 17.3679 16.0636 16.5523 16.7286C15.7071 17.4177 14.6461 17.8194 13.4838 17.8901C12.2697 17.964 11.0224 17.9999 9.67715 17.9999ZM9.49794 16.5934C10.8859 16.5967 12.1603 16.5617 13.3984 16.4864C14.2773 16.433 15.0393 16.1478 15.6636 15.6387C16.2407 15.1681 16.6381 14.5188 16.8448 13.7088C17.0497 12.9059 17.0615 12.0437 17.0729 11.21C17.0818 10.5573 17.0911 9.7841 17.0931 8.99995C17.0911 8.21566 17.0818 7.44264 17.0729 6.78991C17.0615 5.95619 17.0497 5.09403 16.8448 4.29093C16.6381 3.48097 16.2407 2.83168 15.6636 2.36105C15.0393 1.85211 14.2773 1.56687 13.3984 1.51345C12.1603 1.43806 10.8859 1.40332 9.50123 1.40634C8.11352 1.40304 6.83897 1.43806 5.60095 1.51345C4.72204 1.56687 3.96001 1.85211 3.33571 2.36105C2.75865 2.83168 2.36122 3.48097 2.15454 4.29093C1.94965 5.09403 1.93784 5.95605 1.92644 6.78991C1.91751 7.44319 1.90817 8.21676 1.90625 9.0016C1.90817 9.783 1.91751 10.5567 1.92644 11.21C1.93784 12.0437 1.94965 12.9059 2.15454 13.7088C2.36122 14.5188 2.75865 15.1681 3.33571 15.6387C3.96001 16.1477 4.72204 16.4329 5.60095 16.4863C6.83897 16.5617 8.1138 16.5969 9.49794 16.5934ZM9.46443 13.3945C7.0414 13.3945 5.0699 11.4231 5.0699 8.99995C5.0699 6.57678 7.0414 4.60542 9.46443 4.60542C11.8876 4.60542 13.859 6.57678 13.859 8.99995C13.859 11.4231 11.8876 13.3945 9.46443 13.3945ZM9.46443 6.01167C7.81676 6.01167 6.47615 7.35227 6.47615 8.99995C6.47615 10.6476 7.81676 11.9882 9.46443 11.9882C11.1122 11.9882 12.4527 10.6476 12.4527 8.99995C12.4527 7.35227 11.1122 6.01167 9.46443 6.01167ZM14.3511 3.19917C13.7687 3.19917 13.2965 3.6713 13.2965 4.25385C13.2965 4.8364 13.7687 5.30854 14.3511 5.30854C14.9337 5.30854 15.4058 4.8364 15.4058 4.25385C15.4058 3.6713 14.9337 3.19917 14.3511 3.19917Z" fill="white"/>
</g>
<defs>
<clipPath id="clip0_1380_461">
<rect width="18" height="18" fill="white" transform="translate(0.5)"/>
</clipPath>
</defs>
</svg>
