<svg width="19" height="18" viewBox="0 0 19 18" fill="none" xmlns="http://www.w3.org/2000/svg">
<g clip-path="url(#clip0_1380_469)">
<path d="M0.774414 17.9278H5.43511V5.67188H0.774414V17.9278ZM1.8291 6.72656H4.38043V16.8731H1.8291V6.72656Z" fill="white"/>
<path d="M3.10504 0.0732422C1.66859 0.0732422 0.5 1.24187 0.5 2.67829C0.5 4.1147 1.66859 5.28336 3.10504 5.28336C4.54149 5.28336 5.71012 4.11473 5.71012 2.67829C5.71012 1.24184 4.54146 0.0732422 3.10504 0.0732422ZM1.55469 2.67829C1.55469 1.82343 2.25015 1.12793 3.10504 1.12793C3.95994 1.12793 4.65543 1.82339 4.65543 2.67829C4.65543 3.53318 3.95994 4.22868 3.10504 4.22868C2.25015 4.22868 1.55469 3.53314 1.55469 2.67829Z" fill="white"/>
<path d="M18.4889 9.52069C18.3231 7.13516 16.3332 5.29688 13.8663 5.29688C12.7628 5.29688 11.7212 5.6805 10.9005 6.3612V5.67213H6.43457V17.9281H11.0953V11.225C11.0953 10.4696 11.7099 9.85499 12.4653 9.85499C13.2207 9.85499 13.8353 10.4696 13.8353 11.2253L13.8398 17.9281H18.5002V9.53201L18.4889 9.52069ZM10.0406 16.8734H7.48926V6.72686H9.84575V8.2332L10.6897 8.23805L10.8465 7.99463C11.5092 6.96578 12.6381 6.3516 13.8663 6.3516C15.8293 6.3516 17.401 7.84932 17.4445 9.76123L17.4455 16.8734H14.8938L14.89 11.225C14.89 9.88804 13.8023 8.8003 12.4653 8.8003C11.1284 8.8003 10.0406 9.88804 10.0406 11.225V16.8734Z" fill="white"/>
</g>
<defs>
<clipPath id="clip0_1380_469">
<rect width="18" height="18" fill="white" transform="translate(0.5)"/>
</clipPath>
</defs>
</svg>
