<svg width="19" height="18" viewBox="0 0 19 18" fill="none" xmlns="http://www.w3.org/2000/svg">
<g clip-path="url(#clip0_1380_463)">
<path d="M18.4205 3.85215C18.3141 3.67904 18.1193 3.58091 17.9166 3.59849L17.0191 3.67668L17.877 1.94724C17.9792 1.74126 17.9388 1.49309 17.7767 1.33007C17.6144 1.16705 17.3665 1.12549 17.16 1.2266L14.8894 2.33863C13.4866 1.59803 11.7339 1.81786 10.5279 2.91646C9.52139 3.83334 8.99232 5.24335 9.09097 6.64946C6.46025 6.38579 4.23345 4.88001 2.91671 2.44698C2.82935 2.28558 2.66555 2.18001 2.48249 2.16703C2.29908 2.15427 2.12239 2.23555 2.01319 2.3831C1.19651 3.48638 1.13921 4.99909 1.77944 6.24358C1.60295 6.19901 1.41515 6.13868 1.20688 6.0691C1.02846 6.00944 0.831763 6.04766 0.688572 6.16972C0.54538 6.29178 0.476544 6.4799 0.507165 6.66557C0.760502 8.20147 1.65614 9.38188 3.07097 10.0806C2.88676 10.1447 2.69877 10.1968 2.50763 10.2367C2.31772 10.2763 2.16394 10.4152 2.10541 10.6002C2.04687 10.7851 2.09264 10.9872 2.22518 11.1289C3.24405 12.2179 4.71583 12.754 5.76124 13.0111C4.57261 13.9419 3.28951 14.0977 1.42503 14.0337C1.2092 14.0272 1.01036 14.1487 0.919619 14.3444C0.828916 14.5401 0.864107 14.771 1.00906 14.9308C1.78629 15.7875 4.61799 16.7536 7.59475 16.826C7.71249 16.8288 7.83258 16.8304 7.95521 16.8304C10.0453 16.8303 12.8076 16.3823 14.7903 14.3996C16.291 12.8989 17.2297 11.1713 17.5801 9.26492C17.8632 7.72518 17.6843 6.49217 17.5983 5.89958C17.592 5.85602 17.5853 5.80979 17.5798 5.76936L18.4193 4.41619C18.5264 4.24358 18.5269 4.02526 18.4205 3.85215ZM16.5359 6.0537C16.6952 7.15143 17.1798 10.4918 14.0312 13.6405C12.2009 15.4707 9.5351 15.7993 7.62083 15.7528C5.98744 15.7131 4.52641 15.4007 3.4675 15.0444C3.89743 14.9917 4.28056 14.9103 4.64222 14.7979C5.63921 14.488 6.48149 13.9304 7.29283 13.0431C7.42807 12.8952 7.46963 12.6843 7.40069 12.4962C7.33174 12.308 7.1637 12.1739 6.96492 12.1485C6.45308 12.0829 4.91513 11.824 3.70407 10.9886C4.05307 10.8459 4.38965 10.6672 4.71105 10.454C4.88736 10.337 4.97856 10.1274 4.94382 9.91872C4.90912 9.71003 4.7551 9.54111 4.55042 9.48746C3.55919 9.22758 2.36289 8.6461 1.81125 7.34802C2.16352 7.40975 2.54655 7.4247 2.95506 7.33311C3.14442 7.29071 3.29615 7.14939 3.35184 6.96348C3.40756 6.77757 3.35862 6.57606 3.22383 6.43649C2.53744 5.72556 2.28077 4.70103 2.50099 3.82434C3.22218 4.87836 4.13586 5.76542 5.18267 6.42126C6.52181 7.26027 8.08479 7.72395 9.70272 7.76202C9.86736 7.7655 10.0253 7.69364 10.1301 7.56609C10.2349 7.43858 10.2752 7.26994 10.2393 7.10882C9.96098 5.85743 10.358 4.52339 11.2508 3.71011C12.1768 2.86654 13.5454 2.73857 14.5789 3.39912C14.7368 3.49998 14.9358 3.51127 15.1041 3.42886L16.213 2.88577L15.6326 4.05581C15.5463 4.22965 15.5606 4.43651 15.67 4.59679C15.7794 4.75707 15.9664 4.84605 16.16 4.82907L16.942 4.76097L16.5818 5.34158C16.4609 5.53645 16.4859 5.70935 16.5359 6.0537Z" fill="white"/>
</g>
<defs>
<clipPath id="clip0_1380_463">
<rect width="18" height="18" fill="white" transform="translate(0.5)"/>
</clipPath>
</defs>
</svg>
