<svg width="18" height="18" viewBox="0 0 18 18" fill="none" xmlns="http://www.w3.org/2000/svg">
<g clip-path="url(#clip0_109_258)">
<path d="M10.2155 17.9648H7.3273C6.84488 17.9648 6.45245 17.5732 6.45245 17.0917V10.59H4.76743C4.28501 10.59 3.89258 10.1982 3.89258 9.71686V6.93086C3.89258 6.44939 4.28501 6.05772 4.76743 6.05772H6.45245V4.6626C6.45245 3.27928 6.88767 2.10237 7.71092 1.25931C8.53788 0.412399 9.69357 -0.0351562 11.053 -0.0351562L13.2557 -0.0315857C13.7373 -0.0307617 14.129 0.360901 14.129 0.841553V3.42828C14.129 3.90976 13.7367 4.30142 13.2545 4.30142L11.7714 4.30197C11.3191 4.30197 11.204 4.39247 11.1793 4.42021C11.1388 4.46622 11.0905 4.59627 11.0905 4.95538V6.05759H13.143C13.2975 6.05759 13.4472 6.09563 13.5759 6.16731C13.8534 6.32208 14.026 6.61473 14.026 6.931L14.0249 9.717C14.0249 10.1982 13.6324 10.5899 13.15 10.5899H11.0905V17.0917C11.0905 17.5732 10.6979 17.9648 10.2155 17.9648ZM7.50975 16.9096H10.033V10.1176C10.033 9.7961 10.2951 9.53462 10.6171 9.53462H12.9676L12.9685 7.11296H10.617C10.295 7.11296 10.033 6.85149 10.033 6.53V4.95538C10.033 4.54312 10.075 4.07428 10.3868 3.72189C10.7635 3.2959 11.3573 3.24673 11.7712 3.24673L13.0717 3.24619V1.02338L11.0522 1.02008C8.86743 1.02008 7.50975 2.41589 7.50975 4.6626V6.53C7.50975 6.85135 7.24776 7.11296 6.92579 7.11296H4.94988V9.53462H6.92579C7.24776 9.53462 7.50975 9.7961 7.50975 10.1176V16.9096Z" fill="white"/>
</g>
<defs>
<clipPath id="clip0_109_258">
<rect width="18" height="18" fill="white"/>
</clipPath>
</defs>
</svg>
