<svg width="18" height="18" viewBox="0 0 18 18" fill="none" xmlns="http://www.w3.org/2000/svg">
<g clip-path="url(#clip0_109_260)">
<path d="M9.17715 17.9999C9.11755 17.9999 9.05795 17.9999 8.99794 17.9997C7.58702 18.0031 6.28335 17.9673 5.01553 17.8901C3.85318 17.8194 2.79217 17.4177 1.94705 16.7286C1.13159 16.0636 0.574722 15.1645 0.291962 14.0565C0.0458679 13.0919 0.0328217 12.1451 0.0203247 11.2292C0.011261 10.5721 0.00192261 9.79344 0 9.0016C0.00192261 8.20646 0.011261 7.4278 0.0203247 6.77068C0.0328217 5.85497 0.0458679 4.90809 0.291962 3.94335C0.574722 2.83538 1.13159 1.93629 1.94705 1.27134C2.79217 0.582225 3.85318 0.180537 5.01567 0.109813C6.28349 0.0327712 7.58743 -0.00320907 9.00137 0.00022416C10.4127 -0.00279708 11.716 0.0327712 12.9838 0.109813C14.1461 0.180537 15.2071 0.582225 16.0523 1.27134C16.8679 1.93629 17.4246 2.83538 17.7073 3.94335C17.9534 4.90795 17.9665 5.85497 17.979 6.77068C17.988 7.4278 17.9975 8.20646 17.9993 8.9983V9.0016C17.9975 9.79344 17.988 10.5721 17.979 11.2292C17.9665 12.1449 17.9536 13.0918 17.7073 14.0565C17.4246 15.1645 16.8679 16.0636 16.0523 16.7286C15.2071 17.4177 14.1461 17.8194 12.9838 17.8901C11.7697 17.964 10.5224 17.9999 9.17715 17.9999ZM8.99794 16.5934C10.3859 16.5967 11.6603 16.5617 12.8984 16.4864C13.7773 16.433 14.5393 16.1478 15.1636 15.6387C15.7407 15.1681 16.1381 14.5188 16.3448 13.7088C16.5497 12.9059 16.5615 12.0437 16.5729 11.21C16.5818 10.5573 16.5911 9.7841 16.5931 8.99995C16.5911 8.21566 16.5818 7.44264 16.5729 6.78991C16.5615 5.95619 16.5497 5.09403 16.3448 4.29093C16.1381 3.48097 15.7407 2.83168 15.1636 2.36105C14.5393 1.85211 13.7773 1.56687 12.8984 1.51345C11.6603 1.43806 10.3859 1.40332 9.00123 1.40634C7.61352 1.40304 6.33897 1.43806 5.10095 1.51345C4.22204 1.56687 3.46001 1.85211 2.83571 2.36105C2.25865 2.83168 1.86122 3.48097 1.65454 4.29093C1.44965 5.09403 1.43784 5.95605 1.42644 6.78991C1.41751 7.44319 1.40817 8.21676 1.40625 9.0016C1.40817 9.783 1.41751 10.5567 1.42644 11.21C1.43784 12.0437 1.44965 12.9059 1.65454 13.7088C1.86122 14.5188 2.25865 15.1681 2.83571 15.6387C3.46001 16.1477 4.22204 16.4329 5.10095 16.4863C6.33897 16.5617 7.6138 16.5969 8.99794 16.5934ZM8.96443 13.3945C6.5414 13.3945 4.5699 11.4231 4.5699 8.99995C4.5699 6.57678 6.5414 4.60542 8.96443 4.60542C11.3876 4.60542 13.359 6.57678 13.359 8.99995C13.359 11.4231 11.3876 13.3945 8.96443 13.3945ZM8.96443 6.01167C7.31676 6.01167 5.97615 7.35227 5.97615 8.99995C5.97615 10.6476 7.31676 11.9882 8.96443 11.9882C10.6122 11.9882 11.9527 10.6476 11.9527 8.99995C11.9527 7.35227 10.6122 6.01167 8.96443 6.01167ZM13.8511 3.19917C13.2687 3.19917 12.7965 3.6713 12.7965 4.25385C12.7965 4.8364 13.2687 5.30854 13.8511 5.30854C14.4337 5.30854 14.9058 4.8364 14.9058 4.25385C14.9058 3.6713 14.4337 3.19917 13.8511 3.19917Z" fill="white"/>
</g>
<defs>
<clipPath id="clip0_109_260">
<rect width="18" height="18" fill="white"/>
</clipPath>
</defs>
</svg>
