<svg width="18" height="18" viewBox="0 0 18 18" fill="none" xmlns="http://www.w3.org/2000/svg">
<path d="M0.274414 17.9278H4.93511V5.67188H0.274414V17.9278ZM1.3291 6.72656H3.88043V16.8731H1.3291V6.72656Z" fill="white"/>
<path d="M2.60504 0.0732422C1.16859 0.0732422 0 1.24187 0 2.67829C0 4.1147 1.16859 5.28336 2.60504 5.28336C4.04149 5.28336 5.21012 4.11473 5.21012 2.67829C5.21012 1.24184 4.04146 0.0732422 2.60504 0.0732422ZM1.05469 2.67829C1.05469 1.82343 1.75015 1.12793 2.60504 1.12793C3.45994 1.12793 4.15543 1.82339 4.15543 2.67829C4.15543 3.53318 3.45994 4.22868 2.60504 4.22868C1.75015 4.22868 1.05469 3.53314 1.05469 2.67829Z" fill="white"/>
<path d="M17.9889 9.52069C17.8231 7.13516 15.8332 5.29688 13.3663 5.29688C12.2628 5.29688 11.2212 5.6805 10.4005 6.3612V5.67213H5.93457V17.9281H10.5953V11.225C10.5953 10.4696 11.2099 9.85499 11.9653 9.85499C12.7207 9.85499 13.3353 10.4696 13.3353 11.2253L13.3398 17.9281H18.0002V9.53201L17.9889 9.52069ZM9.54062 16.8734H6.98926V6.72686H9.34575V8.2332L10.1897 8.23805L10.3465 7.99463C11.0092 6.96578 12.1381 6.3516 13.3663 6.3516C15.3293 6.3516 16.901 7.84932 16.9445 9.76123L16.9455 16.8734H14.3938L14.39 11.225C14.39 9.88804 13.3023 8.8003 11.9653 8.8003C10.6284 8.8003 9.54062 9.88804 9.54062 11.225V16.8734Z" fill="white"/>
</svg>
