<svg width="16" height="16" viewBox="0 0 16 16" fill="none" xmlns="http://www.w3.org/2000/svg">
<g clip-path="url(#clip0_906_4161)">
<path d="M15.787 14.7585L10.8281 9.79961C11.6381 8.76902 12.1217 7.4704 12.1217 6.0609C12.1217 2.71888 9.40286 0 6.06085 0C2.71888 0 0 2.71888 0 6.06085C0 9.40281 2.71888 12.1217 6.06085 12.1217C7.4703 12.1217 8.76897 11.6381 9.79956 10.8281L14.7585 15.787C14.9005 15.929 15.0866 16 15.2727 16C15.4589 16 15.645 15.929 15.787 15.787C16.071 15.503 16.071 15.0425 15.787 14.7585ZM1.45455 6.06085C1.45455 3.52092 3.52092 1.45455 6.06085 1.45455C8.60078 1.45455 10.6672 3.52092 10.6672 6.06085C10.6672 8.60078 8.60078 10.6672 6.06085 10.6672C3.52092 10.6672 1.45455 8.60078 1.45455 6.06085Z" fill="#F5FAFE"/>
</g>
<defs>
<clipPath id="clip0_906_4161">
<rect width="16" height="16" fill="white"/>
</clipPath>
</defs>
</svg>
