<svg width="171" height="89" viewBox="0 0 171 89" fill="none" xmlns="http://www.w3.org/2000/svg">
<path fill-rule="evenodd" clip-rule="evenodd" d="M146.248 54.8963C146.166 54.967 146.059 55.005 145.95 55.005H140.134C139.95 55.005 139.771 54.9078 139.695 54.7398C139.608 54.5465 139.659 54.3211 139.817 54.1904L150.43 45.2523C150.666 45.0526 150.667 44.6885 150.431 44.4884L139.833 35.4898C139.704 35.3802 139.629 35.2127 139.659 35.0465C139.698 34.8177 139.895 34.6616 140.116 34.6616H145.713C145.82 34.6616 145.925 34.6997 146.011 34.7699L157.56 44.4854L157.665 44.5747C157.842 44.7261 157.847 44.9989 157.675 45.1567L157.561 45.2612L146.248 54.8963Z" fill="#A8CB3A"/>
<path fill-rule="evenodd" clip-rule="evenodd" d="M27.0324 34.1463H23.3729C22.9341 34.1463 22.5746 34.5049 22.5746 34.9432V46.7469C22.5746 47.0241 22.2475 47.173 22.0377 46.9906L8.49243 35.2231C7.56903 34.4213 6.56537 34.0131 5.50631 34.0131C4.57157 34.0131 3 34.3939 3 36.9411V54.018C3 54.4581 3.35723 54.8146 3.79822 54.8146H7.45562C7.89617 54.8146 8.2534 54.4581 8.2534 54.0185V42.1657C8.2534 41.8879 8.58098 41.7395 8.79078 41.9223L22.4791 53.8679C23.3275 54.6191 24.25 55 25.2214 55C26.1958 55 27.8298 54.6022 27.8298 51.9379V34.9424C27.8298 34.5045 27.4708 34.1463 27.0324 34.1463ZM53.8024 34.1463H49.5487C49.2887 34.1463 49.075 34.3578 49.075 34.619V48.4427C49.075 49.5813 47.6583 50.1589 44.8619 50.1589H39.0768C36.2281 50.1589 34.7817 49.5813 34.7817 48.4427V34.619C34.7817 34.3578 34.5697 34.1463 34.3076 34.1463H30.0015C29.739 34.1463 29.5265 34.3578 29.5265 34.619V48.6551C29.5265 49.6288 29.6919 50.4688 30.0129 51.1531C30.3326 51.8295 30.7679 52.4115 31.3084 52.8829C31.8374 53.3434 32.459 53.7094 33.1517 53.9684C33.8238 54.2222 34.5322 54.4128 35.2532 54.5386C35.9707 54.6679 36.7175 54.7454 37.4729 54.7741C38.2088 54.8011 38.9006 54.8146 39.5487 54.8146H44.256C47.7115 54.8146 50.1707 54.3375 51.7763 53.3577C53.4355 52.3444 54.2774 50.7635 54.2774 48.6551V34.619C54.2774 34.3578 54.0636 34.1463 53.8024 34.1463ZM78.6714 37.7942V35.0738C78.6714 34.5471 78.244 34.1206 77.7162 34.1206H56.9115C56.3837 34.1206 55.9558 34.5476 55.9558 35.0742V37.7942C55.9558 38.3209 56.3837 38.7484 56.9119 38.7484H64.1897C64.4557 38.7484 64.6716 38.9634 64.6716 39.2289V53.8609C64.6716 54.3876 65.0995 54.8146 65.6273 54.8146H68.9707C69.4989 54.8146 69.9272 54.3871 69.9272 53.8605V39.2289C69.9272 38.9634 70.1427 38.7484 70.4088 38.7484H77.7153C78.2435 38.7484 78.6714 38.3214 78.6714 37.7942ZM84.1242 44.4295L86.7892 40.607C86.9109 40.4315 87.1705 40.4307 87.2939 40.6048L89.9908 44.4003C90.1165 44.5766 89.99 44.8208 89.7732 44.8208H84.3292C84.1276 44.8208 84.009 44.5945 84.1242 44.4295ZM89.9886 35.5448C89.272 34.5463 88.3233 34.0392 87.1687 34.0392C86.0298 34.0392 85.0903 34.5558 84.3719 35.5779L71.5385 54.0703C71.4159 54.2461 71.4247 54.4855 71.573 54.6544C71.6693 54.7636 71.8163 54.8146 71.962 54.8146H77.0069C77.1675 54.8146 77.3184 54.7327 77.4056 54.5982L80.6286 49.6501C80.6633 49.5968 80.7108 49.553 80.7668 49.5226C80.8228 49.4923 80.8855 49.4764 80.9492 49.4764C80.9492 49.4764 91.6946 49.4738 93.3211 49.476C93.4502 49.476 93.5693 49.5404 93.6404 49.6479L96.9362 54.6022C97.0234 54.7349 97.1722 54.8146 97.3314 54.8146H102.173C102.347 54.8146 102.509 54.7179 102.59 54.5617C102.673 54.4072 102.663 54.2204 102.565 54.0755L89.9886 35.5448ZM127.846 34.1463H124.086C123.674 34.1463 123.339 34.4801 123.339 34.8919V46.8579C123.339 47.092 123.063 47.2174 122.886 47.0637L109.258 35.2231C108.335 34.4213 107.329 34.0131 106.269 34.0131C105.334 34.0131 103.763 34.3939 103.763 36.9411V54.0685C103.763 54.479 104.1 54.8146 104.511 54.8146H108.27C108.683 54.8146 109.018 54.4803 109.018 54.0681V42.0542C109.018 41.8196 109.295 41.6947 109.472 41.8488L123.244 53.8679C124.091 54.6191 125.015 55 125.986 55C126.96 55 128.594 54.6022 128.594 51.9379V34.8927C128.594 34.4805 128.259 34.1463 127.846 34.1463ZM135.048 34.1463H130.744C130.481 34.1463 130.269 34.3578 130.269 34.619V54.3414C130.269 54.6022 130.481 54.8146 130.744 54.8146H135.048C135.309 54.8146 135.523 54.6022 135.523 54.3414V34.619C135.523 34.3578 135.309 34.1463 135.048 34.1463ZM157.487 42.7746C157.678 42.9369 157.959 42.9369 158.15 42.775L167.704 34.8523C167.836 34.7395 167.913 34.5672 167.883 34.3961C167.842 34.1606 167.639 34 167.411 34H161.64C161.529 34 161.421 34.0392 161.333 34.1114L154.629 39.5649C154.386 39.7686 154.386 40.1408 154.627 40.3458L157.487 42.7746ZM157.455 46.2385C157.646 46.0761 157.927 46.0757 158.118 46.238L167.814 54.1399C167.947 54.2522 168.023 54.425 167.994 54.5961C167.953 54.8311 167.75 54.9922 167.522 54.9922H161.75C161.639 54.9922 161.532 54.953 161.443 54.8807L154.781 49.3454C154.539 49.1417 154.538 48.7696 154.779 48.5645L157.455 46.2385Z" fill="#174489"/>
</svg>
