<svg width="32" height="32" viewBox="0 0 32 32" fill="none" xmlns="http://www.w3.org/2000/svg">
<g clip-path="url(#clip0_88_2543)">
<path d="M21.9931 14.4446C21.9931 14.0177 21.9931 6.5571 21.9931 6.08503C21.9931 3.79049 15.6687 3.5 13.3686 3.5C11.0674 3.5 4.74414 3.79049 4.74414 6.08503V23.3093C4.74414 26.0817 13.6806 26.0426 16.6603 25.7322C17.9224 27.3817 19.9318 28.5 22.2555 28.5C26.1084 28.5 29.2858 25.3924 29.2858 21.4703C29.2858 17.5392 26.0288 14.3046 21.9931 14.4446ZM6.25533 23.209V19.3209C8.54491 20.2572 12.7432 20.3936 15.3332 20.2418C15.0957 21.5845 15.2498 23.0076 15.8111 24.2916C11.2823 24.6424 7.04841 23.9403 6.25533 23.209ZM20.3436 6.08503C18.1061 7.46099 8.75739 7.53614 6.39323 6.08503C8.69292 4.67378 18.0262 4.66024 20.3436 6.08503ZM20.4821 14.6668C18.3758 15.2159 16.6405 16.7294 15.7965 18.6958C11.3115 19.0424 7.05432 18.3476 6.25533 17.6123C6.25533 16.8392 6.25533 14.1974 6.25533 13.419C9.44804 14.7206 17.2993 14.72 20.4821 13.4186V14.6668ZM6.25533 7.69331C9.44137 8.99622 17.2985 8.9945 20.4821 7.69292V11.71C18.7168 13.3331 7.84148 13.1792 6.25533 11.71C6.25533 10.8662 6.25533 8.48314 6.25533 7.69331ZM19.1904 26.0605V26.0601C19.1904 25.6441 19.1904 25.309 19.1904 24.8955C19.1904 23.7145 19.9613 22.7142 21.0138 22.3635C21.7577 22.7326 22.6887 22.7595 23.4972 22.3635C24.556 22.7181 25.3212 23.7194 25.3212 24.8955V26.0601C23.5351 27.278 21.0943 27.3291 19.1904 26.0605ZM22.2555 21.1394C21.5229 21.1394 20.9333 20.5425 20.9333 19.8172C20.9333 19.0872 21.5288 18.4948 22.2555 18.4948C22.9845 18.4948 23.5777 19.0882 23.5777 19.8172C23.5777 20.5435 22.987 21.1394 22.2555 21.1394ZM24.6986 21.2511C24.9464 20.8302 25.0889 20.34 25.0889 19.8172C25.0889 18.2551 23.818 16.9838 22.2555 16.9838C20.7405 16.9838 19.5059 18.1765 19.4261 19.6634C19.3975 20.244 19.537 20.7834 19.8126 21.2517C18.6258 21.9206 17.802 23.1465 17.691 24.5787C15.2759 21.0276 17.6954 16.1518 21.9931 15.9577C26.5085 15.7232 29.3817 20.8315 26.8202 24.5777C26.7124 23.1497 25.8837 21.9196 24.6986 21.2511Z" fill="#236DF8"/>
</g>
<defs>
<clipPath id="clip0_88_2543">
<rect width="25" height="25" fill="white" transform="translate(4.5 3.5)"/>
</clipPath>
</defs>
</svg>
