<svg width="32" height="32" viewBox="0 0 32 32" fill="none" xmlns="http://www.w3.org/2000/svg">
<g clip-path="url(#clip0_88_2516)">
<path d="M25.5672 7.42662C24.3996 6.54577 22.9612 6.20025 21.5472 6.44529C19.011 2.51775 12.9997 2.51873 10.4643 6.44529C7.39104 5.84564 4.29857 8.43205 4.37441 11.5821C4.37437 13.8262 5.82824 15.8231 7.93992 16.5261C7.91372 17.3101 7.97779 17.889 8.50169 18.4814C8.15265 18.8708 7.93992 19.3847 7.93992 19.9475V22.8798C7.93992 24.0925 8.92648 25.079 10.1391 25.079H15.2727V27.0338H11.8028C11.3979 27.0338 11.0697 27.362 11.0697 27.7669C11.0697 28.1717 11.3979 28.5 11.8028 28.5H20.2087C21.1777 28.4651 21.1819 27.0704 20.2087 27.0338H16.7388V25.079H21.8723C23.085 25.079 24.0715 24.0925 24.0715 22.8798V19.9475C24.0715 19.3847 23.8588 18.8708 23.5098 18.4814C24.0345 17.8876 24.0975 17.3098 24.0715 16.5254C28.0211 15.2325 28.9113 9.9131 25.5672 7.42662ZM9.4061 17.0153V14.083C9.4061 13.6788 9.73496 13.35 10.1392 13.35H21.8723C22.2765 13.35 22.6054 13.6788 22.6054 14.083V17.0153C22.6054 17.4195 22.2765 17.7484 21.8723 17.7484H10.1392C9.73496 17.7484 9.4061 17.4195 9.4061 17.0153ZM22.6054 22.8799C22.6054 23.2841 22.2765 23.6129 21.8723 23.6129H10.1392C9.73496 23.6129 9.4061 23.2841 9.4061 22.8799V19.9476C9.4061 19.5434 9.73496 19.2145 10.1392 19.2145H21.8723C22.2765 19.2145 22.6054 19.5434 22.6054 19.9476V22.8799ZM24.0715 14.9445V14.083C24.0715 12.8703 23.085 11.8838 21.8723 11.8838H10.1392C8.92653 11.8838 7.93996 12.8703 7.93996 14.083V14.9452C3.90857 12.8078 6.17654 6.86719 10.6148 7.9817C10.9432 8.07554 11.2929 7.93005 11.4579 7.63105C13.3665 4.07513 18.6454 4.07513 20.5537 7.63115C20.7188 7.93009 21.0684 8.07549 21.3968 7.98175C25.8333 6.86895 28.1024 12.8 24.0715 14.9445Z" fill="#236DF8"/>
<path d="M14.5415 14.8164H11.6093C10.6387 14.852 10.6375 16.2465 11.6093 16.2825H14.5415C14.9464 16.2825 15.2746 15.9543 15.2746 15.5495C15.2746 15.1446 14.9464 14.8164 14.5415 14.8164Z" fill="#236DF8"/>
<path d="M17.4743 14.8164C17.0706 14.8164 16.7412 15.1457 16.7412 15.5495C16.7787 16.5205 18.17 16.5203 18.2073 15.5495C18.2073 15.1457 17.8781 14.8164 17.4743 14.8164Z" fill="#236DF8"/>
<path d="M20.4059 14.8164C20.0022 14.8164 19.6729 15.1457 19.6729 15.5495C19.7103 16.5205 21.1016 16.5203 21.139 15.5495C21.139 15.1457 20.8097 14.8164 20.4059 14.8164Z" fill="#236DF8"/>
<path d="M14.5415 20.6807H11.6093C10.6387 20.7162 10.6375 22.1107 11.6093 22.1468H14.5415C14.9464 22.1468 15.2746 21.8186 15.2746 21.4137C15.2746 21.0089 14.9464 20.6807 14.5415 20.6807Z" fill="#236DF8"/>
<path d="M17.4743 20.6807C17.0706 20.6807 16.7412 21.01 16.7412 21.4137C16.7787 22.3848 18.17 22.3845 18.2073 21.4137C18.2073 21.01 17.8781 20.6807 17.4743 20.6807Z" fill="#236DF8"/>
<path d="M20.4059 20.6807C20.0022 20.6807 19.6729 21.01 19.6729 21.4137C19.7103 22.3848 21.1016 22.3845 21.139 21.4137C21.139 21.01 20.8097 20.6807 20.4059 20.6807Z" fill="#236DF8"/>
</g>
<defs>
<clipPath id="clip0_88_2516">
<rect width="25" height="25" fill="white" transform="translate(3.5 3.5)"/>
</clipPath>
</defs>
</svg>
