<svg width="32" height="32" viewBox="0 0 32 32" fill="none" xmlns="http://www.w3.org/2000/svg">
<g clip-path="url(#clip0_88_2491)">
<path d="M25.8145 3.5H6.18555C4.70474 3.5 3.5 4.70474 3.5 6.18555V21.8105C3.5 23.2914 4.70474 24.4961 6.18555 24.4961H12.6261L12.0068 27.0352H10.6289C9.65815 27.0712 9.65889 28.4643 10.6289 28.5H21.3711C22.3418 28.464 22.3411 27.0709 21.3711 27.0352H19.9932L19.3739 24.4961H25.8145C27.2953 24.4961 28.5 23.2914 28.5 21.8105V6.18555C28.5 4.70474 27.2953 3.5 25.8145 3.5ZM13.5146 27.0352L14.1338 24.4961H17.8662L18.4854 27.0352H13.5146ZM27.0352 21.8105C27.0352 22.4836 26.4875 23.0312 25.8145 23.0312H6.18555C5.51245 23.0312 4.96484 22.4836 4.96484 21.8105V21.5664H27.0352V21.8105ZM27.0352 20.1016H24.0566V17.6602H24.7891C25.7598 17.6241 25.7591 16.231 24.7891 16.1953H24.0566V13.0215C24.0206 12.0507 22.6275 12.0515 22.5918 13.0215V16.1953H21.8594C20.8886 16.2313 20.8894 17.6245 21.8594 17.6602H22.5918V20.1016H19.1738V15.2188H19.9062C20.877 15.1827 20.8763 13.7896 19.9062 13.7539H19.1738V13.0215C19.1378 12.0507 17.7447 12.0515 17.709 13.0215V13.7539H16.9766C16.0058 13.7899 16.0065 15.1831 16.9766 15.2188H17.709V20.1016H14.291V18.6367H15.0234C15.9942 18.6007 15.9935 17.2076 15.0234 17.1719H14.291V13.0215C14.255 12.0507 12.8619 12.0515 12.8262 13.0215V17.1719H12.0938C11.123 17.2079 11.1237 18.601 12.0938 18.6367H12.8262V20.1016H9.4082V16.1953H10.1406C11.1114 16.1593 11.1106 14.7662 10.1406 14.7305H9.4082V13.0215C9.37217 12.0507 7.97905 12.0515 7.94336 13.0215V14.7305H7.21094C6.24019 14.7665 6.24092 16.1596 7.21094 16.1953H7.94336V20.1016H4.96484V10.8242H14.5352C14.7294 10.8242 14.9157 10.747 15.053 10.6097L16.7917 8.87109H27.0352V20.1016ZM27.0352 7.40625H16.4883C16.294 7.40625 16.1078 7.48345 15.9704 7.6208L14.2318 9.35938H4.96484V6.18555C4.96484 5.51245 5.51245 4.96484 6.18555 4.96484H25.8145C26.4875 4.96484 27.0352 5.51245 27.0352 6.18555V7.40625Z" fill="#236DF8"/>
<path d="M7.21094 6.42969C6.80645 6.42969 6.47852 6.75762 6.47852 7.16211C6.5144 8.13262 7.90762 8.13232 7.94336 7.16211C7.94336 6.75762 7.61543 6.42969 7.21094 6.42969Z" fill="#236DF8"/>
<path d="M10.1406 6.42969C9.73613 6.42969 9.4082 6.75762 9.4082 7.16211C9.44409 8.13262 10.8373 8.13232 10.873 7.16211C10.873 6.75762 10.5451 6.42969 10.1406 6.42969Z" fill="#236DF8"/>
<path d="M13.0703 6.42969C12.6658 6.42969 12.3379 6.75762 12.3379 7.16211C12.3738 8.13262 13.767 8.13232 13.8027 7.16211C13.8027 6.75762 13.4748 6.42969 13.0703 6.42969Z" fill="#236DF8"/>
</g>
<defs>
<clipPath id="clip0_88_2491">
<rect width="25" height="25" fill="white" transform="translate(3.5 3.5)"/>
</clipPath>
</defs>
</svg>
