<svg width="32" height="32" viewBox="0 0 32 32" fill="none" xmlns="http://www.w3.org/2000/svg">
<g clip-path="url(#clip0_88_2554)">
<path d="M19.0117 7.89453C19.4162 7.89453 19.7441 7.5666 19.7441 7.16211C19.7441 6.75762 19.4162 6.42969 19.0117 6.42969H15.0078C14.6033 6.42969 14.2754 6.75762 14.2754 7.16211C14.2754 7.5666 14.6033 7.89453 15.0078 7.89453H19.0117Z" fill="#236DF8"/>
<path d="M21.9551 16.2031H24.5441C24.9486 16.2031 25.2766 15.8752 25.2766 15.4707C25.2766 15.0662 24.9486 14.7383 24.5441 14.7383H21.9551C21.5506 14.7383 21.2227 15.0662 21.2227 15.4707C21.2227 15.8752 21.5506 16.2031 21.9551 16.2031Z" fill="#236DF8"/>
<path d="M29.5 14.4941C29.5 13.1487 28.5055 12.0314 27.213 11.8383L27.2152 6.18555C27.2152 4.70474 26.0105 3.5 24.5297 3.5H9.49064C8.00983 3.5 6.80509 4.70474 6.80509 6.18555V17.271L4.83961 19.9112C4.45138 20.4328 4.39147 21.1177 4.68331 21.6987C4.97516 22.2797 5.56031 22.6406 6.21046 22.6406H17V25.8145C17 27.2953 18.2047 28.5 19.6856 28.5H26.8145C28.2953 28.5 29.5 27.2953 29.5 25.8145V14.4941ZM26.8145 27.0352H19.6856C19.0125 27.0352 18.4649 26.4875 18.4649 25.8145V25.5703H28.0352V25.8145C28.0352 26.4875 27.4876 27.0352 26.8145 27.0352ZM18.4649 14.4941C18.4649 13.821 19.0125 13.2734 19.6856 13.2734H26.8145C27.4876 13.2734 28.0352 13.821 28.0352 14.4941V24.1055H18.4649V14.4941ZM8.26993 6.18555C8.26993 5.51245 8.81754 4.96484 9.49064 4.96484H24.5297C25.2028 4.96484 25.7504 5.51245 25.7504 6.18555L25.7482 11.8086H19.6856C18.2047 11.8086 17 13.0133 17 14.4941V16.7812H8.26993V6.18555ZM6.21046 21.1758C6.07941 21.1758 6.01754 21.0915 5.9923 21.0412C5.967 20.991 5.93634 20.8909 6.01461 20.7858L7.90533 18.2461H17V21.1758H6.21046Z" fill="#236DF8"/>
</g>
<defs>
<clipPath id="clip0_88_2554">
<rect width="25" height="25" fill="white" transform="translate(4.5 3.5)"/>
</clipPath>
</defs>
</svg>
