<svg width="32" height="32" viewBox="0 0 32 32" fill="none" xmlns="http://www.w3.org/2000/svg">
<path fill-rule="evenodd" clip-rule="evenodd" d="M28.7559 13.6882L25.5556 10.4876V5.3329C25.5556 4.87262 25.1825 4.49957 24.7222 4.49957H21.3889C20.9286 4.49957 20.5556 4.87262 20.5556 5.3329V5.48763L17.0892 2.02148C16.7639 1.69596 16.2361 1.69596 15.9106 2.02148L7.46875 10.4635C7.46853 10.4635 7.46853 10.4635 7.46832 10.4638L4.24414 13.6882C3.91862 14.0135 3.91862 14.5412 4.24414 14.8665C4.56944 15.1921 5.09722 15.1921 5.42253 14.8665L7.22461 13.0647V28.5551H5.66667C5.20638 28.5551 4.83333 28.9282 4.83333 29.3885C4.83333 29.8488 5.20638 30.2218 5.66667 30.2218H27.3333C27.7934 30.2218 28.1667 29.8488 28.1667 29.3885C28.1667 28.9282 27.7934 28.5551 27.3333 28.5551H25.5556V12.8446L27.5775 14.8665C27.74 15.0293 27.9533 15.1107 28.1667 15.1107C28.38 15.1107 28.5931 15.0293 28.7559 14.8665C29.0814 14.5412 29.0814 14.0135 28.7559 13.6882ZM22.2222 6.16624H23.8889V8.82097L22.2222 7.1543V6.16624ZM23.8889 12.8607V28.5551H8.89106V11.398L16.5 3.78906L20.7995 8.08855C20.7995 8.08876 20.7997 8.08876 20.7997 8.08898L23.8889 11.178V12.8607Z" fill="#236DF8"/>
<path fill-rule="evenodd" clip-rule="evenodd" d="M20.0798 18.7089L20.68 18.1086C21.0055 17.7833 21.0055 17.2555 20.68 16.9302C20.3547 16.6047 19.8269 16.6047 19.5016 16.9302L18.8838 17.5479C18.4363 17.2603 17.9307 17.0563 17.3886 16.9574V16.055C17.3886 15.5947 17.0153 15.2217 16.5552 15.2217C16.0949 15.2217 15.7219 15.5947 15.7219 16.055V16.9912C15.2021 17.1084 14.7189 17.3222 14.2924 17.6138L13.6088 16.9302C13.2833 16.6047 12.7558 16.6047 12.4302 16.9302C12.1049 17.2555 12.1047 17.7831 12.4302 18.1086L13.1314 18.8098C12.8584 19.2345 12.6598 19.7108 12.5557 20.2217H11.555C11.0947 20.2217 10.7217 20.5947 10.7217 21.055C10.7217 21.5153 11.0947 21.8884 11.555 21.8884H12.5557C12.6598 22.3992 12.8584 22.8758 13.1314 23.3002L12.4302 24.0014C12.1047 24.3269 12.1047 24.8545 12.4302 25.18C12.593 25.3428 12.8061 25.4242 13.0194 25.4242C13.2327 25.4242 13.4461 25.3428 13.6086 25.18L14.2924 24.4962C14.7189 24.7879 15.2021 25.0016 15.7217 25.1188V26.0552C15.7217 26.5155 16.0947 26.8886 16.555 26.8886C17.0153 26.8886 17.3883 26.5155 17.3883 26.0552V25.1527C17.9304 25.0537 18.4361 24.8497 18.8836 24.5622L19.5014 25.18C19.6642 25.3428 19.8773 25.4242 20.0906 25.4242C20.3037 25.4242 20.517 25.3428 20.6798 25.18C21.0051 24.8545 21.0053 24.3269 20.6798 24.0014L20.0795 23.4012C20.3868 22.9517 20.6086 22.4398 20.721 21.8884H21.555C22.0153 21.8884 22.3883 21.5153 22.3883 21.055C22.3883 20.5947 22.0153 20.2217 21.555 20.2217H20.7212C20.6088 19.6703 20.387 19.1583 20.0798 18.7089ZM16.6386 23.555C15.2601 23.555 14.1386 22.4335 14.1386 21.055C14.1386 19.6765 15.2601 18.555 16.6386 18.555C18.017 18.555 19.1386 19.6765 19.1386 21.055C19.1386 22.4335 18.017 23.555 16.6386 23.555Z" fill="#236DF8"/>
<path fill-rule="evenodd" clip-rule="evenodd" d="M16.639 20.2217C16.18 20.2217 15.8057 20.596 15.8057 21.055C15.8057 21.514 16.18 21.8883 16.639 21.8883C17.098 21.8883 17.4723 21.5138 17.4723 21.055C17.4723 20.596 17.098 20.2217 16.639 20.2217Z" fill="#236DF8"/>
</svg>
