<svg width="32" height="32" viewBox="0 0 32 32" fill="none" xmlns="http://www.w3.org/2000/svg">
<g clip-path="url(#clip0_88_2567)">
<path d="M27.3027 19.6621H26.5703V18.9297C26.5703 17.7181 25.5846 16.7324 24.373 16.7324H17.7324V15.2676C18.4207 15.2676 19.2437 15.2676 19.9297 15.2676C20.3342 15.2676 20.6621 14.9396 20.6621 14.5352C20.6621 14.1307 20.3342 13.8027 19.9297 13.8027H19.1973V12.3379H21.3945C22.6061 12.3379 23.5918 11.3522 23.5918 10.1406V5.69727C23.5918 4.48569 22.6061 3.5 21.3945 3.5H12.6055C11.3939 3.5 10.4082 4.48569 10.4082 5.69727V10.1406C10.4082 11.3522 11.3939 12.3379 12.6055 12.3379H14.8027V13.8027H14.0703C13.6658 13.8027 13.3379 14.1307 13.3379 14.5352C13.3379 14.9396 13.6658 15.2676 14.0703 15.2676C14.7563 15.2676 15.5793 15.2676 16.2676 15.2676V16.7324H9.62695C8.41538 16.7324 7.42969 17.7181 7.42969 18.9297V19.6621H6.69727C5.48569 19.6621 4.5 20.6478 4.5 21.8594V23.3242C4.5 24.5358 5.48569 25.5215 6.69727 25.5215H7.42969V27.0352H6.69727C6.29277 27.0352 5.96484 27.3631 5.96484 27.7676C5.96484 28.1721 6.29277 28.5 6.69727 28.5H9.62695C10.0314 28.5 10.3594 28.1721 10.3594 27.7676C10.3594 27.3631 10.0314 27.0352 9.62695 27.0352H8.89453V25.5215H9.62695C10.8385 25.5215 11.8242 24.5358 11.8242 23.3242V21.8594C11.8242 20.6478 10.8385 19.6621 9.62695 19.6621H8.89453V18.9297C8.89453 18.5258 9.2231 18.1973 9.62695 18.1973H16.2676V19.6621H15.5352C14.3236 19.6621 13.3379 20.6478 13.3379 21.8594V23.3242C13.3379 24.5358 14.3236 25.5215 15.5352 25.5215H16.2676V27.0352H15.5352C15.1307 27.0352 14.8027 27.3631 14.8027 27.7676C14.8027 28.1721 15.1307 28.5 15.5352 28.5H18.4648C18.8693 28.5 19.1973 28.1721 19.1973 27.7676C19.1973 27.3631 18.8693 27.0352 18.4648 27.0352H17.7324V25.5215H18.4648C19.6764 25.5215 20.6621 24.5358 20.6621 23.3242V21.8594C20.6621 20.6478 19.6764 19.6621 18.4648 19.6621H17.7324V18.1973H24.373C24.7769 18.1973 25.1055 18.5258 25.1055 18.9297V19.6621H24.373C23.1615 19.6621 22.1758 20.6478 22.1758 21.8594V23.3242C22.1758 24.5358 23.1615 25.5215 24.373 25.5215H25.1055V27.0352H24.373C23.9686 27.0352 23.6406 27.3631 23.6406 27.7676C23.6406 28.1721 23.9686 28.5 24.373 28.5H27.3027C27.7072 28.5 28.0352 28.1721 28.0352 27.7676C28.0352 27.3631 27.7072 27.0352 27.3027 27.0352H26.5703V25.5215H27.3027C28.5143 25.5215 29.5 24.5358 29.5 23.3242V21.8594C29.5 20.6478 28.5143 19.6621 27.3027 19.6621ZM9.62695 21.127C10.0308 21.127 10.3594 21.4555 10.3594 21.8594V23.3242C10.3594 23.7281 10.0308 24.0566 9.62695 24.0566H6.69727C6.29341 24.0566 5.96484 23.7281 5.96484 23.3242V21.8594C5.96484 21.4555 6.29341 21.127 6.69727 21.127H9.62695ZM12.6055 10.873C12.2016 10.873 11.873 10.5445 11.873 10.1406V5.69727C11.873 5.29341 12.2016 4.96484 12.6055 4.96484H21.3945C21.7984 4.96484 22.127 5.29341 22.127 5.69727V10.1406C22.127 10.5445 21.7984 10.873 21.3945 10.873C19.6348 10.873 14.3589 10.873 12.6055 10.873ZM18.4648 21.127C18.8687 21.127 19.1973 21.4555 19.1973 21.8594V23.3242C19.1973 23.7281 18.8687 24.0566 18.4648 24.0566H15.5352C15.1313 24.0566 14.8027 23.7281 14.8027 23.3242V21.8594C14.8027 21.4555 15.1313 21.127 15.5352 21.127H18.4648ZM16.2676 13.8027V12.3379H17.7324V13.8027H16.2676ZM28.0352 23.3242C28.0352 23.7281 27.7066 24.0566 27.3027 24.0566H24.373C23.9692 24.0566 23.6406 23.7281 23.6406 23.3242V21.8594C23.6406 21.4555 23.9692 21.127 24.373 21.127H27.3027C27.7066 21.127 28.0352 21.4555 28.0352 21.8594V23.3242Z" fill="#236DF8"/>
</g>
<defs>
<clipPath id="clip0_88_2567">
<rect width="25" height="25" fill="white" transform="translate(4.5 3.5)"/>
</clipPath>
</defs>
</svg>
