<svg width="26" height="26" viewBox="0 0 26 26" fill="none" xmlns="http://www.w3.org/2000/svg">
<g clip-path="url(#clip0_88_2214)">
<path d="M24.2365 13.3359C24.1322 13.1225 24.1322 12.8777 24.2365 12.6644L25.2032 10.6868C25.7415 9.58562 25.315 8.27318 24.2324 7.69874L22.2879 6.66701C22.0781 6.55574 21.9343 6.35769 21.8932 6.12386L21.5129 3.95565C21.3011 2.74845 20.1845 1.93724 18.9711 2.10891L16.7916 2.41722C16.5563 2.45043 16.3237 2.37479 16.1531 2.20971L14.571 0.67922C13.6901 -0.172996 12.31 -0.173047 11.4292 0.67922L9.84705 2.20986C9.67634 2.375 9.44372 2.45048 9.20852 2.41737L7.02898 2.10906C5.81525 1.93729 4.69897 2.74861 4.48721 3.9558L4.10692 6.12391C4.06586 6.35779 3.92204 6.55579 3.7123 6.66711L1.7678 7.69884C0.685143 8.27323 0.25868 9.58578 0.796922 10.6869L1.7636 12.6645C1.86789 12.8779 1.86789 13.1226 1.7636 13.336L0.796871 15.3136C0.25863 16.4147 0.685092 17.7271 1.76775 18.3016L3.71225 19.3333C3.92204 19.4446 4.06586 19.6426 4.10692 19.8765L4.48721 22.0447C4.67999 23.1436 5.62232 23.9143 6.70533 23.9142C6.812 23.9142 6.92023 23.9067 7.02903 23.8914L9.20857 23.5831C9.44362 23.5497 9.67639 23.6255 9.8471 23.7906L11.4292 25.321C11.8697 25.7472 12.4348 25.9602 13.0001 25.9602C13.5652 25.9601 14.1306 25.7471 14.5709 25.321L16.1531 23.7906C16.3238 23.6255 16.5564 23.55 16.7916 23.5831L18.9711 23.8914C20.185 24.0631 21.3011 23.2518 21.5129 22.0446L21.8932 19.8765C21.9343 19.6426 22.0781 19.4446 22.2879 19.3333L24.2324 18.3016C25.315 17.7272 25.7415 16.4146 25.2032 15.3135L24.2365 13.3359ZM23.5317 16.9809L21.5872 18.0127C20.9672 18.3417 20.542 18.9268 20.4208 19.6181L20.0405 21.7863C19.9689 22.1947 19.5912 22.4691 19.1805 22.4111L17.001 22.1028C16.3059 22.0043 15.6181 22.228 15.1136 22.716L13.5315 24.2464C13.2335 24.5347 12.7666 24.5347 12.4685 24.2464L10.8865 22.716C10.4601 22.3035 9.90274 22.08 9.32086 22.08C9.21424 22.08 9.10676 22.0875 8.99914 22.1027L6.81959 22.411C6.40923 22.4691 6.03131 22.1947 5.95963 21.7862L5.57929 19.618C5.45799 18.9267 5.03284 18.3415 4.41284 18.0126L2.46835 16.9809C2.10203 16.7865 1.95775 16.3425 2.13984 15.97L3.10657 13.9923C3.41478 13.3617 3.41478 12.6385 3.10657 12.0079L2.13984 10.0303C1.95775 9.65771 2.10203 9.21369 2.46835 9.01934L4.41284 7.98761C5.03279 7.6586 5.45799 7.07348 5.57924 6.38214L5.95953 4.21399C6.03121 3.80555 6.40877 3.53116 6.81949 3.58918L8.99903 3.89748C9.69386 3.99585 10.3819 3.77224 10.8864 3.28427L12.4685 1.75378C12.7665 1.46552 13.2334 1.46552 13.5315 1.75378L15.1135 3.28427C15.618 3.77229 16.306 3.99585 17.0009 3.89748L19.1804 3.58918C19.5908 3.53111 19.9688 3.80555 20.0404 4.21399L20.4207 6.38219C20.542 7.07353 20.9671 7.6587 21.5871 7.98761L23.5316 9.01934C23.8979 9.21369 24.0422 9.65771 23.8601 10.0303L22.8934 12.0079C22.5852 12.6384 22.5852 13.3617 22.8934 13.9923L23.8601 15.9699C24.0423 16.3425 23.898 16.7866 23.5317 16.9809Z" fill="#236DF8"/>
<path d="M18.4616 7.53729C18.1697 7.24538 17.6964 7.24538 17.4045 7.53729L7.53826 17.4035C7.24636 17.6954 7.24636 18.1687 7.53826 18.4606C7.68421 18.6066 7.87552 18.6796 8.06678 18.6796C8.25804 18.6796 8.44941 18.6066 8.59531 18.4606L18.4615 8.59443C18.7535 8.30248 18.7535 7.82924 18.4616 7.53729Z" fill="#236DF8"/>
<path d="M10.0103 6.27344C8.49905 6.27344 7.26953 7.50296 7.26953 9.01421C7.26953 10.5255 8.49905 11.755 10.0103 11.755C11.5216 11.755 12.7511 10.5255 12.7511 9.01421C12.7511 7.50296 11.5216 6.27344 10.0103 6.27344ZM10.0103 10.26C9.32337 10.26 8.76453 9.70113 8.76453 9.01416C8.76453 8.32723 9.32337 7.76838 10.0103 7.76838C10.6972 7.76838 11.2561 8.32723 11.2561 9.01416C11.2561 9.70113 10.6972 10.26 10.0103 10.26Z" fill="#236DF8"/>
<path d="M15.9908 14.2451C14.4795 14.2451 13.25 15.4746 13.25 16.9859C13.25 18.4971 14.4795 19.7267 15.9908 19.7267C17.502 19.7267 18.7315 18.4971 18.7315 16.9859C18.7315 15.4746 17.502 14.2451 15.9908 14.2451ZM15.9908 18.2317C15.3038 18.2317 14.7449 17.6728 14.7449 16.9859C14.7449 16.299 15.3038 15.7401 15.9908 15.7401C16.6777 15.7401 17.2365 16.299 17.2365 16.9859C17.2365 17.6728 16.6777 18.2317 15.9908 18.2317Z" fill="#236DF8"/>
</g>
<defs>
<clipPath id="clip0_88_2214">
<rect width="25.92" height="25.92" fill="white" transform="translate(0.0400391 0.0400391)"/>
</clipPath>
</defs>
</svg>
