<svg width="26" height="26" viewBox="0 0 26 26" fill="none" xmlns="http://www.w3.org/2000/svg">
<path d="M23.1615 6.91885C23.4082 6.88362 23.6219 6.72964 23.7333 6.50677L25.8808 2.21165C26.027 1.91938 25.9697 1.56632 25.7386 1.33524L24.6648 0.261475C24.4337 0.0303519 24.0805 -0.0268975 23.7884 0.119238L19.4933 2.26677C19.2705 2.37818 19.1164 2.59184 19.0812 2.83851L18.5801 6.34621L14.0713 10.8549L10.3347 7.11834C11.0158 5.20203 10.5499 3.03845 9.10016 1.58874C7.52138 0.00995265 5.09625 -0.402081 3.06564 0.563465C2.59195 0.788716 2.48439 1.41562 2.85482 1.78605L5.65649 4.58773V5.66149H4.58273L1.781 2.85977C1.41083 2.48965 0.783765 2.59665 0.558412 3.07064C-0.407084 5.1013 0.00495004 7.52638 1.58379 9.10516C3.0336 10.5549 5.19713 11.0208 7.11339 10.3397L8.70418 11.9305C8.69188 11.9413 8.67937 11.9518 8.66763 11.9635L1.15115 19.4801C-0.32903 20.9602 -0.32903 23.3687 1.15115 24.8489C2.63129 26.3291 5.03981 26.3292 6.52004 24.8489L14.0365 17.3325C14.0482 17.3207 14.0587 17.3082 14.0695 17.2959L15.6603 18.8867C14.9792 20.803 15.4451 22.9665 16.8948 24.4163C18.4812 26.0026 20.9081 26.4027 22.9294 25.4416C23.4031 25.2163 23.5107 24.5894 23.1402 24.219L20.3386 21.4173V20.3436H21.4123L24.2141 23.1453C24.5843 23.5155 25.2113 23.4084 25.4366 22.9344C26.4021 20.9037 25.9901 18.4787 24.4113 16.8999C22.9615 15.4501 20.7978 14.9842 18.8817 15.6654L15.1451 11.9288L19.6538 7.41998L23.1615 6.91885ZM12.9628 16.2587L5.44628 23.7751C4.73159 24.4898 3.68233 24.6175 2.85315 24.2206L7.59376 19.48C7.89028 19.1835 7.89028 18.7028 7.59376 18.4062C7.29734 18.1097 6.81657 18.1097 6.51999 18.4062L1.78034 23.1459C1.37706 22.2993 1.52497 21.2537 2.22487 20.5538L9.7414 13.0374C9.75314 13.0256 9.76362 13.0131 9.77445 13.0008L12.9993 16.2256C12.987 16.2365 12.9745 16.247 12.9628 16.2587ZM19.0289 17.246C20.4806 16.5557 22.212 16.8482 23.3375 17.9737C24.188 18.8241 24.5629 20.0207 24.3974 21.181L22.2638 19.0474C22.1214 18.905 21.9283 18.825 21.7269 18.825H19.5794C19.1601 18.825 18.8201 19.165 18.8201 19.5843V21.7319C18.8201 21.9332 18.9001 22.1263 19.0425 22.2687L21.1761 24.4023C20.0155 24.5678 18.8191 24.193 17.9687 23.3425C16.8433 22.217 16.5508 20.4855 17.241 19.0338C17.379 18.7436 17.3194 18.398 17.0922 18.1709L7.82919 8.90795C7.60161 8.68032 7.25588 8.6214 6.96624 8.75914C5.51451 9.44932 3.78301 9.15695 2.65756 8.03145C1.80707 7.18096 1.43224 5.98444 1.59771 4.82406L3.73132 6.95768C3.87371 7.10007 4.06682 7.1801 4.26818 7.1801H6.41572C6.83504 7.1801 7.17499 6.84014 7.17499 6.42082V4.27323C7.17499 4.07187 7.09502 3.87877 6.95258 3.73638L4.81901 1.60276C5.97954 1.43724 7.17591 1.81207 8.0264 2.66256C9.15184 3.78806 9.44432 5.51956 8.75409 6.9713C8.6161 7.26144 8.67573 7.60706 8.9029 7.83419C9.27925 8.21058 17.7377 16.669 18.1658 17.0971C18.393 17.3243 18.7386 17.3839 19.0289 17.246ZM20.5283 3.44714L23.978 1.72222L24.2779 2.02208L22.553 5.47188L20.1908 5.80935L20.5283 3.44714Z" fill="#236DF8"/>
</svg>
