<svg width="26" height="26" viewBox="0 0 26 26" fill="none" xmlns="http://www.w3.org/2000/svg">
<path d="M25.0374 5.87667L13.2468 0.540857C13.0541 0.453626 12.8331 0.45387 12.6407 0.541346L0.898985 5.87716C0.63695 5.99624 0.46875 6.25744 0.46875 6.54526V24.7906C0.46875 25.1959 0.797321 25.5245 1.20261 25.5245H24.7349C25.1402 25.5245 25.4688 25.1959 25.4688 24.7906V6.54526C25.4687 6.25705 25.3 5.99545 25.0374 5.87667ZM17.592 21.1213C17.9973 21.1213 18.3258 20.7928 18.3258 20.3875V19.6536H19.7936V24.0568H15.3904V19.6536H16.8581V20.3875C16.8581 20.7928 17.1867 21.1213 17.592 21.1213ZM19.7936 18.1859H14.6566C14.2513 18.1859 13.9227 18.5145 13.9227 18.9198V24.0568H11.9658C11.9658 22.8914 11.9658 14.1111 11.9658 13.0489C11.9658 12.6436 11.6372 12.3151 11.2319 12.3151H6.09492V10.8474H19.7936V18.1859ZM6.09492 18.1859V13.7828H7.56263V14.5166C7.56263 14.9219 7.89121 15.2505 8.29649 15.2505C8.70177 15.2505 9.03034 14.9219 9.03034 14.5166V13.7828H10.4981V18.1859H6.09492ZM6.09492 19.6536H7.56263V20.3875C7.56263 20.7928 7.89121 21.1213 8.29649 21.1213C8.70177 21.1213 9.03034 20.7928 9.03034 20.3875V19.6536H10.4981V24.0568H6.09492V19.6536ZM24.001 24.0568H21.2613V10.1135C21.2613 9.70822 20.9327 9.37965 20.5274 9.37965H5.36107C4.95579 9.37965 4.62721 9.70822 4.62721 10.1135V24.0568H1.93641V7.01786L12.9449 2.01522L24.001 7.01869V24.0568Z" fill="#236DF8"/>
<path d="M10.0088 6.19968C10.0088 6.60496 10.3374 6.93353 10.7426 6.93353H15.1458C15.5511 6.93353 15.8796 6.60496 15.8796 6.19968C15.8796 5.79439 15.5511 5.46582 15.1458 5.46582H10.7426C10.3374 5.46582 10.0088 5.79439 10.0088 6.19968Z" fill="#236DF8"/>
</svg>
