<svg width="26" height="26" viewBox="0 0 26 26" fill="none" xmlns="http://www.w3.org/2000/svg">
<path d="M22.0385 10.7132L24.854 7.89654C25.2704 7.47992 25.4998 6.92615 25.4998 6.33714V4.61558C25.4998 4.02632 25.2703 3.4724 24.8536 3.05579L22.5489 0.751152C22.3033 0.505566 21.9372 0.432625 21.6164 0.565663C21.2954 0.698603 21.088 1.00899 21.088 1.35639V4.65387L20.0482 5.69371H19.1867L18.1469 4.65387V1.35634C18.1469 1.00894 17.9395 0.698554 17.6185 0.565614C17.2977 0.432625 16.9315 0.505419 16.686 0.751103L14.3813 3.05574C13.9646 3.47236 13.7351 4.02632 13.7351 4.61558V6.33714C13.7351 6.92615 13.9645 7.47987 14.3809 7.89654L17.1963 10.7131C17.3352 10.852 17.4116 11.0366 17.4116 11.2329V15.2059C17.0587 15.2059 16.7092 15.2416 16.367 15.3123C15.1554 13.4186 13.0704 12.2648 10.794 12.2648C7.96077 12.2648 5.468 14.0588 4.54762 16.6914C2.28474 16.8772 0.5 18.7783 0.5 21.0882C0.5 23.5209 2.4791 25.5 4.91173 25.5H21.8234C23.8506 25.5 25.4998 23.8507 25.4998 21.8235C25.4998 19.8782 23.9809 18.2808 22.0667 18.155C21.993 17.9989 21.9114 17.8478 21.8234 17.7015V11.2329C21.8233 11.0367 21.8997 10.8521 22.0385 10.7132ZM18.2363 9.67353L15.4209 6.85699C15.2821 6.71807 15.2056 6.53346 15.2056 6.33719V4.61563C15.2056 4.41916 15.2821 4.23456 15.421 4.09568L16.6762 2.8405V5.26298L18.5775 7.16429H20.6572L22.5585 5.26298V2.84045L23.8137 4.09564C23.9526 4.23456 24.0291 4.41921 24.0291 4.61558V6.33714C24.0291 6.53346 23.9526 6.71807 23.8138 6.85689L20.9984 9.67353C20.582 10.0901 20.3526 10.644 20.3526 11.233V16.1309C19.9058 15.8197 19.4098 15.5788 18.8821 15.4211V11.233C18.8821 10.644 18.6528 10.0902 18.2363 9.67353ZM24.0291 21.8236C24.0291 23.0399 23.0396 24.0294 21.8233 24.0294H4.91163C3.28988 24.0294 1.97048 22.71 1.97048 21.0883C1.97048 19.4248 3.36194 18.0685 5.06006 18.1509L5.65903 18.18L5.808 17.5992C6.39152 15.3243 8.4418 13.7354 10.7939 13.7354C12.72 13.7354 14.47 14.7976 15.3613 16.5075L15.6512 17.0639L16.2462 16.8651C18.1394 16.2327 20.2153 17.2345 20.8818 19.1368L21.07 19.6736C21.5949 19.6315 21.6877 19.6177 21.8233 19.6177C23.0396 19.6177 24.0291 20.6073 24.0291 21.8236Z" fill="#236DF8"/>
</svg>
