<svg width="26" height="26" viewBox="0 0 26 26" fill="none" xmlns="http://www.w3.org/2000/svg">
<g clip-path="url(#clip0_88_2277)">
<path d="M5.0181 7.02629C5.0181 6.46704 5.47135 6.01379 6.0306 6.01379H15.9869C16.5462 6.01379 16.9994 6.46704 16.9994 7.02629C16.9994 7.58554 16.5462 8.03879 15.9869 8.03879H6.0306C5.47155 8.03879 5.0181 7.58554 5.0181 7.02629ZM6.0306 14.0125H15.9869C16.5462 14.0125 16.9994 13.5593 16.9994 13C16.9994 12.4408 16.5462 11.9875 15.9869 11.9875H6.0306C5.47135 11.9875 5.0181 12.4408 5.0181 13C5.0181 13.5593 5.47155 14.0125 6.0306 14.0125ZM12.0045 17.9613H6.0306C5.47135 17.9613 5.0181 18.4145 5.0181 18.9738C5.0181 19.533 5.47135 19.9863 6.0306 19.9863H12.0045C12.5636 19.9863 13.017 19.533 13.017 18.9738C13.017 18.4145 12.5638 17.9613 12.0045 17.9613ZM25.96 18.9738V24.9475C25.96 25.5068 25.5068 25.96 24.9475 25.96C24.3139 25.96 3.65142 25.96 3.04353 25.96C1.38734 25.96 0.0400391 24.6127 0.0400391 22.9566V3.04353C0.0400391 1.38734 1.38734 0.0400391 3.04353 0.0400391H18.974C20.6302 0.0400391 21.9777 1.38734 21.9777 3.04353V14.572L25.6634 18.2579C25.8534 18.4478 25.96 18.7052 25.96 18.9738ZM3.04353 23.935H15.9703V18.9738C15.9703 18.7052 16.0769 18.4478 16.2667 18.2579L19.9527 14.5716V3.04353C19.9527 2.50405 19.5137 2.06504 18.974 2.06504H3.04353C2.50405 2.06504 2.06504 2.50405 2.06504 3.04353V22.9566C2.06504 23.496 2.50405 23.935 3.04353 23.935ZM23.935 19.3932L20.965 16.423L17.9953 19.393V23.935H23.935V19.3932Z" fill="#236DF8"/>
</g>
<defs>
<clipPath id="clip0_88_2277">
<rect width="25.92" height="25.92" fill="white" transform="translate(0.0400391 0.0400391)"/>
</clipPath>
</defs>
</svg>
