<svg width="170" height="30" viewBox="0 0 170 30" fill="none" xmlns="http://www.w3.org/2000/svg">
<path d="M13.9092 0H32.148L18.7388 19.8206H0.5L13.9092 0Z" fill="#FFD600"/>
<path d="M14.7083 21.6592L9.51465 29.3362H28.6186L42.0278 9.51562H27.9279L19.7124 21.6592H14.7083Z" fill="#312ECB"/>
<path d="M55.0156 5.17188C55.1656 6.2717 55.2156 6.99659 55.2156 8.87129V22.2692C55.2156 23.9439 55.1656 24.9937 55.0156 25.9686H60.5142C60.3642 24.9188 60.3142 23.9939 60.3142 22.2692V8.87129C60.3142 7.04658 60.3642 6.19671 60.5142 5.17188H55.0156Z" fill="#312D2A"/>
<path d="M68.5557 25.9686C68.4058 24.6688 68.3558 23.619 68.3558 22.1942V17.145C69.4305 15.3953 70.6802 14.5204 72.0798 14.5204C72.8296 14.5204 73.4044 14.7704 73.7294 15.2203C74.0293 15.6452 74.1293 16.0702 74.1293 17.07V22.1942C74.1293 23.7189 74.0793 24.7688 73.9293 25.9686H79.1279C79.0029 24.9188 78.928 23.669 78.928 22.2192V15.9452C78.928 13.9705 78.5031 12.7457 77.5033 11.7458C76.5786 10.821 75.204 10.3461 73.4794 10.3461C71.43 10.3461 69.9054 10.971 68.3308 12.4707C68.3308 12.2957 68.3558 11.9208 68.3558 11.7708V10.721H63.3821C63.5321 11.7208 63.5821 12.7707 63.5821 14.4954V22.1942C63.5821 23.7439 63.5321 24.7938 63.3821 25.9686H68.5557Z" fill="#312D2A"/>
<path d="M96.4576 15.3453C95.6329 12.0208 92.9586 10.1211 89.1096 10.1211C84.2359 10.1211 81.0868 13.3206 81.0868 18.3198C81.0868 20.7694 81.8865 22.9691 83.3362 24.3938C84.7108 25.7936 86.7602 26.5435 89.1596 26.5435C92.0588 26.5435 94.3332 25.5187 95.5829 23.669C96.0577 22.9441 96.3577 22.2692 96.6326 21.1943L92.0338 20.4695C91.9338 21.0444 91.8089 21.2943 91.5839 21.6193C91.0841 22.3192 90.1843 22.7191 89.2096 22.7191C87.2101 22.7191 85.9355 20.9694 85.9355 18.2698C85.9355 15.5202 87.1351 13.9205 89.1596 13.9205C90.0594 13.9205 90.7592 14.2204 91.259 14.7954C91.5839 15.1703 91.7339 15.5202 91.9588 16.2701L96.4576 15.3453Z" fill="#312D2A"/>
<path d="M108.6 16.0951C106.801 16.1451 106.051 16.1701 105.076 16.2701C102.827 16.4701 101.152 16.995 99.8774 17.8949C98.6777 18.7197 98.0529 19.9695 98.0529 21.5443C98.0529 22.9191 98.5278 24.1189 99.4275 24.9438C100.427 25.8686 101.852 26.3185 103.751 26.3185C105.801 26.3185 107.2 25.8936 108.6 24.8188V25.9686H113.449C113.324 24.8438 113.274 23.9439 113.274 22.4192V15.6702C113.274 13.4206 112.574 12.0458 110.974 11.1709C110 10.646 108.2 10.2961 106.351 10.2961C103.926 10.2961 102.077 10.771 100.727 11.7208C99.6775 12.4707 99.1276 13.2706 98.6278 14.7454L103.401 15.5202C103.776 14.2954 104.626 13.7705 106.226 13.7705C107.875 13.7705 108.6 14.3204 108.6 15.5202V16.0951ZM108.6 19.9945C108.6 20.7444 108.275 21.4193 107.7 21.9192C107.026 22.4941 105.901 22.8691 104.876 22.8691C103.576 22.8691 102.827 22.3442 102.827 21.4443C102.827 20.7194 103.376 20.0945 104.276 19.7946C105.301 19.4696 106.376 19.3446 108.6 19.2946V19.9945Z" fill="#312D2A"/>
<path d="M121.276 25.9686C121.126 24.6688 121.076 23.619 121.076 22.1942V17.145C122.151 15.3953 123.4 14.5204 124.8 14.5204C125.55 14.5204 126.125 14.7704 126.45 15.2203C126.75 15.6452 126.849 16.0702 126.849 17.07V22.1942C126.849 23.7189 126.799 24.7688 126.65 25.9686H131.848C131.723 24.9188 131.648 23.669 131.648 22.2192V15.9452C131.648 13.9705 131.223 12.7457 130.224 11.7458C129.299 10.821 127.924 10.3461 126.2 10.3461C124.15 10.3461 122.626 10.971 121.051 12.4707C121.051 12.2957 121.076 11.9208 121.076 11.7708V10.721H116.102C116.252 11.7208 116.302 12.7707 116.302 14.4954V22.1942C116.302 23.7439 116.252 24.7938 116.102 25.9686H121.276Z" fill="#312D2A"/>
<path d="M136.431 10.721H135.532C134.657 10.721 134.032 10.671 133.307 10.571V14.7454C134.032 14.6454 134.682 14.5954 135.482 14.5954H136.431V22.2442C136.431 23.9439 136.781 24.7938 137.731 25.5187C138.531 26.1186 139.705 26.3935 141.405 26.3935C142.755 26.3935 143.729 26.2435 144.854 25.8936L144.479 22.0942C143.854 22.4191 143.379 22.5441 142.73 22.5441C142.255 22.5441 141.855 22.4441 141.58 22.2692C141.255 22.0442 141.13 21.6943 141.13 20.9944V14.5954H142.18C143.08 14.5954 143.729 14.6454 144.479 14.7454V10.596C143.704 10.696 143.129 10.721 142.03 10.721H141.13V10.1961C141.13 8.99627 141.205 7.79646 141.33 6.77162H136.231C136.381 7.94644 136.431 8.94628 136.431 10.1961V10.721Z" fill="#312D2A"/>
<path d="M153.989 26.5435C158.963 26.5435 162.262 23.244 162.262 18.2698C162.262 13.3206 159.063 10.1461 154.014 10.1461C148.966 10.1461 145.767 13.3206 145.767 18.3198C145.767 23.344 148.966 26.5435 153.989 26.5435ZM154.039 13.8955C156.164 13.8955 157.439 15.5452 157.439 18.3448C157.439 21.1194 156.189 22.7441 154.014 22.7441C151.84 22.7441 150.54 21.0694 150.54 18.2948C150.54 15.5452 151.84 13.8955 154.039 13.8955Z" fill="#312D2A"/>
<path d="M164.233 20.9194V25.9686H169.281V20.9194H164.233Z" fill="#312D2A"/>
</svg>
