<svg width="154" height="34" viewBox="0 0 154 34" fill="none" xmlns="http://www.w3.org/2000/svg">
<path d="M0.5 12.419H14.525H23.0421V3.97852L0.5 12.419Z" fill="#FF9D28"/>
<path d="M23.043 3.97801V33.8131L33.702 0L23.043 3.97801Z" fill="#68C5ED"/>
<path d="M23.0424 12.418H14.5254L23.0424 33.787V12.418Z" fill="#044D80"/>
<path d="M0.5 12.418L16.718 17.9005L14.525 12.418H0.5Z" fill="#E54747"/>
<path d="M52.1627 25.933C52.0352 26.0605 51.8312 26.2135 51.5507 26.392C51.2702 26.5705 50.8877 26.7745 50.4287 26.953C49.9697 27.1315 49.4087 27.31 48.7202 27.4375C48.0572 27.565 47.2922 27.6415 46.4252 27.6415C44.7677 27.6415 43.3142 27.361 42.0901 26.851C40.8661 26.3155 39.8716 25.576 39.0811 24.607C38.2906 23.638 37.7041 22.516 37.3471 21.2155C36.9646 19.915 36.7861 18.4615 36.7861 16.906C36.7861 15.3505 36.9901 13.897 37.3981 12.571C37.8061 11.245 38.3926 10.0975 39.2086 9.12848C39.9991 8.15948 41.0191 7.39448 42.2176 6.85897C43.4162 6.32347 44.8442 6.04297 46.4762 6.04297C47.2667 6.04297 48.0062 6.11947 48.6437 6.24697C49.2812 6.39997 49.8677 6.55297 50.3522 6.75697C50.8367 6.96097 51.2447 7.16497 51.5507 7.36898C51.8822 7.57298 52.1117 7.77697 52.2647 7.90447C52.4432 8.05747 52.6217 8.26148 52.7492 8.49098C52.8767 8.72048 52.9532 8.97548 52.9532 9.23048C52.9532 9.63848 52.8002 10.0465 52.4942 10.4545C52.1882 10.8625 51.8567 11.245 51.4742 11.602C51.2192 11.347 50.9387 11.092 50.6327 10.837C50.3267 10.582 49.9697 10.3525 49.5872 10.1485C49.2047 9.94448 48.7712 9.79148 48.2867 9.66398C47.8022 9.53648 47.2667 9.45998 46.6547 9.45998C45.6092 9.45998 44.7167 9.66398 44.0027 10.0975C43.2887 10.531 42.7277 11.0665 42.2941 11.755C41.8606 12.4435 41.5546 13.2085 41.3761 14.0755C41.1976 14.9425 41.0956 15.835 41.0956 16.753C41.0956 17.722 41.1976 18.64 41.3761 19.5325C41.5546 20.425 41.8861 21.19 42.3451 21.8785C42.8041 22.567 43.3907 23.1025 44.1302 23.5105C44.8697 23.9185 45.7622 24.1225 46.8587 24.1225C47.4452 24.1225 47.9552 24.046 48.4397 23.9185C48.9242 23.7655 49.3577 23.587 49.7147 23.383C50.0972 23.179 50.4032 22.9495 50.6837 22.7455C50.9642 22.516 51.1937 22.312 51.3722 22.159C51.4997 22.312 51.6272 22.4905 51.8057 22.6945C51.9842 22.8985 52.1372 23.128 52.2647 23.332C52.4177 23.5615 52.5197 23.791 52.6472 24.0205C52.7492 24.25 52.8002 24.454 52.8002 24.6325C52.8002 24.913 52.7492 25.117 52.6472 25.321C52.5452 25.4995 52.3667 25.7035 52.1627 25.933ZM68.0747 23.5615C68.0747 25.1935 68.3042 26.392 68.7887 27.1315C68.4062 27.2845 68.0747 27.3865 67.7432 27.4375C67.4117 27.4885 67.0802 27.5395 66.7232 27.5395C65.9837 27.5395 65.4227 27.3865 65.0402 27.106C64.6577 26.8255 64.4027 26.392 64.3007 25.8565C63.8417 26.341 63.2552 26.749 62.4902 27.0805C61.7507 27.412 60.8327 27.565 59.7617 27.565C59.2007 27.565 58.6397 27.4885 58.0787 27.3355C57.5177 27.1825 57.0077 26.9275 56.5487 26.5705C56.0897 26.2135 55.7327 25.7545 55.4267 25.168C55.1462 24.5815 54.9932 23.8675 54.9932 23.026C54.9932 21.9805 55.2482 21.1135 55.7582 20.4505C56.2682 19.7875 56.9057 19.2775 57.6707 18.895C58.4357 18.5125 59.2772 18.2575 60.1442 18.1045C61.0367 17.9515 61.8527 17.875 62.5922 17.824C62.8472 17.7985 63.0767 17.7985 63.3317 17.7985H63.9947V17.2375C63.9947 16.447 63.7907 15.886 63.3572 15.529C62.9237 15.1975 62.2352 15.019 61.2917 15.019C60.3992 15.019 59.6087 15.172 58.9202 15.4525C58.2317 15.733 57.5432 16.0645 56.8802 16.447C56.5997 16.09 56.3447 15.7075 56.1917 15.274C56.0132 14.8405 55.9367 14.5345 55.9367 14.3305C55.9367 14.05 56.0897 13.7695 56.4212 13.489C56.7527 13.2085 57.1862 12.979 57.7472 12.7495C58.3082 12.52 58.9457 12.367 59.6852 12.214C60.3992 12.0865 61.1642 12.01 61.9802 12.01C63.1022 12.01 64.0457 12.112 64.8107 12.3415C65.5757 12.571 66.2132 12.928 66.6977 13.387C67.1822 13.8715 67.5392 14.458 67.7432 15.172C67.9472 15.886 68.0492 16.7275 68.0492 17.671L68.0747 23.5615ZM64.0967 19.966H63.6632C63.5102 19.966 63.3827 19.966 63.2297 19.9915C62.7197 20.0425 62.2097 20.0935 61.6997 20.17C61.1897 20.2465 60.7307 20.3995 60.3482 20.6035C59.9657 20.8075 59.6342 21.088 59.3792 21.4195C59.1242 21.751 58.9967 22.1845 58.9967 22.6945C58.9967 23.281 59.1497 23.7655 59.4812 24.1735C59.8127 24.5815 60.3737 24.7855 61.1642 24.7855C61.5467 24.7855 61.9292 24.7345 62.2862 24.6325C62.6432 24.5305 62.9492 24.403 63.2297 24.2245C63.5102 24.046 63.7142 23.8675 63.8672 23.689C64.0202 23.485 64.0967 23.3065 64.0967 23.1535V19.966ZM75.8012 13.846C76.1327 13.4635 76.6427 13.0555 77.3567 12.6475C78.0707 12.2395 78.9377 12.0355 80.0088 12.0355C80.7738 12.0355 81.5132 12.163 82.2018 12.418C82.8903 12.673 83.5023 13.1065 84.0378 13.6675C84.5733 14.254 85.0068 15.019 85.3128 15.9625C85.6443 16.906 85.7973 18.079 85.7973 19.4815C85.7973 21.088 85.6188 22.4395 85.2363 23.485C84.8538 24.5305 84.3948 25.372 83.8083 25.9585C83.2218 26.5705 82.5588 27.004 81.8448 27.259C81.1307 27.514 80.3912 27.6415 79.6772 27.6415C79.0907 27.6415 78.5552 27.565 78.1217 27.4375C77.6882 27.31 77.3057 27.157 76.9997 26.9785C76.6937 26.8255 76.4642 26.647 76.2857 26.494C76.1327 26.341 76.0052 26.2135 75.9797 26.1625V33.8125H71.7467V12.4945C71.8487 12.469 71.9762 12.4435 72.1292 12.4435C72.2567 12.418 72.4097 12.418 72.5627 12.3925C72.7412 12.3925 72.9197 12.367 73.1492 12.367C73.8377 12.367 74.4242 12.469 74.9087 12.6985C75.3677 12.928 75.6737 13.3105 75.8012 13.846ZM81.4113 19.5835C81.4113 18.9715 81.3603 18.385 81.2583 17.8495C81.1563 17.314 80.9778 16.855 80.7483 16.447C80.5188 16.0645 80.1872 15.7585 79.7792 15.529C79.3712 15.2995 78.8867 15.1975 78.3002 15.1975C77.4332 15.1975 76.8212 15.376 76.4897 15.682C76.1582 16.0135 75.9797 16.3705 75.9797 16.7785V23.383C76.1327 23.5615 76.4387 23.74 76.8722 23.9695C77.3057 24.199 77.7902 24.301 78.3512 24.301C79.3968 24.301 80.1617 23.893 80.6717 23.0515C81.1562 22.2355 81.4113 21.088 81.4113 19.5835ZM89.0613 24.9385C88.9083 24.5305 88.8318 24.097 88.7808 23.638C88.7298 23.179 88.7298 22.72 88.7298 22.261V7.85348C88.8828 7.82798 89.0358 7.80247 89.1888 7.80247C89.3418 7.77697 89.4948 7.77698 89.6478 7.75148C89.8008 7.75148 89.9793 7.72597 90.1323 7.72597C90.4638 7.72597 90.7953 7.75147 91.1268 7.82797C91.4583 7.87897 91.7643 8.00647 92.0193 8.21047C92.2998 8.38897 92.5038 8.64398 92.6823 8.97548C92.8353 9.30698 92.9373 9.71498 92.9373 10.225V12.4435H97.2978V15.58H92.9628V22.21C92.9628 23.6635 93.5493 24.3775 94.7223 24.3775C95.0028 24.3775 95.2833 24.3265 95.5383 24.25C95.7933 24.148 96.0228 24.046 96.2268 23.944C96.4308 23.842 96.6093 23.7145 96.7623 23.587C96.9153 23.4595 97.0173 23.3575 97.0938 23.3065C97.3998 23.7655 97.6548 24.148 97.8078 24.4795C97.9608 24.811 98.0628 25.117 98.0628 25.423C98.0628 25.7035 97.9608 25.9585 97.7313 26.2135C97.5018 26.4685 97.1958 26.7235 96.8133 26.9275C96.4308 27.157 95.9463 27.3355 95.3853 27.463C94.8243 27.5905 94.2123 27.667 93.5493 27.667C92.2743 27.667 91.2543 27.412 90.5403 26.9275C89.8773 26.392 89.3673 25.7545 89.0613 24.9385ZM108.008 24.5305C108.518 24.5305 108.977 24.4795 109.385 24.352C109.767 24.25 110.124 24.097 110.456 23.944C110.762 23.791 111.042 23.587 111.272 23.4085C111.501 23.2045 111.705 23.026 111.884 22.873C112.139 23.179 112.394 23.587 112.674 24.0715C112.955 24.556 113.082 24.964 113.082 25.27C113.082 25.729 112.827 26.137 112.317 26.5195C111.884 26.851 111.272 27.1315 110.456 27.3865C109.665 27.616 108.722 27.7435 107.651 27.7435C106.682 27.7435 105.713 27.616 104.769 27.361C103.826 27.106 102.984 26.6725 102.245 26.0605C101.505 25.4485 100.919 24.607 100.46 23.5615C100.001 22.516 99.7713 21.19 99.7713 19.609C99.7713 18.3085 99.9753 17.1865 100.383 16.243C100.791 15.2995 101.327 14.509 101.99 13.897C102.653 13.285 103.418 12.826 104.285 12.52C105.126 12.2395 105.993 12.0865 106.886 12.0865C108.033 12.0865 109.028 12.265 109.844 12.622C110.66 12.979 111.297 13.4635 111.807 14.0755C112.317 14.6875 112.674 15.376 112.904 16.1665C113.133 16.957 113.235 17.773 113.235 18.64V19.0735C113.235 19.252 113.235 19.405 113.21 19.609C113.21 19.7875 113.184 19.966 113.184 20.1445C113.184 20.323 113.159 20.4505 113.133 20.5525H103.979C104.055 21.7 104.412 22.6435 105.05 23.4085C105.662 24.148 106.656 24.5305 108.008 24.5305ZM109.436 18.232C109.436 17.2375 109.232 16.4215 108.849 15.8095C108.467 15.1975 107.778 14.866 106.784 14.866C105.917 14.866 105.254 15.172 104.744 15.7585C104.234 16.345 103.979 17.161 103.979 18.232H109.436ZM120.605 13.9225C120.732 13.744 120.885 13.54 121.089 13.3105C121.293 13.081 121.548 12.877 121.854 12.6985C122.16 12.52 122.492 12.367 122.849 12.2395C123.206 12.112 123.588 12.061 124.022 12.061C124.277 12.061 124.532 12.0865 124.812 12.112C125.093 12.163 125.348 12.2395 125.577 12.3415C125.807 12.4435 126.011 12.5965 126.164 12.8005C126.317 13.0045 126.393 13.234 126.393 13.5145C126.393 13.9735 126.291 14.4835 126.062 15.07C125.832 15.6565 125.603 16.1665 125.373 16.5745C125.016 16.294 124.659 16.0645 124.328 15.9115C123.971 15.7585 123.563 15.682 123.078 15.682C122.441 15.682 121.905 15.8605 121.472 16.243C121.038 16.6255 120.809 17.059 120.809 17.5945V27.6415H116.576V12.469C116.678 12.4435 116.805 12.418 116.958 12.418C117.086 12.3925 117.239 12.3925 117.392 12.367C117.545 12.367 117.749 12.3415 117.978 12.3415C118.641 12.3415 119.228 12.469 119.712 12.724C120.171 13.0045 120.477 13.387 120.605 13.9225ZM132.615 13.9225C132.743 13.744 132.896 13.54 133.1 13.3105C133.304 13.081 133.559 12.877 133.865 12.6985C134.171 12.52 134.502 12.367 134.859 12.2395C135.216 12.112 135.599 12.061 136.032 12.061C136.287 12.061 136.542 12.0865 136.823 12.112C137.103 12.163 137.358 12.2395 137.588 12.3415C137.817 12.4435 138.021 12.5965 138.174 12.8005C138.327 13.0045 138.404 13.234 138.404 13.5145C138.404 13.9735 138.302 14.4835 138.072 15.07C137.843 15.6565 137.613 16.1665 137.384 16.5745C137.027 16.294 136.67 16.0645 136.338 15.9115C135.981 15.7585 135.573 15.682 135.089 15.682C134.451 15.682 133.916 15.8605 133.482 16.243C133.049 16.6255 132.819 17.059 132.819 17.5945V27.6415H128.586V12.469C128.688 12.4435 128.816 12.418 128.969 12.418C129.096 12.3925 129.249 12.3925 129.402 12.367C129.555 12.367 129.759 12.3415 129.989 12.3415C130.652 12.3415 131.238 12.469 131.723 12.724C132.182 13.0045 132.488 13.387 132.615 13.9225ZM152.786 23.5615C152.786 25.1935 153.015 26.392 153.5 27.1315C153.117 27.2845 152.786 27.3865 152.454 27.4375C152.123 27.4885 151.791 27.5395 151.434 27.5395C150.695 27.5395 150.134 27.3865 149.751 27.106C149.369 26.8255 149.114 26.392 149.012 25.8565C148.553 26.341 147.966 26.749 147.201 27.0805C146.462 27.412 145.544 27.565 144.473 27.565C143.912 27.565 143.351 27.4885 142.79 27.3355C142.229 27.1825 141.719 26.9275 141.26 26.5705C140.801 26.2135 140.444 25.7545 140.138 25.168C139.857 24.5815 139.704 23.8675 139.704 23.026C139.704 21.9805 139.959 21.1135 140.469 20.4505C140.979 19.7875 141.617 19.2775 142.382 18.895C143.147 18.5125 143.988 18.2575 144.855 18.1045C145.748 17.9515 146.564 17.875 147.303 17.824C147.558 17.7985 147.788 17.7985 148.043 17.7985H148.706V17.2375C148.706 16.447 148.502 15.886 148.068 15.529C147.635 15.1975 146.946 15.019 146.003 15.019C145.11 15.019 144.32 15.172 143.631 15.4525C142.943 15.733 142.254 16.0645 141.591 16.447C141.311 16.09 141.056 15.7075 140.903 15.274C140.724 14.8405 140.648 14.5345 140.648 14.3305C140.648 14.05 140.801 13.7695 141.132 13.489C141.464 13.2085 141.897 12.979 142.458 12.7495C143.019 12.52 143.657 12.367 144.396 12.214C145.11 12.0865 145.875 12.01 146.691 12.01C147.813 12.01 148.757 12.112 149.522 12.3415C150.287 12.571 150.924 12.928 151.409 13.387C151.893 13.8715 152.25 14.458 152.454 15.172C152.658 15.886 152.76 16.7275 152.76 17.671L152.786 23.5615ZM148.808 19.966H148.374C148.221 19.966 148.094 19.966 147.941 19.9915C147.431 20.0425 146.921 20.0935 146.411 20.17C145.901 20.2465 145.442 20.3995 145.059 20.6035C144.677 20.8075 144.345 21.088 144.09 21.4195C143.835 21.751 143.708 22.1845 143.708 22.6945C143.708 23.281 143.861 23.7655 144.192 24.1735C144.524 24.5815 145.085 24.7855 145.875 24.7855C146.258 24.7855 146.64 24.7345 146.997 24.6325C147.354 24.5305 147.66 24.403 147.941 24.2245C148.221 24.046 148.425 23.8675 148.578 23.689C148.731 23.485 148.808 23.3065 148.808 23.1535V19.966Z" fill="#2E2E2E"/>
</svg>
