<svg width="172" height="89" viewBox="0 0 172 89" fill="none" xmlns="http://www.w3.org/2000/svg">
<path d="M85.4872 57.7758C85.2992 57.7245 82.4066 56.9785 79.3326 56.9785C73.5126 56.9785 70.0086 60.1212 70.0086 64.8012C70.0086 68.9438 72.9399 71.0098 76.4579 72.1212C76.8479 72.2498 77.4226 72.4298 77.8052 72.5565C79.3712 73.0492 80.6212 73.7812 80.6212 75.0492C80.6212 76.4672 79.1766 77.3852 76.0359 77.3852C73.2759 77.3852 70.6299 76.5958 70.0726 76.4552V82.2132C70.3832 82.2792 73.5279 82.8965 76.8872 82.8965C81.7192 82.8965 87.2466 80.7852 87.2466 74.4998C87.2466 71.4512 85.3799 68.6445 81.2819 67.3418L79.5399 66.7872C78.5006 66.4592 76.6452 65.9278 76.6452 64.4045C76.6452 63.2012 78.0199 62.3538 80.5512 62.3538C82.7352 62.3538 85.3932 63.0878 85.4872 63.1172V57.7758ZM138.848 69.9378C138.848 73.5785 136.059 76.5238 132.317 76.5238C128.571 76.5238 125.79 73.5785 125.79 69.9378C125.79 66.3045 128.571 63.3578 132.317 63.3578C136.059 63.3578 138.848 66.3045 138.848 69.9378ZM132.317 56.9865C124.621 56.9865 119.102 62.7912 119.102 69.9378C119.102 77.0958 124.621 82.8965 132.317 82.8965C140.013 82.8965 145.54 77.0958 145.54 69.9378C145.54 62.7912 140.013 56.9865 132.317 56.9865ZM61.5412 82.4512H55.2266V57.4298H61.5412" fill="#049FD9"/>
<path d="M46.5468 57.881C45.9535 57.705 43.7602 56.9844 40.7895 56.9844C33.1055 56.9844 27.4648 62.463 27.4648 69.9357C27.4648 77.9977 33.6915 82.8944 40.7895 82.8944C43.6095 82.8944 45.7622 82.2264 46.5468 82.0037V75.287C46.2755 75.4377 44.2115 76.615 41.2422 76.615C37.0355 76.615 34.3222 73.6544 34.3222 69.9357C34.3222 66.1037 37.1528 63.2617 41.2422 63.2617C44.2622 63.2617 46.2928 64.465 46.5468 64.5977" fill="#049FD9"/>
<path d="M112.453 57.881C111.86 57.705 109.666 56.9844 106.696 56.9844C99.0118 56.9844 93.3711 62.463 93.3711 69.9357C93.3711 77.9977 99.5978 82.8944 106.696 82.8944C109.516 82.8944 111.668 82.2264 112.453 82.0037V75.287C112.182 75.4377 110.118 76.615 107.148 76.615C102.942 76.615 100.228 73.6544 100.228 69.9357C100.228 66.1037 103.059 63.2617 107.148 63.2617C110.168 63.2617 112.199 64.465 112.453 64.5977" fill="#049FD9"/>
<path d="M55.2073 10.1233C55.2073 8.39867 53.7987 7 52.072 7C50.346 7 48.9373 8.39867 48.9373 10.1233V43.35C48.9377 44.1811 49.2681 44.978 49.856 45.5654C50.4438 46.1529 51.2409 46.4828 52.072 46.4827C52.4836 46.4828 52.8911 46.4019 53.2714 46.2446C53.6517 46.0873 53.9973 45.8566 54.2885 45.5657C54.5796 45.2748 54.8106 44.9294 54.9683 44.5492C55.1259 44.1691 55.2071 43.7616 55.2073 43.35V10.1233ZM37.988 21.918C37.988 20.194 36.58 18.7933 34.8533 18.7933C33.1267 18.7933 31.7187 20.194 31.7187 21.918V37.108C31.719 37.9391 32.0495 38.736 32.6373 39.3234C33.2251 39.9109 34.0223 40.2408 34.8533 40.2407C35.6844 40.2408 36.4815 39.9109 37.0694 39.3234C37.6572 38.736 37.9876 37.9391 37.988 37.108V21.918ZM20.7693 30.5393C20.7693 28.8147 19.3613 27.4167 17.6347 27.4167C15.91 27.4167 14.5 28.8147 14.5 30.5393V37.108C14.5169 37.9282 14.8546 38.709 15.4406 39.2831C16.0267 39.8572 16.8143 40.1787 17.6347 40.1787C18.455 40.1787 19.2427 39.8572 19.8287 39.2831C20.4147 38.709 20.7524 37.9282 20.7693 37.108" fill="#049FD9"/>
<path d="M48.9372 10.1233C48.9372 8.39867 50.3459 7 52.0725 7C53.7985 7 55.2072 8.39867 55.2072 10.1233V43.35C55.2069 44.1811 54.8764 44.978 54.2886 45.5654C53.7007 46.1529 52.9036 46.4828 52.0725 46.4827C51.661 46.4828 51.2534 46.4019 50.8731 46.2446C50.4928 46.0873 50.1472 45.8566 49.8561 45.5657C49.5649 45.2748 49.3339 44.9294 49.1763 44.5492C49.0186 44.1691 48.9374 43.7616 48.9372 43.35V10.1233ZM66.1565 21.918C66.1565 20.194 67.5645 18.7933 69.2912 18.7933C71.0179 18.7933 72.4259 20.194 72.4259 21.918V37.108C72.4255 37.9391 72.0951 38.736 71.5072 39.3234C70.9194 39.9109 70.1223 40.2408 69.2912 40.2407C68.4601 40.2408 67.663 39.9109 67.0752 39.3234C66.4873 38.736 66.1569 37.9391 66.1565 37.108V21.918ZM83.3752 30.5393C83.3752 28.8147 84.7832 27.4167 86.5099 27.4167C88.2345 27.4167 89.6445 28.8147 89.6445 30.5393V37.108C89.6276 37.9282 89.2899 38.709 88.7039 39.2831C88.1179 39.8572 87.3302 40.1787 86.5099 40.1787C85.6895 40.1787 84.9018 39.8572 84.3158 39.2831C83.7298 38.709 83.3921 37.9282 83.3752 37.108" fill="#049FD9"/>
<path d="M117.793 10.1233C117.793 8.39867 119.201 7 120.928 7C122.654 7 124.063 8.39867 124.063 10.1233V43.35C124.062 44.1811 123.732 44.978 123.144 45.5654C122.556 46.1529 121.759 46.4828 120.928 46.4827C120.516 46.4828 120.109 46.4019 119.729 46.2446C119.348 46.0873 119.003 45.8566 118.712 45.5657C118.42 45.2748 118.189 44.9294 118.032 44.5492C117.874 44.1691 117.793 43.7616 117.793 43.35V10.1233ZM135.012 21.918C135.012 20.194 136.42 18.7933 138.147 18.7933C139.873 18.7933 141.281 20.194 141.281 21.918V37.108C141.281 37.9391 140.951 38.736 140.363 39.3234C139.775 39.9109 138.978 40.2408 138.147 40.2407C137.316 40.2408 136.518 39.9109 135.931 39.3234C135.343 38.736 135.012 37.9391 135.012 37.108V21.918ZM152.231 30.5393C152.231 28.8147 153.639 27.4167 155.365 27.4167C157.09 27.4167 158.5 28.8147 158.5 30.5393V37.108C158.483 37.9282 158.145 38.709 157.559 39.2831C156.973 39.8572 156.186 40.1787 155.365 40.1787C154.545 40.1787 153.757 39.8572 153.171 39.2831C152.585 38.709 152.248 37.9282 152.231 37.108" fill="#049FD9"/>
<path d="M124.063 10.1233C124.063 8.39867 122.654 7 120.927 7C119.201 7 117.793 8.39867 117.793 10.1233V43.35C117.793 44.1811 118.124 44.978 118.711 45.5654C119.299 46.1529 120.096 46.4828 120.927 46.4827C121.339 46.4828 121.747 46.4019 122.127 46.2446C122.507 46.0873 122.853 45.8566 123.144 45.5657C123.435 45.2748 123.666 44.9294 123.824 44.5492C123.981 44.1691 124.063 43.7616 124.063 43.35V10.1233ZM106.843 21.918C106.843 20.194 105.435 18.7933 103.709 18.7933C101.982 18.7933 100.574 20.194 100.574 21.918V37.108C100.574 37.9391 100.905 38.736 101.493 39.3234C102.081 39.9109 102.878 40.2408 103.709 40.2407C104.54 40.2408 105.337 39.9109 105.925 39.3234C106.513 38.736 106.843 37.9391 106.843 37.108V21.918ZM89.6248 30.5393C89.6248 28.8147 88.2168 27.4167 86.4901 27.4167C84.7655 27.4167 83.3555 28.8147 83.3555 30.5393V37.108C83.3724 37.9282 83.7101 38.709 84.2961 39.2831C84.8821 39.8572 85.6698 40.1787 86.4901 40.1787C87.3105 40.1787 88.0982 39.8572 88.6842 39.2831C89.2702 38.709 89.6079 37.9282 89.6248 37.108" fill="#049FD9"/>
</svg>
