<svg width="88" height="88" viewBox="0 0 88 88" fill="none" xmlns="http://www.w3.org/2000/svg">
<path d="M44.0029 4.75525C33.1695 4.75525 23.3584 9.14934 16.2555 16.2581C9.14934 23.3504 4.75791 33.1665 4.75791 44.0053C4.75791 54.8361 9.14934 64.6454 16.2555 71.7407C23.3587 78.8397 33.1695 83.2421 44.0027 83.2421C54.8388 83.2421 64.6549 78.8397 71.7475 71.7407C78.8507 64.6454 83.2326 54.8361 83.2326 44.0053C83.2326 33.1665 78.8504 23.3504 71.7475 16.2581C64.6549 9.14934 54.8388 4.75525 44.0029 4.75525ZM44.0027 0C68.3004 0 88 19.7026 88 44.0053C88 68.2998 68.2998 88 44.0029 88C19.7085 88 0 68.2998 0 44.0053C0 19.7028 19.7082 0 44.0027 0Z" fill="#007DB8"/>
<path d="M23.1929 43.6456C23.1929 41.0815 21.4913 39.6248 19.0825 39.6248H17.6084V47.6694H19.0406C21.2805 47.6694 23.1929 46.4521 23.1929 43.6456ZM49.416 46.5398L38.5554 55.0918L28.6297 47.2766C27.1974 50.7175 23.7365 53.1074 19.7508 53.1074H11.2559V34.1835H19.7508C24.2043 34.1835 27.4139 37.0155 28.627 40.0329L38.5554 32.2266L42.2327 35.1205L33.1333 42.2727L34.8821 43.6412L43.9789 36.4934L47.6616 39.3797L38.5633 46.5396L40.3097 47.9109L49.416 40.7505V34.1841H56.0172V47.5843H62.6024V53.1307H49.416V46.5398ZM70.9647 47.5867H77.547V53.1304H64.3565V34.1838H70.9647V47.5867Z" fill="#007DB8"/>
</svg>
