<svg width="154" height="33" viewBox="0 0 154 33" fill="none" xmlns="http://www.w3.org/2000/svg">
<path d="M25.5176 28.9517C18.3946 28.9434 12.6287 23.161 12.637 16.0367C12.6452 8.91205 18.4246 3.14859 25.5475 3.15686C28.0581 3.15977 30.4013 3.87852 32.38 5.12195L25.5326 16.0517L38.4082 8.63709C37.0129 6.4081 35.0101 4.48653 32.5873 3.02734C29.5044 1.17672 25.2141 0.0286557 20.4687 0.0231452C13.6995 0.0152845 7.75792 2.46824 4.4418 6.14813C1.98664 8.86845 0.522833 12.2941 0.518504 16.0224C0.514171 19.7535 1.97001 23.185 4.41885 25.9129C7.73502 29.6051 13.5824 32.0574 20.24 32.0651C26.8966 32.0729 32.7479 29.6322 36.0748 25.9497C36.2569 25.7469 36.4334 25.5422 36.6002 25.3298L36.1007 23.4487C33.7624 26.7781 29.8934 28.9568 25.5176 28.9517ZM68.174 31.3452L62.797 11.1929C61.9332 7.93631 58.9716 5.54005 55.4422 5.53595C54.5268 5.53489 53.6495 5.69741 52.8353 5.99253L41.2043 10.2066L53.1617 10.2205L55.1962 17.8539C53.2161 16.1457 50.6358 15.1047 47.8093 15.1015C42.1963 15.0949 37.6476 18.851 37.6422 23.4907C37.6368 28.1308 42.1768 31.9029 47.7897 31.9094C51.8304 31.9141 55.4062 29.9401 57.6139 26.9035L58.7942 31.3343L68.174 31.3452ZM51.7045 28.1969C49.1154 28.1939 47.019 26.0945 47.022 23.5016C47.025 20.9125 49.1263 18.816 51.7154 18.819C54.3045 18.822 56.4029 20.9234 56.3999 23.5125C56.3969 26.1054 54.2937 28.1999 51.7045 28.1969ZM90.2229 5.57978C89.5143 5.57896 88.8439 5.73483 88.246 6.01469L80.7772 9.48486C80.4102 7.26223 78.4818 5.56615 76.1532 5.56345C75.4484 5.56263 74.7761 5.7185 74.1706 5.99834L65.0521 10.2343L71.4598 10.2418L71.4352 31.3492L80.815 31.3601L80.8368 12.6009C80.8383 11.3065 81.8871 10.2541 83.1855 10.2556C84.4762 10.2571 85.5301 11.3119 85.5286 12.6063L85.5068 31.3655L94.8828 31.3764L94.9073 10.269C94.9103 7.68046 92.812 5.58279 90.2229 5.57978ZM125.377 18.9044C125.368 26.241 119.415 32.1803 112.081 32.1718C104.74 32.1632 98.7974 26.2102 98.8059 18.8735C98.8144 11.5388 104.771 5.59668 112.112 5.6052C119.446 5.61372 125.385 11.5698 125.377 18.9044ZM112.657 9.63735C112.241 8.07382 110.635 7.14413 109.072 7.56247C107.511 7.97909 106.576 9.58567 106.994 11.149L111.53 28.14C111.95 29.7051 113.551 30.6338 115.114 30.222C116.678 29.8006 117.608 28.1949 117.191 26.6318L112.657 9.63735Z" fill="#BF1920"/>
<path d="M149.045 5.64837C148.335 5.64754 147.66 5.80341 147.053 6.08326L139.592 9.55343C139.227 7.33081 137.298 5.63473 134.97 5.63202C134.265 5.6312 133.593 5.78707 132.985 6.06692L123.871 10.3029L130.276 10.3103L130.252 31.4178L139.63 31.4286L139.651 12.6694C139.653 11.3751 140.704 10.3226 142.002 10.3242C143.297 10.3257 144.343 11.3805 144.341 12.6749L144.32 31.4341L153.703 31.445L153.728 10.3376C153.731 7.74904 151.63 5.65137 149.045 5.64837Z" fill="#BF1920"/>
</svg>
