<svg width="162" height="68" viewBox="0 0 162 68" fill="none" xmlns="http://www.w3.org/2000/svg">
<path d="M51.9707 12.457H3.46526V3.46467H51.9709L51.9707 12.457ZM55.436 0H0V15.9199H55.4359L55.436 0Z" fill="#00B188"/>
<path d="M3.46514 42.2325H0V26.3125H3.46514V32.6036H9.65631V26.3125H13.1215V42.2325H9.65631V35.635H3.46514V42.2325ZM18.3691 35.2527H22.4966C22.4197 34.082 21.9365 33.2659 20.5855 33.2659C19.5663 33.2659 18.6745 33.6998 18.3691 35.2527ZM20.993 42.4873C17.4773 42.4873 15.083 40.2709 15.083 36.6301C15.083 33.088 17.4268 30.6431 20.535 30.6431C23.9233 30.6431 25.6048 32.91 25.6048 36.2984V37.5724H18.3691C18.7778 39.3286 20.1529 39.7865 21.529 39.7865C22.7261 39.7865 23.5916 39.5328 24.6613 38.8695H24.7899V41.4933C23.8728 42.1567 22.5723 42.4873 20.993 42.4873ZM34.6482 35.5593L32.8646 42.2325H29.8334L26.3681 31.0243V30.8968H29.6806L31.5653 37.5965L33.3489 30.8968H36.0498L37.8586 37.5965L39.7697 30.8968H42.9547V31.0243L39.4896 42.2325H36.4571L34.6482 35.5593ZM48.5835 42.4873C45.8322 42.4873 44.7109 41.3923 44.7109 38.82V26.3137H48.0739V38.5905C48.0739 39.3801 48.3793 39.6603 49.0414 39.6603C49.2711 39.6603 49.6027 39.5845 49.806 39.5076H49.8576V42.2841C49.5775 42.3851 49.0931 42.4873 48.5835 42.4873ZM54.0871 35.2527H58.2146C58.1377 34.082 57.6544 33.2659 56.3035 33.2659C55.2854 33.2659 54.3925 33.6998 54.0871 35.2527ZM56.711 42.4873C53.1953 42.4873 50.801 40.2709 50.801 36.6301C50.801 33.088 53.1448 30.6431 56.253 30.6431C59.6412 30.6431 61.3228 32.91 61.3228 36.2984V37.5724H54.0871C54.4947 39.3286 55.8708 39.7865 57.2458 39.7865C58.4442 39.7865 59.3096 39.5328 60.3805 38.8695H60.5079V41.4933C59.5907 42.1567 58.2915 42.4873 56.711 42.4873ZM75.1306 30.8968H77.6271V33.5965H75.1307V38.207C75.1307 39.201 75.5129 39.6601 76.5321 39.6601C76.8121 39.6601 77.1692 39.6338 77.5514 39.5064H77.6271V42.1554C77.1944 42.3092 76.5321 42.4861 75.5646 42.4861C72.8374 42.4861 71.7676 41.2384 71.7676 38.3598V33.5964H67.4623V38.207C67.4623 39.201 67.8446 39.6601 68.8626 39.6601C69.1438 39.6601 69.5007 39.6338 69.883 39.5064H69.9588V42.1554C69.526 42.3092 68.8626 42.4861 67.8962 42.4861C65.169 42.4861 64.0993 41.2384 64.0993 38.3598V33.5964H62.3662V30.8967H64.0993V27.7897H67.4623V30.8967H71.7676V27.7897H75.1307V30.8967M88.9584 34.1325C90.7178 34.1325 91.557 33.1397 91.557 31.7129C91.557 30.2346 90.7178 29.2417 88.9584 29.2417H86.7672V34.1326L88.9584 34.1325ZM95.0737 31.7129C95.0737 35.1781 92.7551 37.0616 89.2384 37.0616H86.7672V42.2325H83.3043V26.3125H89.2384C92.7552 26.3125 95.0737 28.1972 95.0737 31.7129ZM102.461 38.6663V37.6987C101.951 37.4197 101.29 37.3176 100.601 37.3176C99.5065 37.3176 98.8442 37.724 98.8442 38.641C98.8442 39.5845 99.5065 39.9919 100.499 39.9919C101.442 39.9919 102.156 39.5076 102.461 38.6663ZM102.563 41.1123C101.824 42.004 100.73 42.4368 99.5559 42.4368C97.3406 42.4368 95.5307 41.0881 95.5307 38.6917C95.5307 36.4763 97.3407 34.999 99.9381 34.999C100.753 34.999 101.595 35.1264 102.461 35.3801V35.1781C102.461 33.9545 101.773 33.4208 99.9656 33.4208C98.8179 33.4208 97.7229 33.7503 96.7794 34.2862H96.6531V31.5856C97.5185 31.077 99.0484 30.6431 100.55 30.6431C103.965 30.6431 105.824 32.2731 105.824 35.1264V42.2325H102.563V41.1122M107.531 36.5784C107.531 32.9353 110.105 30.6432 113.468 30.6432C114.665 30.6432 115.786 30.898 116.627 31.5086V34.3873H116.498C115.759 33.8272 114.894 33.4954 113.901 33.4954C112.219 33.4954 110.945 34.6431 110.945 36.5784C110.945 38.5136 112.219 39.635 113.901 39.635C114.894 39.635 115.759 39.3033 116.498 38.742H116.627V41.6207C115.786 42.2325 114.665 42.4873 113.468 42.4873C110.105 42.4873 107.531 40.2214 107.531 36.5784ZM122.103 37.088V42.2325H118.741V26.3125H122.103V35.3801L125.492 30.8968H129.313V31.0243L125.238 36.1699L129.313 42.105V42.2324H125.466L122.103 37.088ZM136.854 38.6663V37.6987C136.346 37.4197 135.682 37.3176 134.995 37.3176C133.9 37.3176 133.238 37.724 133.238 38.641C133.238 39.5845 133.9 39.9919 134.892 39.9919C135.836 39.9919 136.549 39.5076 136.854 38.6663ZM136.956 41.1123C136.217 42.004 135.121 42.4368 133.95 42.4368C131.733 42.4368 129.925 41.0881 129.925 38.6917C129.925 36.4763 131.733 34.999 134.334 34.999C135.149 34.999 135.988 35.1264 136.854 35.3801V35.1781C136.854 33.9545 136.167 33.4208 134.358 33.4208C133.212 33.4208 132.115 33.7503 131.173 34.2862H131.045V31.5856C131.912 31.077 133.441 30.6431 134.943 30.6431C138.359 30.6431 140.218 32.2731 140.218 35.1264V42.2325H136.956V41.1122M145.874 32.731C146.484 31.4823 147.377 30.7695 148.626 30.7695C149.084 30.7695 149.542 30.8716 149.719 30.9738V34.183H149.593C149.21 34.0292 148.752 33.9281 148.115 33.9281C147.071 33.9281 146.256 34.5399 145.975 35.7108V42.2325H142.613V30.8968H145.874V32.731ZM158.637 38.3862V34.7431C158.077 33.9282 157.339 33.5723 156.496 33.5723C155.02 33.5723 154.026 34.6431 154.026 36.5784C154.026 38.5136 155.02 39.5581 156.496 39.5581C157.339 39.5581 158.077 39.2011 158.637 38.3862ZM158.738 41.0617C158.025 41.9787 156.904 42.4873 155.376 42.4873C152.471 42.4873 150.612 39.8393 150.612 36.5784C150.612 33.3176 152.471 30.6432 155.376 30.6432C156.853 30.6432 157.923 31.1022 158.637 31.9424V26.3137H162V42.2325H158.738V41.0617ZM0 47.4319H9.83425V49.3671H2.21641V54.2315H9.12026V56.1173H2.21641V61.4155H9.83413V63.3506H0V47.4319ZM17.9606 51.9141C20.4823 51.9141 21.8837 53.5703 21.8837 56.2941V63.3507H19.7695V56.3457C19.7695 54.8937 19.0304 53.8492 17.4257 53.8492C16.1012 53.8492 14.9797 54.6905 14.5976 55.8866V63.3507H12.4833V52.1436H14.5976V53.7735C15.2599 52.729 16.3812 51.9141 17.9606 51.9141ZM27.5663 52.1436H30.445V53.9525H27.5663V59.9888C27.5663 61.2617 28.2286 61.6956 29.4258 61.6956C29.7564 61.6956 30.1134 61.645 30.3681 61.5429H30.445V63.3506C30.1397 63.478 29.7058 63.5802 29.1204 63.5802C26.4955 63.5802 25.4521 62.382 25.4521 60.1931V53.9525H23.5158V52.1436H25.4521V49.165H27.5663V52.1436ZM33.9859 56.651H39.5653C39.4896 54.9959 38.6735 53.723 36.9415 53.723C35.3369 53.723 34.2913 54.9201 33.9859 56.651ZM37.3238 63.5802C34.0364 63.5802 31.7949 61.3891 31.7949 57.8746C31.7949 54.3588 33.8839 51.9141 36.9162 51.9141C39.9992 51.9141 41.6038 54.1304 41.6038 57.4155V58.3842H33.9092C34.1387 60.6511 35.5918 61.7461 37.6039 61.7461C38.8526 61.7461 39.7434 61.466 40.7373 60.7269H40.8143V62.5874C39.8971 63.3001 38.6989 63.5802 37.3239 63.5802M46.2145 53.8755C46.6989 52.6785 47.7697 51.9657 48.9909 51.9657C49.4765 51.9657 49.9092 52.0414 50.0871 52.1436V54.2315H50.0114C49.7049 54.0799 49.1953 54.0031 48.6857 54.0031C47.5402 54.0031 46.5715 54.7664 46.2145 56.0404V63.3507H44.1003V52.1436H46.2145V53.8756M56.9142 61.6692C59.0031 61.6692 60.2267 60.0141 60.2267 57.7461C60.2267 55.5055 59.0031 53.8251 56.9142 53.8251C55.7676 53.8251 54.6979 54.5126 54.1377 55.6065V59.913C54.6979 61.0069 55.7676 61.6692 56.9142 61.6692ZM57.2711 51.9141C60.6078 51.9141 62.3914 54.64 62.3914 57.7461C62.3914 60.8553 60.6078 63.5802 57.2711 63.5802C55.8949 63.5802 54.7231 62.8675 54.1376 62.102V67.656H52.0223V52.1437H54.1376V53.4165C54.7231 52.6268 55.8949 51.9141 57.2711 51.9141ZM67.0031 53.8755C67.4865 52.6785 68.5574 51.9657 69.7798 51.9657C70.264 51.9657 70.6968 52.0414 70.8748 52.1436V54.2315H70.7989C70.4937 54.0799 69.984 54.0031 69.4744 54.0031C68.3278 54.0031 67.3602 54.7664 67.0033 56.0404V63.3507H64.889V52.1436H67.0033V53.8756M73.9325 47.6098C74.6716 47.6098 75.2823 48.1952 75.2823 48.9344C75.2823 49.6735 74.6716 50.2589 73.9325 50.2589C73.2197 50.2589 72.5814 49.6735 72.5814 48.9344C72.5814 48.1952 73.2197 47.6098 73.9325 47.6098ZM72.888 63.3507H75.0033V52.1436H72.888V63.3507ZM82.5442 56.8049C84.1489 57.3134 85.9315 57.9756 85.9315 60.1151C85.9315 62.4084 84.0467 63.5802 81.6271 63.5802C80.1488 63.5802 78.6716 63.2233 77.8303 62.561V60.5489H77.9325C78.8759 61.4144 80.2762 61.7966 81.6008 61.7966C82.798 61.7966 83.8688 61.3376 83.8688 60.3699C83.8688 59.377 82.9781 59.1475 81.2186 58.5622C79.6392 58.0524 77.8819 57.466 77.8819 55.3528C77.8819 53.187 79.6645 51.9141 81.9325 51.9141C83.257 51.9141 84.4289 52.1941 85.3712 52.8312V54.8696H85.2955C84.3795 54.1304 83.3076 53.6966 81.983 53.6966C80.6584 53.6966 79.9193 54.2831 79.9193 55.0728C79.9193 55.9646 80.7343 56.2183 82.5442 56.8049ZM89.9578 56.651H95.5361C95.4603 54.9959 94.6453 53.723 92.9122 53.723C91.3075 53.723 90.2632 54.9201 89.9578 56.651ZM93.2944 63.5802C90.0083 63.5802 87.7666 61.3891 87.7666 57.8746C87.7666 54.3588 89.8557 51.9141 92.887 51.9141C95.971 51.9141 97.5746 54.1304 97.5746 57.4155V58.3842H89.881C90.1105 60.6511 91.5624 61.7461 93.5745 61.7461C94.8243 61.7461 95.7151 61.466 96.708 60.7269H96.7848V62.5874C95.8688 63.3001 94.6705 63.5802 93.2944 63.5802Z" fill="#231F20"/>
</svg>
