<svg width="67" height="82" viewBox="0 0 67 82" fill="none" xmlns="http://www.w3.org/2000/svg">
<path d="M0 65.3047H2.65542L8.79045 73.445V65.3047H11.6383V78.4629H9.19345L2.84782 70.1578V78.4629H0V65.3047ZM20.09 72.6765C19.9252 71.4129 19.1745 70.5521 17.9841 70.5521C16.8028 70.5521 16.0338 71.3945 15.8048 72.6765H20.09ZM13.0211 73.5189V73.4823C13.0211 70.6255 15.0631 68.2813 17.9841 68.2813C21.3262 68.2813 22.8645 70.8726 22.8645 73.7021C22.8645 73.9309 22.8458 74.1874 22.828 74.4529H15.8506C16.1345 75.7349 17.0226 76.4126 18.2954 76.4126C19.2568 76.4126 19.9438 76.1103 20.7312 75.3868L22.3518 76.8244C21.4271 77.9783 20.0719 78.6834 18.2588 78.6834C15.2463 78.6834 13.0211 76.5775 13.0211 73.5189ZM24.6414 75.6244V70.8904H23.4419V68.4638H24.6414V65.9091H27.48V68.4638H29.8425V70.8904H27.48V75.1575C27.48 75.8167 27.7639 76.128 28.3957 76.128C28.9268 76.128 29.3938 75.9997 29.8059 75.7801V78.0511C29.2015 78.4081 28.5056 78.6279 27.5533 78.6279C25.8226 78.6279 24.6414 77.941 24.6414 75.6244ZM52.4689 73.4829V73.4463C52.4689 71.7889 51.3428 70.681 50.0149 70.681C48.6872 70.681 47.5883 71.7889 47.5883 73.4463V73.4829C47.5883 75.1402 48.6872 76.2482 50.0149 76.2482C51.3426 76.2482 52.4689 75.1586 52.4689 73.4829ZM44.7774 68.4649H47.625V69.9025C48.3117 68.9686 49.264 68.2819 50.7474 68.2819C53.0825 68.2819 55.3075 70.1039 55.3075 73.4463V73.4829C55.3075 76.825 53.1191 78.6472 50.7476 78.6472C49.2274 78.6472 48.2935 77.9605 47.6252 77.1639V81.4491H44.7774V68.4649ZM64.1614 73.4829V73.4463C64.1614 71.7889 63.0352 70.681 61.7074 70.681C60.3796 70.681 59.2717 71.7889 59.2717 73.4463V73.4829C59.2717 75.1402 60.3796 76.2482 61.7074 76.2482C63.0351 76.2482 64.1614 75.1586 64.1614 73.4829ZM56.4698 68.4649H59.3175V69.9025C60.0042 68.9686 60.9565 68.2819 62.4398 68.2819C64.775 68.2819 67 70.1039 67 73.4463V73.4829C67 76.825 64.8115 78.6472 62.44 78.6472C60.9199 78.6472 59.986 77.9605 59.3177 77.1639V81.4491H56.4698V68.4649ZM38.9986 72.9971L37.2589 68.7577L35.5192 72.9971H38.9986ZM36.0046 65.3054H38.5958L44.0623 78.4636H41.068L39.8594 75.5335H34.6677L33.468 78.4636H30.5287L36.0046 65.3054Z" fill="#211E1E"/>
<path d="M0 0V55.4439H25.941V22.1774H40.7657V55.4439H66.7067V0H0Z" fill="#0067C5"/>
</svg>
