<svg width="169" height="29" viewBox="0 0 169 29" fill="none" xmlns="http://www.w3.org/2000/svg">
<path d="M134.873 1.19205V11.4375H148.58C148.58 11.4727 148.568 1.1897 148.58 1.19205C148.568 1.1897 155.298 1.19205 155.368 1.19205C155.368 1.19205 155.392 26.7792 155.368 26.8086H148.58V15.5331C148.58 15.5683 134.873 15.5331 134.873 15.5331C134.884 15.5801 134.873 26.8168 134.873 26.8086H128.096C128.096 26.8086 128.131 1.19205 128.096 1.19205H134.873Z" fill="black"/>
<path d="M70.4734 1.19205V5.54721H60.0906V26.8086H53.3135V5.54721H42.9307C42.9307 5.54721 42.9424 1.20145 42.9307 1.19205C42.9424 1.20145 70.4734 1.19205 70.4734 1.19205Z" fill="black"/>
<path d="M80.7152 5.54552L75.9936 17.2004H85.4368L80.7152 5.54552ZM96.8415 26.8069H89.2893C89.3011 26.8069 87.0694 21.3019 87.0694 21.3019H74.3493C74.3493 21.3019 72.1646 26.8151 72.1411 26.8069C72.1411 26.8151 64.5771 26.8069 64.5771 26.8069L76.5574 1.19035C76.5574 1.2021 84.8731 1.19035 84.8731 1.19035L96.8415 26.8069Z" fill="black"/>
<path d="M160.748 26.806H167.537V1.18945H160.748V26.806Z" fill="black"/>
<path d="M7.84739 1.18619C7.84739 1.18619 7.83564 11.5068 7.84739 11.4316H21.5542C21.5542 11.4669 21.5307 1.18384 21.5542 1.18619C21.5307 1.18384 28.2725 1.18619 28.343 1.18619C28.343 1.18619 28.3665 26.7734 28.343 26.8027H21.5542V15.5272C21.5542 15.5625 7.84739 15.5272 7.84739 15.5272C7.84739 15.5742 7.83564 26.811 7.84739 26.8027H1.05859C1.05859 26.8027 1.09383 1.18619 1.05859 1.18619H7.84739Z" fill="black"/>
<path d="M33.7227 26.806H40.4997V1.18945H33.7227V26.806Z" fill="black"/>
<path d="M96.6075 19.7181C96.0085 17.9903 95.6914 16.1698 95.6914 14.253C95.6914 11.5621 96.1612 8.95584 97.4532 6.78531C98.7804 4.55722 100.824 2.83771 103.291 1.92392C105.628 1.04067 108.153 0.55559 110.808 0.55559C113.85 0.55559 116.727 1.22155 119.37 2.3585C121.813 3.41205 123.657 5.6143 124.209 8.27696C124.326 8.80315 124.409 9.35401 124.444 9.90369H117.326C117.303 9.21306 117.197 8.54123 116.962 7.934C116.422 6.51751 115.236 5.40993 113.779 4.973C112.84 4.6782 111.829 4.52551 110.808 4.52551C109.633 4.52551 108.494 4.724 107.448 5.1022C105.71 5.71296 104.359 7.12357 103.737 8.86305C103.138 10.5426 102.809 12.362 102.809 14.253C102.809 15.8222 103.067 17.3314 103.455 18.7514C103.972 20.6154 105.381 22.1176 107.167 22.8024C108.294 23.2252 109.527 23.4731 110.808 23.4731C111.9 23.4731 112.945 23.3086 113.944 22.9892C115.271 22.5616 116.351 21.5832 116.915 20.3253C117.279 19.4902 117.467 18.5647 117.467 17.5757H124.62C124.573 18.4132 124.456 19.2377 124.28 20.0082C123.657 22.544 121.883 24.6746 119.534 25.66C116.845 26.7841 113.908 27.4395 110.808 27.4395C108.412 27.4395 106.086 27.0636 103.925 26.3824C100.613 25.3417 97.7468 22.9574 96.6075 19.7181Z" fill="black"/>
</svg>
