<svg width="89" height="89" viewBox="0 0 89 89" fill="none" xmlns="http://www.w3.org/2000/svg">
<g clip-path="url(#clip0_109_480)">
<path d="M44.6239 0.000240377L35.0493 26.845L41.5579 26.847C46.2464 26.8484 48.2416 30.5451 46.7652 34.685L37.2449 61.3775H27.6649L38.1393 32.007H33.2068L22.7333 61.3775H13.0705L34.5623 1.11355C14.7704 5.6287 0 23.3382 0 44.4984C0 65.3292 14.313 82.8145 33.6402 87.6625L55.3535 26.6953H71.079C74.3315 26.6953 78.4222 28.8884 76.6544 33.8799L67.8254 58.8102C66.6976 61.9947 64.0168 62.64 61.8812 62.64H52.214L42.8378 88.9659C43.3899 88.9861 43.943 89 44.4996 89C69.0761 89 88.9996 69.077 88.9996 44.4991C88.9996 19.9631 69.1429 0.0667513 44.6225 0L44.6239 0.000240377ZM63.1492 31.935L54.0294 57.5354H58.8859L68.0075 31.935H63.1492Z" fill="#236DF8"/>
</g>
<defs>
<clipPath id="clip0_109_480">
<rect width="89" height="89" fill="white"/>
</clipPath>
</defs>
</svg>
