<svg width="162" height="39" viewBox="0 0 162 39" fill="none" xmlns="http://www.w3.org/2000/svg">
<path d="M161.119 1.71113C160.549 0.950626 159.978 0.38025 157.126 0.190125C156.366 0.190125 154.085 0 150.092 0C139.635 0 132.411 3.23209 128.798 9.50626C129.749 3.23236 123.665 0 110.356 0C94.766 0 84.8797 6.2739 80.8871 19.0125C79.3661 23.7656 79.3661 27.5681 80.5069 30.6101H76.7044C73.8526 30.8002 70.05 30.9903 67.5787 30.9903C61.8749 30.9903 58.2624 30.0397 56.9317 28.1385C55.791 26.4274 55.791 23.1953 57.312 18.4422C59.7836 10.6471 65.6776 7.22471 75.1834 7.22471C80.1266 7.22471 84.8797 7.79509 84.8797 7.79509C85.4501 7.79509 85.8304 7.03459 85.8304 6.46421L85.6402 5.89384L85.26 3.23212C85.0699 1.521 83.739 0.57041 81.4575 0.19016C79.3661 3.49171e-05 77.6551 3.49067e-05 75.3737 3.49067e-05H75.1835C62.8254 3.49067e-05 54.0797 4.18263 49.3266 12.1681C51.0377 3.99297 45.334 3.49067e-05 32.2153 3.49067e-05C24.8004 3.49067e-05 19.4771 0.19016 16.4352 0.57041C13.9636 0.950657 12.4426 1.90129 11.8721 3.61237L10.7313 7.03459C10.5412 7.60496 10.9215 7.98521 11.682 7.98521C12.2523 7.98521 14.5338 7.60497 18.3364 7.41484C23.4696 7.03459 27.082 6.84446 29.5538 6.84446C36.7783 6.84446 40.0107 8.74571 38.87 12.3582C38.6799 13.1187 38.1095 13.689 37.1589 13.8792C30.3145 15.0199 24.8008 15.7804 20.8082 16.3508C9.40071 17.8718 2.74633 21.2939 1.03551 26.9977C-1.43608 34.7927 4.64785 38.5952 19.2874 38.5952C26.512 38.5952 32.7863 38.215 37.7294 37.2644C40.5813 36.694 42.1025 36.1236 42.6726 34.2224L45.3344 25.4767C45.1442 34.2224 51.0381 38.5954 63.5863 38.5954C68.9096 38.5954 74.0432 38.4053 76.5146 38.0251C78.986 37.6448 80.317 37.0744 80.8876 35.1732L81.458 32.5115C84.1197 36.6941 90.0136 38.7854 98.9493 38.7854C108.456 38.7854 113.969 38.5953 115.49 38.0249C116.821 37.6447 117.581 36.8842 117.962 35.9335C117.962 35.7434 117.962 35.5533 118.152 35.3632L119.293 31.7508C119.483 31.1804 119.102 30.8002 118.342 30.8002L112.258 31.1804C108.266 31.3706 105.034 31.5607 102.752 31.5607C98.3788 31.5607 95.5273 31.1804 93.8161 30.6101C91.3445 29.6594 90.2038 27.9483 90.3939 25.0964L109.596 22.6248C118.152 21.484 124.046 18.8223 126.898 14.6397L120.243 36.8841C120.053 37.2644 120.243 37.6446 120.434 37.8348C120.624 38.0249 121.004 38.215 121.764 38.215H129.749C131.08 38.215 131.651 37.4545 131.841 36.8841L138.875 12.3583C139.826 9.12622 142.678 7.60518 148.001 7.60518C152.754 7.60518 156.176 7.60518 158.458 7.79531H158.648C159.028 7.79531 159.789 7.60518 160.359 6.65456L161.5 3.23234C161.5 2.66197 161.5 2.09159 161.12 1.71134L161.119 1.71113ZM32.9765 30.9901C30.5049 31.3703 26.8927 31.5605 22.3296 31.5605C14.1545 31.5605 10.732 29.8493 11.6827 26.6173C12.4432 24.3358 14.5345 22.8148 17.9566 22.4347L36.3985 19.9631L32.9765 30.9901ZM117.963 11.2174C117.202 13.689 113.59 15.4 107.126 16.3506L91.7257 18.442L92.1059 17.1111C93.4368 12.9285 95.1479 10.2667 97.4292 8.74552C99.7107 7.22452 103.513 6.46402 108.837 6.46402C115.871 6.65415 118.913 8.17515 117.962 11.2172L117.963 11.2174Z" fill="#83B81A"/>
</svg>
