<svg width="170" height="26" viewBox="0 0 170 26" fill="none" xmlns="http://www.w3.org/2000/svg">
<path d="M162.553 25.3585H169.867L162.32 0.448823L151.925 0.448399L144.377 25.3581H151.694L153.028 20.747H161.212L162.553 25.3581M154.611 15.2081L157.101 6.60193H157.143L159.633 15.2081H154.611ZM37.0155 25.8052C44.527 25.8052 48.1578 24.482 48.6722 17.7041C48.795 16.0914 48.8183 14.4356 48.8183 12.9007C48.8204 11.3711 48.795 9.71362 48.6722 8.10104C48.1578 1.32106 44.527 0 37.0155 0C29.5041 0 25.8754 1.32106 25.3631 8.10104C25.2382 9.71362 25.2128 11.3711 25.2128 12.9007C25.2149 14.4356 25.2382 16.0914 25.3631 17.7041C25.8754 24.482 29.5041 25.8052 37.0155 25.8052ZM32.2923 12.9007C32.2923 11.5328 32.3262 10.7243 32.3558 10.1243C32.5464 6.27949 34.0643 5.83131 37.0155 5.83131C39.9689 5.83131 41.4868 6.27949 41.6752 10.1243C41.7049 10.7241 41.7409 11.5326 41.7409 12.9007C41.7409 14.273 41.7049 15.083 41.6752 15.6815C41.4868 19.527 39.9689 19.976 37.0155 19.976C34.0643 19.976 32.5464 19.527 32.3558 15.6815C32.3262 15.083 32.2923 14.273 32.2923 12.9007ZM0.5 0.459832V6.66946H7.94622V25.3691H15.3952V6.66946H22.8416V0.459832H0.5ZM114.791 25.3585V0.448399H107.722V25.3585H114.791ZM86.3479 9.5432V0.448399H79.3192V25.3585H86.3479V15.7528H94.5156V25.3585H101.542V0.448399H94.5156V9.5432H86.3479ZM138.041 12.339C141.172 11.5386 142.091 9.66811 142.091 6.96458C142.091 1.49001 138.646 0.448188 133.75 0.448188H121.058V25.3578H134.378C140.512 25.3578 142.574 22.7157 142.574 18.652C142.574 15.8187 141.926 13.3188 138.041 12.3384M128.084 15.1264H132.958C134.927 15.1264 135.337 15.9889 135.337 17.3917C135.337 18.7957 134.567 19.6606 132.958 19.6606H128.084V15.1264ZM128.084 6.14464H132.958C134.23 6.14464 135.018 6.74822 135.018 8.19991C135.018 9.44433 134.239 10.2103 132.958 10.2103H128.084V6.14464ZM52.9149 17.1838H59.6155C59.6218 18.3922 59.7764 19.1999 60.3628 19.6459C61.0297 20.1485 61.6267 20.3145 63.6062 20.3145C65.5115 20.3145 67.599 20.3145 67.599 17.9677C67.599 16.117 66.4325 15.6946 64.2794 15.5799C58.9401 15.297 57.0093 15.1461 55.0214 13.6692C53.6664 12.6621 52.9636 10.7015 52.9636 8.05002C52.9636 3.54125 54.5366 1.95958 56.8061 0.855939C59.1476 -0.283266 68.3379 -0.283266 70.8106 0.855939C73.9206 2.28878 74.0117 5.39074 74.0117 8.26808H67.328C67.3153 6.80115 66.985 6.38683 66.7162 6.11394C66.0218 5.49829 65.0331 5.3683 63.6062 5.3683C61.8786 5.3683 59.8801 5.44621 59.8801 7.54403C59.8801 9.14455 60.5724 9.81355 62.3888 9.93126C64.8849 10.0909 69.8029 10.2482 71.5558 11.2826C74.0138 12.7364 74.651 14.7036 74.651 17.9131C74.651 22.5512 72.9912 23.9125 70.6815 24.9329C68.0161 26.11 59.1137 26.11 56.2196 24.8419C52.9805 23.4298 52.9149 20.6154 52.9149 17.1838Z" fill="#FF0000"/>
</svg>
