<svg width="126" height="51" viewBox="0 0 126 51" fill="none" xmlns="http://www.w3.org/2000/svg">
<path d="M0.5 46.651H24.8073V50.1302H0.5V46.651ZM0.5 39.974H24.8073V43.4635H0.5V39.974ZM7.42708 33.3125H17.8594V36.8073H7.42708V33.3125ZM7.42708 26.6563H17.8594V30.1458H7.42708V26.6563ZM7.42708 19.9896H17.8594V23.4844H7.42708V19.9896ZM7.42708 13.3177H17.8594V16.8125H7.42708V13.3177ZM0.5 6.66146H24.8073V10.151H0.5V6.66146ZM0.5 4.58236e-06H24.8073V3.48959H0.5V4.58236e-06ZM28.2708 43.4635H65.651C66.276 42.3906 66.7552 41.2083 67.0417 39.974H28.276V43.4635H28.2708ZM62.7396 26.6563H35.224V30.1458H65.6562C64.8853 28.8313 63.9034 27.6523 62.75 26.6563H62.7396ZM35.2188 19.9896V23.4844H62.7448C63.9063 22.5052 64.8802 21.3281 65.6562 19.9896H35.2188ZM65.651 6.66146H28.2708V10.151H67.0365C66.7221 8.93461 66.2566 7.7623 65.651 6.66146ZM54.1615 4.58236e-06H28.2708V3.48959H63.0885C60.6586 1.24348 57.4705 -0.00275777 54.1615 4.58236e-06ZM35.2188 13.3177H45.6354V16.8125H35.2188V13.3177ZM56.0573 16.8125H66.9531C67.2604 15.6979 67.4219 14.5208 67.4219 13.3177H56.0573V16.8125ZM35.2188 33.3125H45.6302V36.8073H35.2135L35.2188 33.3125ZM56.0573 33.3125V36.8073H67.4219C67.4219 35.6094 67.2604 34.4271 66.9531 33.3125H56.0573ZM28.2708 50.1042L54.1562 50.1406C57.6302 50.1406 60.7604 48.8021 63.099 46.651H28.2708V50.1042ZM69.9479 46.651H87.3021V50.1302H69.9479V46.651ZM69.9479 39.974H87.3021V43.4635H69.9479V39.974ZM76.8802 33.3125H87.2969V36.8073H76.8802V33.3125ZM76.8802 26.6563H87.2969V30.1458H76.8802V26.6563ZM92.1354 6.66146H69.9479V10.151H93.3333L92.1354 6.66146ZM89.8333 4.58236e-06H69.9479V3.48438H91.0312L89.8333 4.58236e-06ZM108.13 46.651H125.5V50.1302H108.13V46.651ZM108.13 39.974H125.5V43.4635H108.13V39.974ZM108.13 33.3125H118.547V36.8073H108.13V33.3125ZM108.13 26.6563H118.547V30.1458H108.13V26.6563ZM108.13 23.4844H118.547V19.9896H98.6979L97.7188 22.8125L96.7396 19.9896H76.8802V23.4844H87.2969V20.276L88.4063 23.4844H107.026L108.13 20.276V23.4844ZM118.552 13.3177H101L99.8021 16.8125H118.552V13.3177ZM105.62 4.58236e-06L104.417 3.48438H125.5V4.58236e-06H105.62ZM97.7188 50.1042L98.9167 46.651H96.5156L97.7188 50.1042ZM95.4167 43.4635H100.021L101.26 39.974H94.1927L95.4167 43.4635ZM93.0781 36.8073H102.359L103.583 33.3125H91.849L93.0781 36.8073ZM90.7448 30.1458H104.698L105.891 26.6563H89.5469L90.7448 30.1458ZM76.8802 16.8125H95.6406L94.4375 13.3177H76.8802V16.8125ZM102.115 10.151H125.5V6.66146H103.302L102.115 10.151Z" fill="#236DF8"/>
</svg>
