<svg width="162" height="34" viewBox="0 0 162 34" fill="none" xmlns="http://www.w3.org/2000/svg">
<path d="M67.9792 7.12791C65.0721 7.12791 61.7659 8.47543 59.7457 11.1737L59.747 11.1682L59.7457 11.1695L59.747 7.55171H52.8133V32.802H59.7457V18.434C59.7457 15.8483 61.7509 13.0995 65.463 13.0995C68.3317 13.0995 71.3006 15.095 71.3006 18.434V32.802H78.2344V17.1493C78.2344 11.3419 74.0793 7.12791 67.9792 7.12791ZM127.514 7.55269L121.246 24.7527L114.978 7.55269H107.057L117.447 32.7949H125.044L135.434 7.55269H127.514ZM32.1136 15.1594C33.2942 13.5738 35.1752 12.6432 37.4467 12.6432C39.9453 12.6432 41.8409 14.0701 42.8212 16.1761L30.7072 21.2019C30.3764 18.6227 31.0363 16.6054 32.1136 15.1594ZM45.4343 25.0386C42.5161 27.1983 40.8489 27.7135 38.1877 27.7135C35.7928 27.7135 33.9177 26.9699 32.5959 25.666L50.3222 18.3127C49.9351 15.5721 48.895 13.1243 47.2947 11.2625C44.9656 8.55772 41.5182 7.12661 37.3212 7.12661C29.6973 7.12661 23.9481 12.7512 23.9481 20.1796C23.9481 27.801 29.7106 33.2314 38.0852 33.2314C42.7773 33.2314 47.5748 31.0076 49.819 28.4092L45.4343 25.0386ZM23.2872 26.4352H7.52838V0H0.5V32.8017H23.2872V26.4352ZM147.884 13.0683C144.012 13.0683 141.2 16.0028 141.2 20.177C141.2 24.1627 144.178 27.2858 147.977 27.2858C151.85 27.2858 154.661 24.2707 154.661 20.177C154.661 16.1914 151.684 13.0683 147.884 13.0683ZM147.884 33.2275C140.301 33.2275 134.359 27.5782 134.359 20.177C134.359 12.8592 140.342 7.12693 147.977 7.12693C155.56 7.12693 161.5 12.7759 161.5 20.177C161.5 27.4936 155.519 33.2275 147.884 33.2275ZM94.5006 13.0683C90.6284 13.0683 87.8183 16.0028 87.8183 20.177C87.8183 24.1627 90.7953 27.2858 94.5949 27.2858C98.467 27.2858 101.277 24.2707 101.277 20.177C101.277 16.1914 98.3002 13.0683 94.5006 13.0683ZM94.5006 33.2275C86.9176 33.2275 80.9776 27.5782 80.9776 20.177C80.9776 12.8592 86.9586 7.12693 94.5949 7.12693C102.177 7.12693 108.118 12.7759 108.118 20.177C108.118 27.4936 102.136 33.2275 94.5006 33.2275Z" fill="#E60012"/>
</svg>
