<svg width="64" height="65" viewBox="0 0 64 65" fill="none" xmlns="http://www.w3.org/2000/svg">
<path d="M58.5104 14.6303L62.4202 10.7205L55.2193 9.28031L53.7791 2.07922L49.869 5.98916C28.8145 -8.31432 -0.0893437 7.02483 0.00610278 32.5109C-0.348448 49.7013 14.7972 64.8497 31.9892 64.4934C57.475 64.5874 72.8148 35.6838 58.5104 14.6303ZM52.0341 12.4654L54.8183 13.0222L51.3437 16.4968L48.5596 15.94L48.0028 13.1558L51.4774 9.68121L52.0341 12.4654ZM37.2018 32.5107C36.9154 39.4262 27.0613 39.4244 26.776 32.5107C26.7292 28.792 30.739 26.1958 34.1032 27.7462L30.6638 31.1857L33.3139 33.8358L36.7534 30.3964C37.0415 31.0427 37.2018 31.7583 37.2018 32.5107ZM36.8581 24.9913C31.0118 21.129 22.9847 25.455 23.0281 32.5107C23.0281 37.4516 27.0478 41.4714 31.9888 41.4714C39.0446 41.514 43.3708 33.4876 39.5081 27.6414L44.933 22.2164C53.5257 32.8324 45.7692 49.1224 31.9886 49.056C22.8655 49.0561 15.4433 41.6338 15.4433 32.5107C15.379 18.7294 31.6672 10.9731 42.283 19.5663L36.8581 24.9913ZM51.954 52.4758C34.2107 70.1808 3.77861 57.5707 3.754 32.5104C3.65943 10.344 28.5477 -3.27227 47.1633 8.69489L43.9344 11.9238L44.927 16.8879C31.9746 5.97679 11.6197 15.4158 11.6957 32.5109C11.6955 43.7005 20.7991 52.804 31.9889 52.804C49.0847 52.8778 58.5231 32.5249 47.6115 19.5724L52.5755 20.5652L55.8046 17.3362C62.9035 28.1029 61.2516 43.4824 51.954 52.4758Z" fill="#236DF8"/>
</svg>
