<svg width="64" height="65" viewBox="0 0 64 65" fill="none" xmlns="http://www.w3.org/2000/svg">
<path d="M62.125 30.625H58.935C58.4916 24.119 55.747 18.0632 51.0919 13.4081C46.4367 8.753 40.3809 6.00838 33.875 5.565V2.375C33.875 1.3395 33.0355 0.5 32 0.5C30.9645 0.5 30.125 1.3395 30.125 2.375V5.565C23.619 6.00838 17.5632 8.753 12.9081 13.4081C8.253 18.0632 5.50838 24.119 5.065 30.625H1.875C0.8395 30.625 0 31.4645 0 32.5C0 33.5355 0.8395 34.375 1.875 34.375H5.065C5.50838 40.881 8.253 46.9367 12.9081 51.5919C17.5632 56.247 23.619 58.9916 30.125 59.435V62.625C30.125 63.6605 30.9645 64.5 32 64.5C33.0355 64.5 33.875 63.6605 33.875 62.625V59.435C40.3809 58.9916 46.4367 56.247 51.0919 51.5919C55.747 46.9367 58.4916 40.881 58.935 34.375H62.125C63.1605 34.375 64 33.5355 64 32.5C64 31.4645 63.1605 30.625 62.125 30.625ZM55.1741 30.625H51.4094C50.5219 21.3664 43.1335 13.978 33.8749 13.0905V9.32588C45.2029 10.2341 54.2659 19.2971 55.1741 30.625ZM44.625 34.375H47.6379C46.7812 41.5639 41.0639 47.2812 33.875 48.138V45.125C33.875 44.0895 33.0355 43.25 32 43.25C30.9645 43.25 30.125 44.0895 30.125 45.125V48.138C22.9361 47.2812 17.2188 41.5639 16.3621 34.375H19.375C20.4105 34.375 21.25 33.5355 21.25 32.5C21.25 31.4645 20.4105 30.625 19.375 30.625H16.3621C17.2188 23.4361 22.9361 17.7188 30.125 16.862V19.875C30.125 20.9105 30.9645 21.75 32 21.75C33.0355 21.75 33.875 20.9105 33.875 19.875V16.862C41.0639 17.7188 46.7812 23.4361 47.6379 30.625H44.625C43.5895 30.625 42.75 31.4645 42.75 32.5C42.75 33.5355 43.5895 34.375 44.625 34.375ZM30.125 9.32588V13.0906C20.8664 13.9781 13.478 21.3665 12.5905 30.6251H8.82588C9.73413 19.2971 18.7971 10.2341 30.125 9.32588ZM8.82588 34.375H12.5906C13.4781 43.6336 20.8665 51.022 30.1251 51.9095V55.6743C18.7971 54.7659 9.73413 45.7029 8.82588 34.375ZM33.875 55.6741V51.9094C43.1336 51.0219 50.522 43.6335 51.4095 34.3749H55.1743C54.2659 45.7029 45.2029 54.7659 33.875 55.6741Z" fill="#236DF8"/>
</svg>
