<svg width="64" height="65" viewBox="0 0 64 65" fill="none" xmlns="http://www.w3.org/2000/svg">
<g clip-path="url(#clip0_147_9248)">
<path d="M62.9795 31.2725C62.8408 31.1123 59.5186 27.3052 54.0747 23.4673C46.7969 18.3369 39.1636 15.625 32 15.625C24.8364 15.625 17.2031 18.3369 9.92529 23.4673C4.48145 27.3052 1.15918 31.1123 1.02051 31.2725L0 32.5L1.02051 33.7275C1.15918 33.8877 4.48145 37.6948 9.92529 41.5327C17.2031 46.6631 24.8364 49.375 32 49.375C39.1636 49.375 46.7969 46.6631 54.0747 41.5327C59.5186 37.6948 62.8408 33.8877 62.9795 33.7275L64 32.5L62.9795 31.2725ZM45.125 32.5C45.125 39.6133 39.4365 45.4229 32.3701 45.6196C32.2466 45.6211 32.1235 45.625 32 45.625C31.8765 45.625 31.7534 45.6211 31.6299 45.6196C24.5635 45.4229 18.875 39.6133 18.875 32.5C18.875 25.2637 24.7627 19.375 32 19.375C39.2314 19.375 45.125 25.2578 45.125 32.5ZM5.01611 32.5C6.37744 31.126 8.87207 28.7891 12.1636 26.478C13.8359 25.3037 15.8472 24.0483 18.1133 22.9238C16.23 25.6465 15.125 28.9463 15.125 32.5C15.125 36.0537 16.23 39.3535 18.1133 42.0757C15.8472 40.9517 13.8359 39.6963 12.1636 38.522C8.87158 36.2104 6.37744 33.8735 5.01611 32.5ZM51.8364 38.522C50.1641 39.6963 48.1528 40.9517 45.8867 42.0757C47.77 39.3535 48.875 36.0537 48.875 32.5C48.875 28.9463 47.77 25.6465 45.8867 22.9243C48.1528 24.0483 50.1641 25.3037 51.8364 26.478C55.1279 28.7891 57.6226 31.126 58.9839 32.5C57.6226 33.874 55.1279 36.2109 51.8364 38.522Z" fill="#236DF8"/>
<path d="M22.625 32.5C22.625 37.6694 26.8306 41.875 32 41.875C37.1694 41.875 41.375 37.6694 41.375 32.5C41.375 27.3306 37.1694 23.125 32 23.125C26.8306 23.125 22.625 27.3306 22.625 32.5ZM37.625 32.5C37.625 35.6016 35.1016 38.125 32 38.125C28.8984 38.125 26.375 35.6016 26.375 32.5C26.375 29.3984 28.8984 26.875 32 26.875C35.1016 26.875 37.625 29.3984 37.625 32.5Z" fill="#236DF8"/>
<path d="M32.001 35.1499L29.3496 32.4985L32.001 29.8467L34.6528 32.4985L32.001 35.1499Z" fill="#236DF8"/>
<path d="M30.125 0.5H33.875V8H30.125V0.5Z" fill="#236DF8"/>
<path d="M30.125 57H33.875V64.5H30.125V57Z" fill="#236DF8"/>
<path d="M10.7861 8.63574L16.0898 13.939L13.438 16.5903L8.13477 11.2871L10.7861 8.63574Z" fill="#236DF8"/>
<path d="M53.2134 56.3643L47.9102 51.061L50.562 48.4092L55.8652 53.7124L53.2134 56.3643Z" fill="#236DF8"/>
<path d="M53.2134 8.63574L55.8647 11.2871L50.5615 16.5903L47.9102 13.939L53.2134 8.63574Z" fill="#236DF8"/>
<path d="M10.7861 56.3643L8.13477 53.7124L13.438 48.4092L16.0894 51.061L10.7861 56.3643Z" fill="#236DF8"/>
</g>
<defs>
<clipPath id="clip0_147_9248">
<rect width="64" height="64" fill="white" transform="translate(0 0.5)"/>
</clipPath>
</defs>
</svg>
