<svg width="431" height="430" viewBox="0 0 431 430" fill="none" xmlns="http://www.w3.org/2000/svg">
<path fill-rule="evenodd" clip-rule="evenodd" d="M201.387 0.423525C165.709 3.17653 129.722 14.6965 102.681 32.0205C89.376 40.5435 86.464 45.9135 90.517 54.4525C96.889 67.8815 128.327 79.5685 169.887 83.9595C185.723 85.6325 224.556 85.6295 240.887 83.9545C291.784 78.7325 330.323 64.3375 336.466 48.2525C338.089 44.0045 338.094 43.4785 336.551 40.2415C332.354 31.4415 292.264 12.3075 264.499 5.85253C246.48 1.66253 217.561 -0.824475 201.387 0.423525ZM66.934 59.4575C57.565 68.2725 45.252 82.6355 41.333 89.3235C38.072 94.8865 38.378 99.9085 42.468 107.981C60.553 143.67 162.822 171.128 261.273 166.727C310.408 164.53 349.235 154.041 372.093 136.789C390.052 123.234 396.51 105.375 388.928 90.2305C385.896 84.1745 374.877 70.9655 364.002 60.3515L357.887 54.3835V58.7005C357.887 69.9445 346.447 81.3065 322.358 93.9885C297.14 107.265 262.031 117.072 220.387 122.472C200.182 125.092 142.733 125.135 128.887 122.541C98.659 116.878 80.425 106.669 71.844 90.6015C68.956 85.1945 68.431 83.1165 68.071 75.6675C67.695 67.9135 67.928 66.4095 70.316 61.1945C71.781 57.9935 73.704 54.5755 74.589 53.5975C78.443 49.3385 74.404 52.4315 66.934 59.4575ZM407.395 124.429C404.478 142.283 389.407 157.148 359.387 171.78C323.636 189.207 274.775 202.185 217.387 209.497C195.636 212.269 151.268 212.028 131.973 209.034C73.77 200.001 32.762 177.595 21.771 148.821C19.638 143.237 18.818 131.139 20.212 125.821C20.572 124.446 19.722 125.76 18.322 128.74C14.531 136.815 8.253 155.572 6.299 164.665L4.579 172.671L7.4 178.496C11.105 186.144 23.795 198.875 34.887 206.069C67.281 227.083 111.982 240.272 173.534 246.978C191.891 248.978 199.594 249.254 237.887 249.286C283.873 249.323 294.27 248.632 321.887 243.702C373.102 234.558 406.942 216.621 419.061 192.193C424.344 181.544 425.196 171.864 422.021 158.588C419.877 149.621 414.691 134.913 410.435 125.727L408.031 120.538L407.395 124.429ZM426.472 210.121C411.396 242.183 328.271 280.411 242.387 294.781C210.129 300.178 169.381 302.289 144.177 299.869C94.235 295.074 56.563 280.825 28.636 256.165C18.188 246.939 10.738 237.305 4.879 225.444L0 215.566L0.534 224.944C1.357 239.391 3.676 253.754 5.942 258.435C12.853 272.711 33.96 289.82 62.011 303.884C93.291 319.567 126.59 328.924 170.887 334.478C191.502 337.062 258.39 337.083 280.387 334.512C329.797 328.736 364.996 318.112 391.345 301.022C395.218 298.51 402.442 292.374 407.398 287.388C420.18 274.528 423.917 266.746 427.362 245.82C428.799 237.087 430.731 203.755 429.793 203.871C429.57 203.899 428.075 206.711 426.472 210.121ZM411.31 297.932C407.209 303.85 393.898 315.911 383.952 322.72C349.235 346.489 297.503 362.497 234.387 369.001C216.104 370.885 168.236 370.602 152.708 368.519C110.016 362.789 75.561 351.313 49.749 334.224C45.7 331.544 37.805 324.809 32.205 319.258C21.208 308.358 20.812 309.404 30.669 323.321C52.441 354.062 96.803 377.988 151.071 388.257C224.29 402.112 297.074 395.277 347.531 369.807C376.035 355.419 392.773 338.926 406.381 311.821C411.755 301.117 415.034 293.821 414.472 293.821C414.3 293.821 412.877 295.671 411.31 297.932ZM343.387 383.406C320.379 395.798 291.755 404.512 257.887 409.433C243.385 411.54 199.572 412.39 182.699 410.891C167.127 409.508 147.894 406.583 135.887 403.772C119.578 399.953 94.318 390.746 86.926 385.926C85.507 385.001 84.787 384.845 85.226 385.558C86.735 388.006 106.652 400.417 119.387 406.846C139.078 416.785 160.095 423.398 184.887 427.457C199.247 429.808 230.234 429.775 245.387 427.394C278.349 422.213 308.409 410.606 334.387 393.029C344.778 385.998 355.428 377.767 353.887 377.958C353.612 377.992 348.887 380.444 343.387 383.406Z" fill="url(#paint0_linear_109_323)"/>
<defs>
<linearGradient id="paint0_linear_109_323" x1="430.04" y1="214.342" x2="-5.37555" y2="214.342" gradientUnits="userSpaceOnUse">
<stop stop-color="#2A77F7"/>
<stop offset="1" stop-color="#1243AA"/>
</linearGradient>
</defs>
</svg>
