<svg width="200" height="104" viewBox="0 0 200 104" fill="none" xmlns="http://www.w3.org/2000/svg">
<path d="M98.9727 67.5713L75.2646 53.8919V26.533L98.9727 12.8535L122.681 26.533V53.8919L98.9727 67.5713ZM118.865 51.7054V28.7475L98.9727 17.2825L79.0804 28.7475V51.7054L98.9727 63.1703L118.865 51.7054Z" fill="#762B8A"/>
<path d="M102.702 52.8548V49.0425L115.019 41.8664V38.0541L102.702 45.1461V41.3338L115.047 34.2698V30.9621L98.9709 21.6836L82.8662 30.9621V49.491L98.9709 58.7695L115.047 49.491V45.6787L102.702 52.8548Z" fill="url(#paint0_linear_906_4195)"/>
<path d="M34.9477 90.67H16.374V73.3464H34.3304V77.1587H20.4984V79.7657H30.1219V83.578H20.4984V86.8577H34.9477V90.67ZM40.5029 73.3464V90.67H44.6273V77.8595L55.0925 90.67H60.5355V73.3464H56.4112V86.1849L45.946 73.3464H40.5029ZM65.4174 73.3464V77.1587H73.2453V90.67H77.3696V77.1587H85.1975V73.3464H65.4174ZM164.935 73.3464V77.1587H172.763V90.67H176.887V77.1587H184.715V73.3464H164.935ZM103.799 73.3464C105.679 73.3464 107.166 73.851 108.288 74.8882C109.411 75.9253 109.944 77.2989 109.944 79.0088C109.944 81.7559 108.681 83.4939 106.156 84.2788L110.729 90.67H105.932L101.639 84.6432H94.2038V90.67H90.0794V73.3464H103.799ZM94.2038 77.1587V80.8309H103.07C105.539 80.8309 105.735 79.9619 105.735 78.9808C105.735 77.8595 105.034 77.1587 103.182 77.1587H94.2038ZM126.076 87.3342C131.435 87.3342 131.94 85.5122 131.94 83.9144V73.3464H136.065V84.8114C136.065 88.904 131.66 91.1465 126.076 91.1465C120.493 91.1465 116.088 88.904 116.088 84.8114V73.3464H120.212V83.9144C120.212 85.4841 120.717 87.3342 126.076 87.3342ZM158.23 78.3921L160.811 75.6731C157.332 72.8979 152.927 72.982 151.692 72.8979C150.486 72.8138 142.293 72.6456 141.928 78.1959C141.676 81.9521 145.267 83.1855 151.075 83.3257C156.855 83.4659 157.107 84.475 157.107 85.0917C157.107 85.7644 156.378 87.3062 151.187 87.2221C147.82 87.166 144.959 85.9887 143.387 84.6712L141.087 87.6986C143.808 89.8571 147.259 90.9223 151.58 90.9223C156.771 90.9223 161.232 89.5768 161.456 85.344C161.737 80.4104 156.686 79.8217 152.113 79.4573C147.68 79.0929 146.277 78.9808 146.277 77.8876C146.305 76.6822 149.644 76.514 151.973 76.6542C154.666 76.8224 156.686 77.4951 158.23 78.3921Z" fill="#3F454F"/>
<defs>
<linearGradient id="paint0_linear_906_4195" x1="98.9596" y1="21.6672" x2="98.9596" y2="58.7716" gradientUnits="userSpaceOnUse">
<stop offset="0.2" stop-color="#C6168D"/>
<stop offset="0.8" stop-color="#762B8A"/>
</linearGradient>
</defs>
</svg>
