<svg width="200" height="104" viewBox="0 0 200 104" fill="none" xmlns="http://www.w3.org/2000/svg">
<path d="M121.525 69.9154H143.754V7.48193H121.525V69.9154ZM92.0184 7.48193L77.5928 65.7226L63.1671 7.48193H40.9385L56.4133 69.9809H98.8379L114.313 7.48193H92.0184Z" fill="#EB2F3B"/>
<path d="M144.739 89.3049C144.739 95.9872 139.296 101.425 132.608 101.425C125.92 101.425 120.478 95.9872 120.478 89.3049C120.478 82.6226 125.92 77.1851 132.608 77.1851C139.296 77.1851 144.739 82.6226 144.739 89.3049Z" fill="#FBD313"/>
<path d="M148.874 10.5049V5.47914H146.996V4.80671H151.513V5.47914H149.628V10.5049H148.874ZM152.267 10.5049V4.80671H153.402L154.75 8.8413C154.875 9.21703 154.966 9.49818 155.023 9.68475C155.087 9.47745 155.188 9.17298 155.326 8.77133L156.69 4.80671H157.705V10.5049H156.978V5.73567L155.322 10.5049H154.642L152.994 5.65405V10.5049H152.267Z" fill="#EB2F3B"/>
</svg>
