<svg width="200" height="104" viewBox="0 0 200 104" fill="none" xmlns="http://www.w3.org/2000/svg">
<path d="M58.9412 56.8951L49.124 85.103H54.8567L56.8631 78.8027H66.5369L68.4717 85.103H74.4193L64.8171 56.8951M58.4396 74.2207L61.8075 63.8397H61.8791L65.1754 74.2207C65.1038 74.2207 58.4396 74.2207 58.4396 74.2207ZM92.2621 67.491C91.5455 66.4886 90.6857 65.7011 89.6108 65.0568C88.5359 64.484 87.2461 64.126 85.8129 64.126C84.6664 64.126 83.5915 64.3408 82.5883 64.842C81.5851 65.3431 80.7969 66.1307 80.2236 67.2762H80.1519V64.6988H75.2792V100.496H80.4386V82.5972H80.5102C81.1551 83.5995 81.9434 84.387 82.9466 84.8882C83.9498 85.3894 85.0247 85.6757 86.1712 85.6757C87.5327 85.6757 88.7509 85.3894 89.7541 84.8166C90.7573 84.2439 91.6172 83.4563 92.3338 82.454C93.0504 81.4517 93.552 80.3778 93.9103 79.0891C94.2686 77.8004 94.4119 76.5117 94.4119 75.1515C94.4119 73.7196 94.2686 72.2877 93.9103 70.999C93.4803 69.6388 92.9787 68.4933 92.2621 67.491ZM88.9659 77.3709C88.8226 78.1584 88.6076 78.8743 88.2493 79.4471C87.891 80.0198 87.461 80.521 86.8878 80.879C86.3145 81.2369 85.5979 81.4517 84.738 81.4517C83.9498 81.4517 83.2332 81.2369 82.66 80.879C82.0867 80.521 81.5851 80.0198 81.2268 79.4471C80.8685 78.8743 80.6535 78.1584 80.4386 77.3709C80.2952 76.5833 80.2236 75.7958 80.2236 74.9367C80.2236 74.0776 80.2952 73.29 80.4386 72.5025C80.5819 71.715 80.8685 70.999 81.1551 70.4263C81.5134 69.8535 81.9434 69.3524 82.5166 68.9228C83.0899 68.5649 83.8065 68.3501 84.6664 68.3501C85.4546 68.3501 86.1712 68.5649 86.7445 68.9228C87.3177 69.2808 87.7477 69.7819 88.1776 70.4263C88.5359 71.0706 88.8226 71.715 88.9659 72.5025C89.1092 73.29 89.1808 74.0776 89.1808 74.9367C89.1808 75.7958 89.1092 76.5833 88.9659 77.3709ZM112.183 67.133C111.323 66.2023 110.32 65.4863 109.102 64.9852C107.884 64.484 106.594 64.1976 105.089 64.1976C103.584 64.1976 102.294 64.484 101.076 64.9852C99.8579 65.4863 98.8547 66.2023 97.9948 67.133C97.1349 68.0637 96.49 69.2092 96.06 70.4979C95.6301 71.8582 95.3434 73.29 95.3434 74.9367C95.3434 76.5833 95.5584 78.0152 96.06 79.3755C96.49 80.6642 97.1349 81.8097 97.9948 82.7404C98.8547 83.6711 99.8579 84.387 101.076 84.8882C102.294 85.3894 103.584 85.6041 105.089 85.6041C106.594 85.6041 107.884 85.3894 109.102 84.8882C110.32 84.387 111.323 83.6711 112.183 82.7404C113.043 81.8097 113.688 80.6642 114.118 79.3755C114.548 78.0868 114.834 76.5833 114.834 74.9367C114.834 73.29 114.619 71.7866 114.118 70.4979C113.688 69.1376 113.043 68.0637 112.183 67.133ZM109.46 77.2993C109.317 78.0868 109.102 78.8027 108.743 79.3755C108.385 80.0198 107.884 80.521 107.31 80.879C106.737 81.2369 106.02 81.4517 105.089 81.4517C104.229 81.4517 103.512 81.2369 102.939 80.879C102.366 80.521 101.864 80.0198 101.578 79.3755C101.219 78.7311 101.004 78.0868 100.861 77.2993C100.718 76.5117 100.646 75.7242 100.646 74.9367C100.646 74.1492 100.718 73.29 100.861 72.5025C101.004 71.715 101.219 70.999 101.578 70.4263C101.936 69.8535 102.366 69.3524 102.939 68.9228C103.512 68.5649 104.229 68.3501 105.089 68.3501C105.949 68.3501 106.665 68.5649 107.31 68.9228C107.884 69.2808 108.385 69.7819 108.743 70.4263C109.102 70.999 109.317 71.715 109.46 72.5025C109.603 73.29 109.675 74.0776 109.675 74.9367C109.675 75.7242 109.603 76.5833 109.46 77.2993ZM116.339 85.103H121.499V56.8951H116.339V85.103ZM124.795 85.103H129.954V56.8951H124.795V85.103ZM150.162 70.4979C149.732 69.1376 149.015 68.0637 148.227 67.133C147.367 66.2023 146.364 65.4863 145.146 64.9852C143.928 64.484 142.638 64.1976 141.133 64.1976C139.628 64.1976 138.338 64.484 137.12 64.9852C135.902 65.4863 134.899 66.2023 134.039 67.133C133.179 68.0637 132.534 69.2092 132.104 70.4979C131.674 71.8582 131.387 73.29 131.387 74.9367C131.387 76.5833 131.602 78.0152 132.104 79.3755C132.534 80.6642 133.25 81.8097 134.039 82.7404C134.899 83.6711 135.902 84.387 137.12 84.8882C138.338 85.3894 139.628 85.6041 141.133 85.6041C142.638 85.6041 143.928 85.3894 145.146 84.8882C146.364 84.387 147.367 83.6711 148.227 82.7404C149.087 81.8097 149.732 80.6642 150.162 79.3755C150.592 78.0868 150.878 76.5833 150.878 74.9367C150.878 73.29 150.663 71.7866 150.162 70.4979ZM145.504 77.2993C145.361 78.0868 145.074 78.8027 144.787 79.3755C144.429 80.0198 143.999 80.521 143.354 80.879C142.781 81.2369 142.064 81.4517 141.133 81.4517C140.273 81.4517 139.556 81.2369 138.983 80.879C138.41 80.521 137.908 80.0198 137.55 79.3755C137.192 78.7311 136.977 78.0868 136.833 77.2993C136.69 76.5117 136.618 75.7242 136.618 74.9367C136.618 74.1492 136.69 73.29 136.833 72.5025C136.977 71.715 137.192 70.999 137.55 70.4263C137.908 69.8535 138.338 69.3524 138.983 68.9228C139.556 68.5649 140.273 68.3501 141.133 68.3501C141.993 68.3501 142.709 68.5649 143.354 68.9228C143.928 69.2808 144.429 69.7819 144.787 70.4263C145.146 70.999 145.361 71.715 145.504 72.5025C145.647 73.29 145.719 74.0776 145.719 74.9367C145.719 75.7242 145.647 76.5833 145.504 77.2993Z" fill="#2582A1"/>
<path d="M89.9682 94.9828H86.027V91.5463H84.9521V99.8512H86.027V95.9851H89.9682V99.8512H91.0431V91.5463H89.9682M96.7041 91.3316C95.4142 91.3316 94.4827 91.8327 93.7661 92.9066C93.2645 93.6941 92.9778 94.6249 92.9778 95.7704C92.9778 96.9875 93.2645 98.0614 93.9094 98.8489C94.5543 99.708 95.4859 100.138 96.7041 100.138C97.9222 100.138 98.9255 99.6364 99.5704 98.7057C100.144 97.9182 100.43 96.8443 100.43 95.6272C100.43 94.4817 100.215 93.551 99.642 92.835C99.0688 91.7611 98.0656 91.3316 96.7041 91.3316ZM98.7821 97.9898C98.3522 98.7057 97.7073 99.0637 96.7757 99.0637C95.8442 99.0637 95.1276 98.7773 94.6976 98.133C94.2677 97.4886 94.0527 96.7011 94.0527 95.842C94.0527 94.6965 94.2677 93.8373 94.7693 93.2646C95.2709 92.6918 95.9158 92.4055 96.7041 92.4055C97.4923 92.4055 98.1372 92.6918 98.6388 93.2646C99.1404 93.8373 99.3554 94.6249 99.3554 95.6272C99.4271 96.4863 99.2121 97.2738 98.7821 97.9898ZM107.453 95.842C107.166 95.6272 106.808 95.4124 106.306 95.3408L105.303 95.0544C104.586 94.8396 104.156 94.6965 103.942 94.6249C103.655 94.4101 103.512 94.1237 103.512 93.7657C103.512 93.4078 103.655 93.0498 103.87 92.7634C104.156 92.4771 104.515 92.3339 105.16 92.3339C105.876 92.3339 106.378 92.5487 106.665 92.9782C106.808 93.193 106.951 93.551 106.951 93.9805H107.954C107.954 93.0498 107.668 92.4055 107.166 91.9759C106.593 91.5463 105.948 91.3316 105.16 91.3316C104.3 91.3316 103.655 91.5463 103.225 92.0475C102.723 92.5487 102.508 93.1214 102.508 93.9089C102.508 94.6249 102.723 95.126 103.225 95.484C103.512 95.6988 103.942 95.842 104.586 96.0567L105.59 96.3431C106.163 96.4863 106.521 96.6295 106.808 96.8443C107.023 97.059 107.166 97.3454 107.166 97.775C107.166 98.3477 106.879 98.7773 106.306 99.0637C106.02 99.2069 105.661 99.2785 105.303 99.2785C104.443 99.2785 103.87 98.9921 103.583 98.4909C103.44 98.2045 103.297 97.8466 103.297 97.3454H102.293C102.293 98.2761 102.508 98.9205 103.082 99.4932C103.583 99.9944 104.3 100.281 105.231 100.281C106.02 100.281 106.736 100.066 107.309 99.708C107.883 99.2785 108.241 98.6341 108.241 97.7034C108.098 96.7727 107.883 96.1999 107.453 95.842ZM113.902 91.5463H110.462V99.8512H111.466V96.3431H113.83C114.619 96.3431 115.192 96.1283 115.55 95.6272C115.908 95.126 116.123 94.5533 116.123 93.9089C116.123 93.1214 115.908 92.5487 115.478 92.1191C115.12 91.7611 114.547 91.5463 113.902 91.5463ZM114.69 95.0544C114.404 95.2692 114.045 95.4124 113.544 95.4124H111.537V92.5487H113.544C113.902 92.5487 114.26 92.6202 114.475 92.6918C114.905 92.9066 115.12 93.3362 115.12 93.9089C115.12 94.4817 114.977 94.8396 114.69 95.0544ZM118.488 99.8512H119.563V91.5463H118.488V99.8512ZM121.354 92.5487H123.934V99.8512H125.009V92.5487H127.589V91.5463H121.426C121.354 91.5463 121.354 92.5487 121.354 92.5487ZM130.742 91.5463L127.875 99.8512H128.95L129.81 97.3454H132.82L133.608 99.8512H134.754L131.96 91.5463H130.742ZM130.025 96.4147L131.243 92.7634L132.39 96.4147C132.461 96.4147 130.025 96.4147 130.025 96.4147ZM137.406 91.5463H136.403V99.8512H141.275V98.8489H137.477C137.406 98.8489 137.406 91.5463 137.406 91.5463ZM148.011 95.842C147.725 95.6272 147.366 95.4124 146.865 95.3408L145.861 95.0544C145.145 94.8396 144.715 94.6965 144.5 94.6249C144.213 94.4101 144.07 94.1237 144.07 93.7657C144.07 93.4078 144.213 93.0498 144.428 92.7634C144.715 92.4771 145.073 92.3339 145.718 92.3339C146.435 92.3339 146.936 92.5487 147.223 92.9782C147.366 93.193 147.51 93.551 147.581 93.9805H148.513C148.513 93.0498 148.226 92.4055 147.725 91.9759C147.151 91.5463 146.506 91.3316 145.718 91.3316C144.858 91.3316 144.213 91.5463 143.783 92.0475C143.353 92.5487 143.067 93.1214 143.067 93.9089C143.067 94.6249 143.282 95.126 143.783 95.484C144.07 95.6988 144.5 95.842 145.145 96.0567L146.148 96.3431C146.721 96.4863 147.08 96.6295 147.366 96.8443C147.653 97.059 147.725 97.3454 147.725 97.775C147.725 98.3477 147.438 98.7773 146.865 99.0637C146.578 99.2069 146.22 99.2785 145.861 99.2785C145.002 99.2785 144.428 98.9921 144.142 98.4909C143.998 98.2045 143.855 97.8466 143.855 97.3454H142.923C142.923 98.2761 143.138 98.9205 143.712 99.4932C144.213 99.9944 144.93 100.281 145.861 100.281C146.65 100.281 147.366 100.066 147.94 99.708C148.513 99.2785 148.871 98.6341 148.871 97.7034C148.728 96.7727 148.441 96.1999 148.011 95.842Z" fill="#2582A1"/>
<path d="M95.0545 60.1883L98.1357 62.7656L101.217 60.1883V52.3846H95.1261M101.504 43.8649H94.1945V42.0035L77.4982 62.4793H86.3122L94.9828 51.5254H101.432V50.4515V44.4377C101.504 44.4377 101.504 43.8649 101.504 43.8649ZM95.0545 43.0058H101.145V36.4192L104.37 30.9781H91.3999L94.9828 36.4192C95.0544 36.4192 95.0545 43.0058 95.0545 43.0058ZM76.3517 20.0958H59.4404V52.0982H67.3945L85.7389 30.1905L76.3517 20.0958ZM70.3324 31.1928H67.6811V34.0566H65.388V31.1928H62.7367V28.6871H65.388V25.8233H67.6811V28.6871H70.3324V31.1928ZM83.3025 50.6663L84.5924 45.7264H86.3122V32.052L68.4693 53.3869V62.7656L77.4266 52.0982H81.5827C81.5111 52.0982 82.9442 52.2414 83.3025 50.6663ZM84.3057 39.0681L83.0159 40.5L81.7261 39.0681H84.3057Z" fill="#2582A1"/>
<path d="M90.5385 12.0048L90.3235 11.9332C80.0048 9.06947 79.3599 3.69995 79.6465 1.83851C78.9299 3.98632 79.0016 8.35353 79.7182 10.8593C80.9363 12.2196 85.0925 14.1526 89.0337 14.5822C89.4636 14.6538 89.8936 14.7254 90.3235 14.797C100.714 16.9448 101.574 26.1803 97.8476 30.6191C98.2776 29.76 102.649 20.1665 91.9 18.1619C91.3984 18.0903 90.8968 17.9471 90.3952 17.8755C82.7995 16.372 82.1545 15.0833 81.7962 15.0117C81.5096 16.4436 83.3727 24.1041 90.3952 25.0348H90.4669C97.0594 25.894 97.7043 29.4736 97.776 30.6191C99.7107 29.1157 100.929 26.4667 101.001 23.5314V22.7438C100.857 18.305 97.9193 13.4367 90.5385 12.0048Z" fill="#FDB931"/>
</svg>
